<svg width="129" height="44" viewBox="0 0 129 44" fill="none" xmlns="http://www.w3.org/2000/svg">
<path d="M117.534 8.29541V6.79541H116.034H108.682H107.182V8.29541V17.8507H98.6614H97.1614V19.3507V25.9947V27.4947H98.6614H107.182V37.1044V38.6044H108.682H116.034H117.534V37.1044V27.4947H126H127.5V25.9947V19.3507V17.8507H126H117.534V8.29541Z" fill="#FC7F7F" stroke="#3149BC" stroke-width="3"/>
<path d="M66.0379 37.1714L66.0379 37.1714L66.0446 37.1796C68.9328 40.728 73.1277 42.4162 78.3721 42.4162C83.6137 42.4162 87.7951 40.7293 90.6485 37.1754C93.4927 33.6784 94.794 28.672 94.794 22.4C94.794 16.1279 93.4927 11.1215 90.6485 7.62451C87.795 4.0707 83.6137 2.38379 78.3721 2.38379C73.1277 2.38379 68.9328 4.07202 66.0446 7.62039L66.0445 7.62037L66.0379 7.6286C63.2327 11.125 61.9502 16.1294 61.9502 22.4C61.9502 28.6705 63.2327 33.675 66.0379 37.1714ZM81.9779 28.5863L81.9751 28.598L81.9725 28.6097C81.6487 30.067 81.1584 30.9305 80.6415 31.4095C80.1357 31.8432 79.4249 32.1186 78.3721 32.1186C77.3755 32.1186 76.6493 31.8535 76.0914 31.399C75.5702 30.9107 75.0699 30.0411 74.7146 28.5976C74.386 27.0758 74.2083 25.022 74.2083 22.4C74.2083 19.7725 74.3867 17.7382 74.7146 16.2565C75.0785 14.7414 75.5887 13.8917 76.0888 13.4569L76.0888 13.4569L76.0923 13.4539C76.6547 12.9617 77.3783 12.6814 78.3721 12.6814C79.4157 12.6814 80.1201 12.9688 80.6282 13.4327L80.6417 13.445L80.6554 13.4569C81.1458 13.8834 81.6415 14.7223 81.971 16.238L81.9751 16.2568L81.9797 16.2755C82.3388 17.7447 82.5359 19.7711 82.5359 22.4C82.5359 25.0272 82.3392 27.0757 81.9779 28.5863Z" fill="#FC7F7F" stroke="#3149BC" stroke-width="3"/>
<path d="M30.9903 37.1714L30.9903 37.1714L30.9969 37.1796C33.8852 40.728 38.0801 42.4162 43.3245 42.4162C48.5661 42.4162 52.7475 40.7293 55.6009 37.1754C58.4451 33.6784 59.7464 28.672 59.7464 22.4C59.7464 16.1279 58.4451 11.1215 55.6009 7.62451C52.7474 4.0707 48.5661 2.38379 43.3245 2.38379C38.0801 2.38379 33.8852 4.07202 30.9969 7.62039L30.9969 7.62037L30.9903 7.6286C28.185 11.125 26.9026 16.1294 26.9026 22.4C26.9026 28.6705 28.185 33.675 30.9903 37.1714ZM46.9303 28.5863L46.9275 28.598L46.9249 28.6097C46.6011 30.067 46.1108 30.9305 45.5939 31.4095C45.0881 31.8432 44.3773 32.1186 43.3245 32.1186C42.3279 32.1186 41.6017 31.8535 41.0438 31.399C40.5226 30.9107 40.0223 30.0411 39.667 28.5976C39.3383 27.0758 39.1607 25.022 39.1607 22.4C39.1607 19.7725 39.3391 17.7382 39.667 16.2565C40.0308 14.7414 40.5411 13.8917 41.0412 13.4569L41.0412 13.4569L41.0447 13.4539C41.6071 12.9617 42.3307 12.6814 43.3245 12.6814C44.3681 12.6814 45.0725 12.9688 45.5806 13.4327L45.594 13.445L45.6078 13.4569C46.0982 13.8834 46.5939 14.7223 46.9234 16.238L46.9275 16.2568L46.9321 16.2755C47.2912 17.7447 47.4882 19.7711 47.4882 22.4C47.4882 25.0272 47.2916 27.0757 46.9303 28.5863Z" fill="#FC7F7F" stroke="#3149BC" stroke-width="3"/>
<path d="M11.2368 40.3717V41.8717H12.7368H21.777H23.277V40.3717V4.42847V2.92847H21.777H14.3161H13.5133L13.068 3.59642C12.74 4.08848 12.2233 4.65032 11.4699 5.27444C10.7093 5.86823 9.83872 6.43816 8.85351 6.98172L9.56001 8.26225L8.85351 6.98172C7.86509 7.52706 6.86354 7.98505 5.84864 8.35717L5.84082 8.36004L5.83304 8.36299C4.88945 8.72091 4.03197 8.91809 3.25471 8.97788L1.70517 9.09707L1.87918 10.6414L2.75054 18.3747L2.93025 19.9696L4.50943 19.6825C6.26947 19.3625 7.9475 18.7623 9.53857 17.8872L9.55105 17.8804L9.5634 17.8733C10.1393 17.5421 10.6971 17.1917 11.2368 16.822V16.8252V16.8309V16.8367V16.8424V16.8482V16.8539V16.8596V16.8654V16.8711V16.8769V16.8826V16.8883V16.8941V16.8998V16.9055V16.9113V16.917V16.9227V16.9285V16.9342V16.9399V16.9457V16.9514V16.9571V16.9629V16.9686V16.9743V16.9801V16.9858V16.9915V16.9973V17.003V17.0087V17.0144V17.0202V17.0259V17.0316V17.0373V17.0431V17.0488V17.0545V17.0602V17.066V17.0717V17.0774V17.0831V17.0889V17.0946V17.1003V17.106V17.1118V17.1175V17.1232V17.1289V17.1346V17.1403V17.1461V17.1518V17.1575V17.1632V17.1689V17.1747V17.1804V17.1861V17.1918V17.1975V17.2032V17.2089V17.2147V17.2204V17.2261V17.2318V17.2375V17.2432V17.2489V17.2546V17.2603V17.2661V17.2718V17.2775V17.2832V17.2889V17.2946V17.3003V17.306V17.3117V17.3174V17.3231V17.3288V17.3345V17.3402V17.3459V17.3516V17.3573V17.3631V17.3688V17.3745V17.3802V17.3859V17.3916V17.3973V17.403V17.4087V17.4144V17.4201V17.4257V17.4314V17.4371V17.4428V17.4485V17.4542V17.4599V17.4656V17.4713V17.477V17.4827V17.4884V17.4941V17.4998V17.5055V17.5112V17.5169V17.5225V17.5282V17.5339V17.5396V17.5453V17.551V17.5567V17.5624V17.5681V17.5737V17.5794V17.5851V17.5908V17.5965V17.6022V17.6079V17.6135V17.6192V17.6249V17.6306V17.6363V17.642V17.6476V17.6533V17.659V17.6647V17.6704V17.676V17.6817V17.6874V17.6931V17.6988V17.7044V17.7101V17.7158V17.7215V17.7271V17.7328V17.7385V17.7442V17.7498V17.7555V17.7612V17.7669V17.7725V17.7782V17.7839V17.7895V17.7952V17.8009V17.8066V17.8122V17.8179V17.8236V17.8292V17.8349V17.8406V17.8462V17.8519V17.8576V17.8632V17.8689V17.8746V17.8802V17.8859V17.8916V17.8972V17.9029V17.9085V17.9142V17.9199V17.9255V17.9312V17.9369V17.9425V17.9482V17.9538V17.9595V17.9652V17.9708V17.9765V17.9821V17.9878V17.9934V17.9991V18.0047V18.0104V18.0161V18.0217V18.0274V18.033V18.0387V18.0443V18.05V18.0556V18.0613V18.0669V18.0726V18.0782V18.0839V18.0895V18.0952V18.1008V18.1065V18.1121V18.1178V18.1234V18.1291V18.1347V18.1404V18.146V18.1516V18.1573V18.1629V18.1686V18.1742V18.1799V18.1855V18.1911V18.1968V18.2024V18.2081V18.2137V18.2193V18.225V18.2306V18.2363V18.2419V18.2475V18.2532V18.2588V18.2645V18.2701V18.2757V18.2814V18.287V18.2926V18.2983V18.3039V18.3095V18.3152V18.3208V18.3264V18.3321V18.3377V18.3433V18.3489V18.3546V18.3602V18.3658V18.3715V18.3771V18.3827V18.3883V18.394V18.3996V18.4052V18.4109V18.4165V18.4221V18.4277V18.4333V18.439V18.4446V18.4502V18.4558V18.4615V18.4671V18.4727V18.4783V18.4839V18.4896V18.4952V18.5008V18.5064V18.512V18.5177V18.5233V18.5289V18.5345V18.5401V18.5457V18.5514V18.557V18.5626V18.5682V18.5738V18.5794V18.585V18.5906V18.5963V18.6019V18.6075V18.6131V18.6187V18.6243V18.6299V18.6355V18.6411V18.6467V18.6524V18.658V18.6636V18.6692V18.6748V18.6804V18.686V18.6916V18.6972V18.7028V18.7084V18.714V18.7196V18.7252V18.7308V18.7364V18.742V18.7476V18.7532V18.7588V18.7644V18.77V18.7756V18.7812V18.7868V18.7924V18.798V18.8036V18.8092V18.8148V18.8204V18.826V18.8316V18.8372V18.8428V18.8484V18.854V18.8595V18.8651V18.8707V18.8763V18.8819V18.8875V18.8931V18.8987V18.9043V18.9099V18.9155V18.921V18.9266V18.9322V18.9378V18.9434V18.949V18.9546V18.9601V18.9657V18.9713V18.9769V18.9825V18.9881V18.9936V18.9992V19.0048V19.0104V19.016V19.0215V19.0271V19.0327V19.0383V19.0439V19.0494V19.055V19.0606V19.0662V19.0717V19.0773V19.0829V19.0885V19.0941V19.0996V19.1052V19.1108V19.1163V19.1219V19.1275V19.1331V19.1386V19.1442V19.1498V19.1553V19.1609V19.1665V19.1721V19.1776V19.1832V19.1888V19.1943V19.1999V19.2055V19.211V19.2166V19.2222V19.2277V19.2333V19.2389V19.2444V19.25V19.2555V19.2611V19.2667V19.2722V19.2778V19.2833V19.2889V19.2945V19.3V19.3056V19.3111V19.3167V19.3223V19.3278V19.3334V19.3389V19.3445V19.35V19.3556V19.3612V19.3667V19.3723V19.3778V19.3834V19.3889V19.3945V19.4V19.4056V19.4111V19.4167V19.4222V19.4278V19.4333V19.4389V19.4444V19.45V19.4555V19.4611V19.4666V19.4722V19.4777V19.4833V19.4888V19.4944V19.4999V19.5054V19.511V19.5165V19.5221V19.5276V19.5332V19.5387V19.5442V19.5498V19.5553V19.5609V19.5664V19.5719V19.5775V19.583V19.5886V19.5941V19.5996V19.6052V19.6107V19.6162V19.6218V19.6273V19.6328V19.6384V19.6439V19.6494V19.655V19.6605V19.666V19.6716V19.6771V40.3717Z" fill="#FC7F7F" stroke="#3149BC" stroke-width="3"/>
</svg>
