<svg width="120" height="120" viewBox="0 0 120 120" fill="none" xmlns="http://www.w3.org/2000/svg">
<g clip-path="url(#clip0_4721_498)">
<path d="M72.1896 84.6679L72.1951 84.6747C76.9532 90.5204 83.8919 93.3716 92.7968 93.3716C101.699 93.3716 108.61 90.5215 113.306 84.6713C118.027 78.8684 120.287 70.4304 120.287 59.5608C120.287 48.6912 118.027 40.2533 113.306 34.4504C108.61 28.6001 101.699 25.75 92.7968 25.75C83.8919 25.75 76.9532 28.6012 72.1951 34.4469L72.1951 34.4469L72.1896 34.4537C67.5342 40.2561 65.3066 48.6923 65.3066 59.5608C65.3066 70.4293 67.5342 78.8655 72.1896 84.6679L72.1896 84.6679ZM100.487 70.7621L100.485 70.7719L100.483 70.7817C99.8767 73.5096 98.9133 75.3367 97.7111 76.4402C96.5175 77.4728 94.9182 78.0388 92.7968 78.0388C90.7555 78.0388 89.1435 77.4813 87.8729 76.4313C86.6685 75.3211 85.6793 73.49 85.0128 70.7715C84.4031 67.9585 84.087 64.2318 84.087 59.5608C84.087 54.8853 84.4037 51.1915 85.0128 48.4454C85.6856 45.6372 86.682 43.821 87.871 42.7871L87.8739 42.7846C89.1488 41.6691 90.7595 41.0828 92.7968 41.0828C94.9093 41.0828 96.504 41.675 97.7 42.767L97.7112 42.7772L97.7226 42.7871C98.9039 43.8144 99.8712 45.6219 100.482 48.43L100.485 48.4457L100.489 48.4613C101.158 51.1972 101.507 54.8845 101.507 59.5608C101.507 64.2357 101.158 67.9582 100.487 70.7621Z" fill="#FC7F7F" stroke="#3149BC" stroke-width="2.5"/>
<path d="M22.5576 90.0611L22.568 90.0667L22.5784 90.0721C26.8729 92.2865 31.8649 93.3714 37.5164 93.3714C40.9485 93.3714 44.1993 92.9094 47.2625 91.9774C50.4048 91.0409 53.1979 89.5974 55.6278 87.6414C58.1477 85.6647 60.0879 83.1762 61.4442 80.1949C62.876 77.1242 63.57 73.5544 63.57 69.5204C63.57 65.6324 62.7303 62.1306 61.0185 59.0494C59.3075 55.9695 56.8732 53.5389 53.7415 51.7687C50.5783 49.9809 46.8125 49.117 42.4962 49.117C39.5737 49.117 36.884 49.5156 34.4396 50.3304C33.2123 50.7394 32.1002 51.2493 31.1131 51.8655L32.3908 41.9445H59.1597H60.4097V40.6945V27.9575V26.7075H59.1597H19.3206H18.2052L18.0787 27.8158L14.0565 63.058L13.9242 64.2172L15.0715 64.429L27.5212 66.7274L28.1674 66.8467L28.632 66.3821C29.3819 65.6322 30.1775 65.0382 31.0178 64.59L31.0302 64.5834L31.0424 64.5766C31.9468 64.0679 32.9433 63.696 34.039 63.4653L34.0694 63.4589L34.0996 63.451C35.1889 63.1643 36.4518 63.0133 37.8994 63.0133C39.8755 63.0133 41.4255 63.3437 42.6076 63.9348L42.6283 63.9451L42.6494 63.9547C43.8239 64.4886 44.6672 65.2658 45.2317 66.2921L45.243 66.3127L45.2551 66.3328C45.8757 67.3673 46.2261 68.7256 46.2261 70.4781C46.2261 72.2812 45.8492 73.7431 45.155 74.9178L45.1504 74.9257L45.1459 74.9336C44.5043 76.0562 43.6039 76.9063 42.4161 77.5002C41.2243 78.0961 39.7338 78.4217 37.8994 78.4217C34.9664 78.4217 32.9694 77.7054 31.6873 76.4802C30.3434 75.1326 29.3221 73.2984 28.6661 70.9128L28.2637 69.4497L26.9048 70.1247L12.444 77.3072L11.2624 77.8941L11.9121 79.0423C14.7477 84.0541 18.287 87.7563 22.5576 90.0611Z" fill="#FC7F7F" stroke="#3149BC" stroke-width="2.5"/>
<path d="M3.88698 43.5612L3.89475 43.5627L3.90253 43.5641C4.03498 43.588 4.16747 43.6101 4.3 43.6304V44.4V45.4H5.3H7.9H8.9V44.4V43.5387C9.19901 43.4682 9.4903 43.383 9.77358 43.2827L9.77361 43.2828L9.78638 43.2781C10.8125 42.8992 11.6626 42.2987 12.2962 41.4651C12.9659 40.5838 13.26 39.4947 13.26 38.28C13.26 37.02 12.8386 35.9248 11.8895 35.163C11.7703 35.0655 11.6447 34.9725 11.5129 34.8837L11.6452 34.6745L13.3652 31.9545L13.8424 31.1998L13.1464 30.6405C12.2949 29.9562 11.315 29.4466 10.2186 29.1056C9.79633 28.9727 9.35658 28.8667 8.9 28.7869V28V27H7.9H5.3H4.3V28V28.8255C3.8285 28.9261 3.38215 29.0615 2.96275 29.2339C1.92631 29.6522 1.07621 30.2716 0.468466 31.1157L0.46846 31.1157L0.466267 31.1188C-0.133219 31.958 -0.42 32.9326 -0.42 34C-0.42 34.8999 -0.183167 35.7276 0.350648 36.4139C0.558969 36.6818 0.793255 36.9242 1.05154 37.1418L0.880954 37.4281L-0.859046 40.3481L-1.30077 41.0894L-0.632127 41.6349C-0.0418414 42.1164 0.642593 42.5161 1.41036 42.841L1.42095 42.8454L1.43164 42.8497C2.19989 43.1541 3.01908 43.3905 3.88698 43.5612ZM5.38034 32.9234C5.38018 32.9234 5.38002 32.9233 5.37986 32.9232C5.37882 32.9227 5.37834 32.9225 5.37836 32.9224L5.38034 32.9234ZM7.64116 39.4884C7.64111 39.4884 7.64017 39.4879 7.63844 39.4869C7.64034 39.4878 7.64121 39.4883 7.64116 39.4884Z" fill="#FC7F7F" stroke="#3149BC" stroke-width="2"/>
</g>
<defs>
<clipPath id="clip0_4721_498">
<rect width="120" height="120" fill="white"/>
</clipPath>
</defs>
</svg>
