<svg width="1200" height="1229" viewBox="0 0 1200 1229" fill="none" xmlns="http://www.w3.org/2000/svg">
<rect width="1200" height="1229" rx="30" fill="#121212"/>
<mask id="mask0_4648_1601" style="mask-type:alpha" maskUnits="userSpaceOnUse" x="0" y="0" width="1200" height="1229">
<rect width="1200" height="1229" fill="#121212"/>
</mask>
<g mask="url(#mask0_4648_1601)">
<path opacity="0.2" d="M1153.54 959.173C1125.69 931.326 1083.38 917.938 1014.3 917.938H888.455L861.56 1018.08H986.456H1010.02C1023.94 1018.08 1038.94 1021.29 1047.5 1029.86C1053.39 1035.75 1056.61 1043.79 1056.61 1051.82C1056.61 1080.2 1034.65 1101.62 986.99 1101.62H972.16H964.497H839.124L787.779 1292.8H913.089L940.401 1191.05H993.417C1112.3 1191.05 1182.99 1128.4 1182.99 1034.68C1182.99 1005.23 1173.35 978.987 1153.54 959.173Z" fill="#B6B7B8"/>
<path opacity="0.2" d="M907.586 794H769.876L522 1013.15L536.3 1103.14H704.2L687.251 1167.19H807.481L848.259 1015.17L727.596 1017.04L727.503 1017.39H646.997L907.586 794Z" fill="#B6B7B8"/>
</g>
</svg>
