<svg width="78" height="47" viewBox="0 0 78 47" fill="none" xmlns="http://www.w3.org/2000/svg">
<g clip-path="url(#clip0_162_152)">
<path d="M22.7074 8.64983L24.2691 11.8396L27.8116 12.316C28.5138 12.4093 28.7653 13.2688 28.2832 13.7245L25.6945 16.179L26.3338 19.6588C26.4596 20.3424 25.7259 20.8602 25.118 20.5288L21.9633 18.851L18.8085 20.5288C18.2007 20.8498 17.4356 20.3527 17.6032 19.6071L18.2321 16.1687L15.6433 13.7142C15.1403 13.2378 15.4128 12.3885 16.1254 12.2953L19.6575 11.8189L21.2191 8.62911C21.5126 8.01808 22.414 8.02843 22.7074 8.64983ZM22.959 12.9582L21.9633 10.9076L20.9571 12.9582C20.8418 13.1964 20.6008 13.3828 20.3178 13.4242L18.0434 13.7245L19.7099 15.2987C19.8986 15.4852 20.0034 15.7544 19.951 16.034L19.5422 18.2711L21.5545 17.2043C21.7956 17.0801 22.0995 17.0593 22.3511 17.2043L24.3739 18.2814L23.9756 16.0858C23.9127 15.8166 23.9861 15.5162 24.2062 15.2987L25.8726 13.7245L23.6192 13.4242C23.3467 13.3931 23.0847 13.2171 22.959 12.9582ZM40.5458 1.14132L42.1074 4.33114L45.6604 4.80754C46.3627 4.90075 46.6142 5.76035 46.1321 6.22639L43.5433 8.6809L44.1826 12.1607C44.3084 12.8442 43.5748 13.3621 42.9669 13.0306L39.7912 11.3529L36.6364 13.0306C36.0286 13.3517 35.2635 12.8546 35.4311 12.1089L36.06 8.67054L33.4607 6.21604C32.9577 5.73963 33.2302 4.8904 33.9429 4.79719L37.4749 4.32079L39.0366 1.14132C39.351 0.509574 40.2418 0.51993 40.5458 1.14132ZM40.7973 5.44965L39.7912 3.39905L38.7955 5.44965C38.6802 5.68785 38.4391 5.87427 38.1562 5.9157L35.8713 6.21604L37.5378 7.79023C37.7369 7.97665 37.8313 8.24592 37.7789 8.52555L37.3701 10.7626L39.3929 9.69584C39.634 9.57156 39.9274 9.55085 40.1894 9.69584L42.2122 10.7729L41.814 8.57733C41.7511 8.30806 41.8245 8.00772 42.0446 7.79023L43.711 6.21604L41.4576 5.90534C41.1746 5.88463 40.9231 5.70856 40.7973 5.44965ZM58.3737 8.64983L59.9353 11.8396L63.4779 12.316C64.1801 12.4093 64.4421 13.2688 63.9495 13.7245L61.3607 16.179L62.0001 19.6588C62.1258 20.3424 61.3922 20.8602 60.7843 20.5288L57.6296 18.851L54.4748 20.5288C53.8669 20.8498 53.1018 20.3527 53.259 19.6071L53.8879 16.1687L51.2991 13.7142C50.796 13.2378 51.0686 12.3885 51.7812 12.2953L55.3133 11.8189L56.8749 8.62911C57.1789 8.01808 58.0802 8.02843 58.3737 8.64983ZM58.6252 12.9582L57.6296 10.9076L56.6234 12.9582C56.5081 13.1964 56.2775 13.3828 55.9841 13.4242L53.7097 13.7245L55.3657 15.2987C55.5543 15.4852 55.6592 15.7544 55.6068 16.034L55.198 18.2711L57.2208 17.2043C57.4619 17.0801 57.7658 17.0593 58.0173 17.2043L60.0506 18.2814L59.6524 16.0858C59.5895 15.8166 59.6628 15.5162 59.8829 15.2987L61.5389 13.7245L59.2855 13.4242C59.013 13.3931 58.751 13.2171 58.6252 12.9582ZM35.9028 29.7979C35.6722 29.4044 35.8085 28.8969 36.2067 28.669C36.605 28.4412 37.1186 28.5758 37.3491 28.9694L38.4496 30.8543L42.359 26.9913C42.6839 26.6702 43.2184 26.6702 43.5433 26.9913C43.8682 27.3123 43.8682 27.8405 43.5433 28.1616L38.8584 32.791C38.4706 33.1741 37.8208 33.0913 37.5483 32.6252L35.9028 29.7979ZM39.7912 21.0466C44.3503 21.0466 48.0501 24.7025 48.0501 29.2076C48.0501 33.7127 44.3503 37.3686 39.7912 37.3686C35.232 37.3686 31.5323 33.7127 31.5323 29.2076C31.5323 24.7025 35.232 21.0466 39.7912 21.0466ZM44.4447 24.6093C41.8769 22.0719 37.7055 22.0719 35.1377 24.6093C32.5699 27.1466 32.5699 31.2685 35.1377 33.8059C37.7055 36.3433 41.8769 36.3433 44.4447 33.8059C47.0125 31.2582 47.0125 27.1466 44.4447 24.6093ZM39.7912 15.9201C47.2116 15.9201 53.2276 21.8648 53.2276 29.1972C53.2276 31.9728 52.3682 34.5516 50.8904 36.685L54.9045 43.5514C55.2923 44.1935 54.7578 44.9185 54.0661 44.8149L49.9576 44.1728L47.7566 46.8448C47.3688 47.3419 46.6456 47.2591 46.3627 46.7619L43.5538 41.9565C41.1013 42.6607 38.4706 42.6607 36.0286 41.9565L33.2197 46.7619C32.9367 47.2591 32.2135 47.3419 31.8257 46.8448L29.6248 44.1728L25.5163 44.8149C24.8141 44.9288 24.3215 44.1728 24.6568 43.5825L28.692 36.685C25.0446 31.4135 25.7259 24.3193 30.2955 19.8038C32.7166 17.4115 36.081 15.9201 39.7912 15.9201ZM49.7794 38.0832C48.5007 39.4916 46.9286 40.6205 45.1469 41.3869L47.2011 44.8978L48.9619 42.7643C49.161 42.5158 49.465 42.4225 49.7584 42.4743L52.5883 42.9197L49.7794 38.0832ZM34.425 41.3869C32.6537 40.6205 31.0816 39.4916 29.8029 38.0935L26.9836 42.9197L29.8134 42.4743C30.0964 42.4225 30.4108 42.5261 30.61 42.7643L32.3707 44.8978L34.425 41.3869ZM48.113 20.9845C43.5223 16.4483 36.0705 16.4483 31.4799 20.9845C26.8893 25.5207 26.8893 32.8842 31.4799 37.4203C36.081 41.9565 43.5223 41.9565 48.113 37.4203C52.7036 32.8842 52.7036 25.5207 48.113 20.9845Z" fill="white"/>
<path d="M63.5138 24.2778L65.0754 27.4676L68.618 27.944C69.3202 28.0372 69.5822 28.8968 69.0896 29.3525L66.5008 31.807L67.1402 35.2868C67.2659 35.9703 66.5323 36.4881 65.9244 36.1567L62.7697 34.479L59.6149 36.1567C59.007 36.4778 58.2419 35.9807 58.3991 35.235L59.028 31.7966L56.4392 29.3421C55.9361 28.8657 56.2087 28.0165 56.9213 27.9233L60.4534 27.4469L62.015 24.2571C62.319 23.646 63.2203 23.6564 63.5138 24.2778ZM63.7653 28.5861L62.7697 26.5355L61.7635 28.5861C61.6482 28.8243 61.4176 29.0107 61.1242 29.0521L58.8498 29.3525L60.5058 30.9267C60.6944 31.1131 60.7993 31.3824 60.7469 31.662L60.3381 33.899L62.3609 32.8323C62.602 32.708 62.9059 32.6873 63.1574 32.8323L65.1907 33.9094L64.7925 31.7138C64.7296 31.4445 64.8029 31.1442 65.023 30.9267L66.679 29.3525L64.4256 29.0521C64.1531 29.0211 63.8911 28.845 63.7653 28.5861Z" fill="white"/>
<path d="M15.3322 24.2778L16.8938 27.4676L20.4363 27.944C21.1385 28.0372 21.4006 28.8968 20.908 29.3525L18.3192 31.807L18.9585 35.2868C19.0843 35.9703 18.3506 36.4881 17.7427 36.1567L14.588 34.479L11.4333 36.1567C10.8254 36.4778 10.0603 35.9807 10.2175 35.235L10.8464 31.7966L8.25759 29.3421C7.75451 28.8657 8.02701 28.0165 8.73971 27.9233L12.2718 27.4469L13.8334 24.2571C14.1373 23.646 15.0387 23.6564 15.3322 24.2778ZM15.5837 28.5861L14.588 26.5355L13.5819 28.5861C13.4666 28.8243 13.236 29.0107 12.9425 29.0521L10.6682 29.3525L12.3242 30.9267C12.5128 31.1131 12.6176 31.3824 12.5652 31.662L12.1565 33.899L14.1793 32.8323C14.4203 32.708 14.7243 32.6873 14.9758 32.8323L17.0091 33.9094L16.6108 31.7138C16.5479 31.4445 16.6213 31.1442 16.8414 30.9267L18.4974 29.3525L16.244 29.0521C15.9715 29.0211 15.7095 28.845 15.5837 28.5861Z" fill="white"/>
</g>
<defs>
<clipPath id="clip0_162_152">
<rect width="61.7714" height="47" fill="white" transform="translate(8)"/>
</clipPath>
</defs>
</svg>
