<svg width="1200" height="821" viewBox="0 0 1200 821" fill="none" xmlns="http://www.w3.org/2000/svg">
<path d="M192 154.056C192 135.247 207.247 120 226.056 120L973.944 120C992.752 120 1008 135.247 1008 154.056L1008 413.745C1008 425.13 1005.15 436.333 999.699 446.331L903.59 622.737C897.624 633.686 886.153 640.5 873.684 640.5H226.056C207.247 640.5 192 625.253 192 606.444V154.056Z" fill="#121212"/>
<path d="M582.51 296.959H570.575V301.859H580.095V306.514H570.575V315.404H564.555V292.304H582.51V296.959ZM592.397 315.754C590.46 315.754 588.78 315.393 587.357 314.669C585.957 313.946 584.872 312.908 584.102 311.554C583.332 310.201 582.947 308.568 582.947 306.654C582.947 304.741 583.332 303.108 584.102 301.754C584.872 300.401 585.945 299.363 587.322 298.639C588.722 297.916 590.32 297.554 592.117 297.554C593.96 297.554 595.523 297.916 596.807 298.639C598.113 299.339 599.105 300.319 599.782 301.579C600.458 302.816 600.797 304.239 600.797 305.849C600.797 306.269 600.785 306.689 600.762 307.109C600.738 307.529 600.703 307.879 600.657 308.159H586.797V304.974H598.032L595.197 306.059C595.197 304.659 594.94 303.586 594.427 302.839C593.937 302.093 593.167 301.719 592.117 301.719C591.37 301.719 590.728 301.894 590.192 302.244C589.678 302.594 589.282 303.143 589.002 303.889C588.745 304.636 588.617 305.593 588.617 306.759C588.617 307.903 588.768 308.836 589.072 309.559C589.375 310.259 589.807 310.773 590.367 311.099C590.927 311.403 591.603 311.554 592.397 311.554C593.283 311.554 593.983 311.379 594.497 311.029C595.033 310.679 595.43 310.189 595.687 309.559L600.447 311.134C600.12 312.138 599.548 312.989 598.732 313.689C597.938 314.366 596.982 314.879 595.862 315.229C594.765 315.579 593.61 315.754 592.397 315.754ZM613.89 304.309C613.89 303.493 613.657 302.851 613.19 302.384C612.747 301.894 612.14 301.649 611.37 301.649C610.6 301.649 609.935 301.848 609.375 302.244C608.839 302.618 608.465 303.294 608.255 304.274L603.215 303.084C603.542 301.404 604.405 300.063 605.805 299.059C607.205 298.056 609.177 297.554 611.72 297.554C613.424 297.554 614.87 297.811 616.06 298.324C617.274 298.814 618.195 299.561 618.825 300.564C619.479 301.544 619.805 302.758 619.805 304.204V310.609C619.805 311.519 620.214 311.974 621.03 311.974C621.45 311.974 621.789 311.928 622.045 311.834L621.695 315.229C620.995 315.556 620.144 315.719 619.14 315.719C618.23 315.719 617.425 315.579 616.725 315.299C616.025 314.996 615.477 314.553 615.08 313.969C614.684 313.363 614.485 312.604 614.485 311.694V311.484L615.15 311.239C615.15 312.243 614.847 313.083 614.24 313.759C613.657 314.436 612.887 314.938 611.93 315.264C610.997 315.591 610.017 315.754 608.99 315.754C607.8 315.754 606.762 315.568 605.875 315.194C604.989 314.821 604.3 314.284 603.81 313.584C603.344 312.861 603.11 311.974 603.11 310.924C603.11 309.664 603.484 308.626 604.23 307.809C605 306.969 606.202 306.386 607.835 306.059L614.45 304.694L614.415 307.844L611.055 308.544C610.355 308.684 609.83 308.894 609.48 309.174C609.154 309.431 608.99 309.828 608.99 310.364C608.99 310.878 609.177 311.263 609.55 311.519C609.924 311.776 610.367 311.904 610.88 311.904C611.277 311.904 611.65 311.846 612 311.729C612.374 311.613 612.7 311.438 612.98 311.204C613.26 310.948 613.482 310.633 613.645 310.259C613.809 309.886 613.89 309.443 613.89 308.929V304.309ZM631.025 292.339V309.174C631.025 310.014 631.224 310.621 631.62 310.994C632.04 311.344 632.612 311.519 633.335 311.519C633.895 311.519 634.374 311.461 634.77 311.344C635.19 311.204 635.564 311.006 635.89 310.749L636.52 314.424C635.937 314.844 635.202 315.171 634.315 315.404C633.429 315.638 632.519 315.754 631.585 315.754C630.255 315.754 629.1 315.568 628.12 315.194C627.164 314.821 626.417 314.226 625.88 313.409C625.367 312.593 625.099 311.508 625.075 310.154V293.984L631.025 292.339ZM636.24 297.904V302.139H622.065V297.904H636.24ZM644.904 315.754C643.714 315.754 642.664 315.556 641.754 315.159C640.867 314.739 640.167 314.074 639.654 313.164C639.14 312.254 638.884 311.064 638.884 309.594V297.904H644.834V308.194C644.834 309.314 645.055 310.096 645.499 310.539C645.942 310.983 646.572 311.204 647.389 311.204C647.809 311.204 648.205 311.134 648.579 310.994C648.952 310.831 649.279 310.598 649.559 310.294C649.839 309.968 650.049 309.559 650.189 309.069C650.352 308.556 650.434 307.961 650.434 307.284V297.904H656.384V315.404H651.064L650.889 312.114C650.329 313.351 649.547 314.273 648.544 314.879C647.54 315.463 646.327 315.754 644.904 315.754ZM660.658 315.404V297.904H665.908L666.153 301.684C666.597 300.378 667.25 299.363 668.113 298.639C669 297.916 670.12 297.554 671.473 297.554C671.917 297.554 672.29 297.589 672.593 297.659C672.92 297.729 673.177 297.823 673.363 297.939L672.768 302.839C672.535 302.746 672.232 302.676 671.858 302.629C671.508 302.559 671.077 302.524 670.563 302.524C669.863 302.524 669.21 302.676 668.603 302.979C667.997 303.283 667.507 303.738 667.133 304.344C666.783 304.928 666.608 305.674 666.608 306.584V315.404H660.658ZM684.032 315.754C682.096 315.754 680.416 315.393 678.992 314.669C677.592 313.946 676.507 312.908 675.737 311.554C674.967 310.201 674.582 308.568 674.582 306.654C674.582 304.741 674.967 303.108 675.737 301.754C676.507 300.401 677.581 299.363 678.957 298.639C680.357 297.916 681.956 297.554 683.752 297.554C685.596 297.554 687.159 297.916 688.442 298.639C689.749 299.339 690.741 300.319 691.417 301.579C692.094 302.816 692.432 304.239 692.432 305.849C692.432 306.269 692.421 306.689 692.397 307.109C692.374 307.529 692.339 307.879 692.292 308.159H678.432V304.974H689.667L686.832 306.059C686.832 304.659 686.576 303.586 686.062 302.839C685.572 302.093 684.802 301.719 683.752 301.719C683.006 301.719 682.364 301.894 681.827 302.244C681.314 302.594 680.917 303.143 680.637 303.889C680.381 304.636 680.252 305.593 680.252 306.759C680.252 307.903 680.404 308.836 680.707 309.559C681.011 310.259 681.442 310.773 682.002 311.099C682.562 311.403 683.239 311.554 684.032 311.554C684.919 311.554 685.619 311.379 686.132 311.029C686.669 310.679 687.066 310.189 687.322 309.559L692.082 311.134C691.756 312.138 691.184 312.989 690.367 313.689C689.574 314.366 688.617 314.879 687.497 315.229C686.401 315.579 685.246 315.754 684.032 315.754ZM703.111 315.754C701.361 315.754 699.728 315.474 698.211 314.914C696.718 314.331 695.481 313.503 694.501 312.429L697.301 309.139C697.884 309.886 698.654 310.516 699.611 311.029C700.591 311.519 701.676 311.764 702.866 311.764C703.589 311.764 704.184 311.659 704.651 311.449C705.118 311.239 705.351 310.913 705.351 310.469C705.351 310.143 705.234 309.886 705.001 309.699C704.768 309.489 704.301 309.314 703.601 309.174L701.151 308.684C698.958 308.241 697.394 307.588 696.461 306.724C695.551 305.838 695.096 304.683 695.096 303.259C695.096 302.303 695.388 301.393 695.971 300.529C696.554 299.643 697.453 298.931 698.666 298.394C699.879 297.834 701.431 297.554 703.321 297.554C705.094 297.554 706.658 297.811 708.011 298.324C709.364 298.838 710.438 299.584 711.231 300.564L708.396 303.784C707.836 303.084 707.113 302.536 706.226 302.139C705.339 301.743 704.453 301.544 703.566 301.544C703.006 301.544 702.528 301.603 702.131 301.719C701.758 301.813 701.478 301.953 701.291 302.139C701.104 302.326 701.011 302.559 701.011 302.839C701.011 303.143 701.151 303.411 701.431 303.644C701.734 303.854 702.283 304.041 703.076 304.204L706.261 304.834C708.058 305.161 709.353 305.756 710.146 306.619C710.939 307.483 711.336 308.521 711.336 309.734C711.336 310.878 711.033 311.904 710.426 312.814C709.819 313.724 708.909 314.448 707.696 314.984C706.483 315.498 704.954 315.754 703.111 315.754Z" fill="#121212"/>
</svg>
