<svg width="71" height="72" viewBox="0 0 71 72" fill="none" xmlns="http://www.w3.org/2000/svg">
<path d="M45.9688 47.9375C58.654 47.9375 68.9375 37.654 68.9375 24.9688C68.9375 12.2835 58.654 2 45.9688 2C33.2835 2 23 12.2835 23 24.9688C23 37.654 33.2835 47.9375 45.9688 47.9375Z" fill="#FC7F7F"/>
<path d="M45.9375 43.1875C56.2065 43.1875 64.5312 34.8628 64.5312 24.5938C64.5312 14.3247 56.2065 6 45.9375 6C35.6685 6 27.3438 14.3247 27.3438 24.5938C27.3438 34.8628 35.6685 43.1875 45.9375 43.1875Z" fill="white"/>
<path d="M46.8438 21.3125H44.6562C43.786 21.3125 42.9514 20.9668 42.3361 20.3514C41.7207 19.7361 41.375 18.9015 41.375 18.0312C41.375 17.161 41.7207 16.3264 42.3361 15.7111C42.9514 15.0957 43.786 14.75 44.6562 14.75H52.3125C52.8927 14.75 53.4491 14.5195 53.8593 14.1093C54.2695 13.6991 54.5 13.1427 54.5 12.5625C54.5 11.9823 54.2695 11.4259 53.8593 11.0157C53.4491 10.6055 52.8927 10.375 52.3125 10.375H47.9375V6H43.5625V10.4625C41.659 10.7524 39.9347 11.7488 38.733 13.2532C37.5314 14.7577 36.9407 16.6596 37.0786 18.5801C37.2166 20.5006 38.0731 22.2985 39.4775 23.6157C40.8818 24.9329 42.7309 25.6727 44.6562 25.6875H46.8438C47.714 25.6875 48.5486 26.0332 49.1639 26.6486C49.7793 27.2639 50.125 28.0985 50.125 28.9688C50.125 29.839 49.7793 30.6736 49.1639 31.2889C48.5486 31.9043 47.714 32.25 46.8438 32.25H39.1875C38.6073 32.25 38.0509 32.4805 37.6407 32.8907C37.2305 33.3009 37 33.8573 37 34.4375C37 35.0177 37.2305 35.5741 37.6407 35.9843C38.0509 36.3945 38.6073 36.625 39.1875 36.625H43.5625V41H47.9375V36.5375C49.841 36.2476 51.5653 35.2512 52.767 33.7468C53.9686 32.2423 54.5593 30.3404 54.4214 28.4199C54.2834 26.4994 53.4269 24.7015 52.0225 23.3843C50.6182 22.0671 48.7691 21.3273 46.8438 21.3125Z" fill="#FC7F7F"/>
<path d="M41.5312 49.875H40.4375C41.3077 49.875 42.1423 50.2207 42.7577 50.8361C43.373 51.4514 43.7188 52.286 43.7188 53.1562C43.7188 54.0265 43.373 54.8611 42.7577 55.4764C42.1423 56.0918 41.3077 56.4375 40.4375 56.4375H39.3438C40.214 56.4375 41.0486 56.7832 41.6639 57.3986C42.2793 58.0139 42.625 58.8485 42.625 59.7188C42.625 60.589 42.2793 61.4236 41.6639 62.0389C41.0486 62.6543 40.214 63 39.3438 63H38.25C39.1202 63 39.9548 63.3457 40.5702 63.9611C41.1855 64.5764 41.5312 65.411 41.5312 66.2812C41.5312 67.1515 41.1855 67.9861 40.5702 68.6014C39.9548 69.2168 39.1202 69.5625 38.25 69.5625H19.6562L12 67.375V47.6875C15.2812 47.6875 17.4688 43.3125 17.4688 43.3125L21.8438 28C21.8438 28 27.3125 28 27.3125 34.5625L26.2188 43.3125H41.5312C42.4015 43.3125 43.2361 43.6582 43.8514 44.2736C44.4668 44.8889 44.8125 45.7235 44.8125 46.5938C44.8125 47.464 44.4668 48.2986 43.8514 48.9139C43.2361 49.5293 42.4015 49.875 41.5312 49.875Z" fill="white"/>
<path d="M1 46H11.9375V70.0625H1V46Z" fill="#FC7F7F"/>
<path d="M45.9375 46.939C45.9375 45.7786 45.4766 44.6658 44.6561 43.8454C43.8356 43.0249 42.7228 42.564 41.5625 42.564H27.4859L28.4375 35.039C28.4429 34.9954 28.4429 34.9513 28.4375 34.9077C28.4375 28.8483 24.15 27.2515 21.875 27.2515C21.6295 27.2424 21.3881 27.3162 21.1897 27.4611C20.9913 27.6059 20.8474 27.8133 20.7812 28.0499L16.4062 43.2421C15.6713 44.6912 14.5314 45.8957 13.125 46.7093V45.8452C13.125 45.5551 13.0098 45.2769 12.8046 45.0718C12.5995 44.8667 12.3213 44.7515 12.0312 44.7515H1.09375C0.803669 44.7515 0.52547 44.8667 0.320352 45.0718C0.115234 45.2769 0 45.5551 0 45.8452L0 69.9077C0 70.1978 0.115234 70.476 0.320352 70.6811C0.52547 70.8862 0.803669 71.0015 1.09375 71.0015H12.0312C12.3213 71.0015 12.5995 70.8862 12.8046 70.6811C13.0098 70.476 13.125 70.1978 13.125 69.9077V69.1749L19.3922 71.0015C19.4899 71.0182 19.5898 71.0182 19.6875 71.0015H38.2812C39.1099 70.9898 39.9181 70.743 40.6119 70.2899C41.3057 69.8367 41.8566 69.1959 42.2003 68.4418C42.5441 67.6878 42.6667 66.8517 42.5538 66.0307C42.4408 65.2098 42.0971 64.4378 41.5625 63.8046C42.1043 63.4785 42.5689 63.0388 42.9245 62.5159C43.28 61.993 43.5179 61.3992 43.6219 60.7754C43.7258 60.1517 43.6933 59.5128 43.5266 58.9028C43.3599 58.2929 43.063 57.7263 42.6562 57.2421C43.198 56.916 43.6627 56.4763 44.0182 55.9534C44.3737 55.4305 44.6117 54.8367 44.7156 54.2129C44.8196 53.5892 44.7871 52.9503 44.6204 52.3403C44.4537 51.7304 44.1567 51.1638 43.75 50.6796C44.4081 50.2997 44.9558 49.755 45.3394 49.0991C45.723 48.4432 45.9291 47.6987 45.9375 46.939ZM10.9375 68.814H2.1875V46.939H10.9375V68.814ZM38.2812 68.814H19.8406L13.125 66.8999V48.9952C16.4062 48.2405 18.3859 44.3358 18.4734 44.1499C18.5037 44.0862 18.5292 44.0204 18.55 43.953L22.6734 29.5374C23.9531 29.8218 26.2281 30.8827 26.25 34.8421L25.1562 43.5265C25.1376 43.6791 25.1513 43.834 25.1965 43.981C25.2417 44.128 25.3175 44.2638 25.4187 44.3796C25.5225 44.4977 25.6504 44.592 25.7938 44.6562C25.9373 44.7203 26.0929 44.7528 26.25 44.7515H41.5625C42.1427 44.7515 42.6991 44.9819 43.1093 45.3922C43.5195 45.8024 43.75 46.3588 43.75 46.939C43.75 47.5191 43.5195 48.0755 43.1093 48.4858C42.6991 48.896 42.1427 49.1265 41.5625 49.1265H36.0938C35.8037 49.1265 35.5255 49.2417 35.3204 49.4468C35.1152 49.6519 35 49.9301 35 50.2202C35 50.5103 35.1152 50.7885 35.3204 50.9936C35.5255 51.1987 35.8037 51.314 36.0938 51.314H40.4688C41.0489 51.314 41.6053 51.5444 42.0155 51.9547C42.4258 52.3649 42.6562 52.9213 42.6562 53.5015C42.6562 54.0816 42.4258 54.638 42.0155 55.0483C41.6053 55.4585 41.0489 55.689 40.4688 55.689H35C34.7099 55.689 34.4317 55.8042 34.2266 56.0093C34.0215 56.2144 33.9062 56.4926 33.9062 56.7827C33.9062 57.0728 34.0215 57.351 34.2266 57.5561C34.4317 57.7612 34.7099 57.8765 35 57.8765H39.375C39.9552 57.8765 40.5116 58.1069 40.9218 58.5172C41.332 58.9274 41.5625 59.4838 41.5625 60.064C41.5625 60.6441 41.332 61.2005 40.9218 61.6108C40.5116 62.021 39.9552 62.2515 39.375 62.2515H33.9062C33.6162 62.2515 33.338 62.3667 33.1329 62.5718C32.9277 62.7769 32.8125 63.0551 32.8125 63.3452C32.8125 63.6353 32.9277 63.9135 33.1329 64.1186C33.338 64.3237 33.6162 64.439 33.9062 64.439H38.2812C38.8614 64.439 39.4178 64.6694 39.828 65.0797C40.2383 65.4899 40.4688 66.0463 40.4688 66.6265C40.4688 67.2066 40.2383 67.763 39.828 68.1733C39.4178 68.5835 38.8614 68.814 38.2812 68.814ZM14.2188 17.4077H15.3125V18.5015C15.3125 18.7915 15.4277 19.0697 15.6329 19.2749C15.838 19.48 16.1162 19.5952 16.4062 19.5952C16.6963 19.5952 16.9745 19.48 17.1796 19.2749C17.3848 19.0697 17.5 18.7915 17.5 18.5015V17.4077H18.5938C18.8838 17.4077 19.162 17.2925 19.3671 17.0874C19.5723 16.8822 19.6875 16.604 19.6875 16.314C19.6875 16.0239 19.5723 15.7457 19.3671 15.5406C19.162 15.3354 18.8838 15.2202 18.5938 15.2202H17.5V14.1265C17.5 13.8364 17.3848 13.5582 17.1796 13.3531C16.9745 13.1479 16.6963 13.0327 16.4062 13.0327C16.1162 13.0327 15.838 13.1479 15.6329 13.3531C15.4277 13.5582 15.3125 13.8364 15.3125 14.1265V15.2202H14.2188C13.9287 15.2202 13.6505 15.3354 13.4454 15.5406C13.2402 15.7457 13.125 16.0239 13.125 16.314C13.125 16.604 13.2402 16.8822 13.4454 17.0874C13.6505 17.2925 13.9287 17.4077 14.2188 17.4077ZM59.0625 55.689H57.9688V54.5952C57.9688 54.3051 57.8535 54.0269 57.6484 53.8218C57.4433 53.6167 57.1651 53.5015 56.875 53.5015C56.5849 53.5015 56.3067 53.6167 56.1016 53.8218C55.8965 54.0269 55.7812 54.3051 55.7812 54.5952V55.689H54.6875C54.3974 55.689 54.1192 55.8042 53.9141 56.0093C53.709 56.2144 53.5938 56.4926 53.5938 56.7827C53.5938 57.0728 53.709 57.351 53.9141 57.5561C54.1192 57.7612 54.3974 57.8765 54.6875 57.8765H55.7812V58.9702C55.7812 59.2603 55.8965 59.5385 56.1016 59.7436C56.3067 59.9487 56.5849 60.064 56.875 60.064C57.1651 60.064 57.4433 59.9487 57.6484 59.7436C57.8535 59.5385 57.9688 59.2603 57.9688 58.9702V57.8765H59.0625C59.3526 57.8765 59.6308 57.7612 59.8359 57.5561C60.041 57.351 60.1562 57.0728 60.1562 56.7827C60.1562 56.4926 60.041 56.2144 59.8359 56.0093C59.6308 55.8042 59.3526 55.689 59.0625 55.689Z" fill="#3149BC"/>
<path d="M45.9375 1.00135C39.5557 1.00135 33.4353 3.5365 28.9227 8.0491C24.4101 12.5617 21.875 18.6821 21.875 25.0639C21.875 25.3539 21.9902 25.6321 22.1954 25.8372C22.4005 26.0424 22.6787 26.1576 22.9688 26.1576C23.2588 26.1576 23.537 26.0424 23.7421 25.8372C23.9473 25.6321 24.0625 25.3539 24.0625 25.0639C24.0638 20.9161 25.2443 16.8541 27.4664 13.3518C29.6884 9.84939 32.8605 7.05096 36.6125 5.28282C40.3645 3.51468 44.542 2.84971 48.6576 3.36547C52.7732 3.88123 56.6573 5.55645 59.857 8.19577C63.0567 10.8351 65.4401 14.3297 66.7292 18.2721C68.0183 22.2145 68.16 26.4421 67.1377 30.462C66.1155 34.4818 63.9714 38.1282 60.9556 40.9758C57.9398 43.8234 54.1765 45.7549 50.1047 46.5451C49.8146 46.5727 49.5474 46.7143 49.3617 46.9389C49.1761 47.1635 49.0873 47.4527 49.1148 47.7428C49.1424 48.0328 49.2841 48.3001 49.5087 48.4857C49.7333 48.6714 50.0224 48.7602 50.3125 48.7326H50.5203C56.4496 47.6485 61.7561 44.3785 65.3901 39.5695C69.0241 34.7605 70.7209 28.7628 70.1448 22.7628C69.5687 16.7627 66.7618 11.1974 62.2791 7.16774C57.7965 3.13805 51.9648 0.937483 45.9375 1.00135Z" fill="#3149BC"/>
<path d="M55.6875 29.0625C55.6875 26.7419 54.7656 24.5163 53.1247 22.8753C51.4837 21.2344 49.2581 20.3125 46.9375 20.3125H44.75C44.1698 20.3125 43.6134 20.082 43.2032 19.6718C42.793 19.2616 42.5625 18.7052 42.5625 18.125C42.5625 17.5448 42.793 16.9884 43.2032 16.5782C43.6134 16.168 44.1698 15.9375 44.75 15.9375H52.4062C53.2765 15.9375 54.1111 15.5918 54.7264 14.9764C55.3418 14.3611 55.6875 13.5265 55.6875 12.6562C55.6875 11.786 55.3418 10.9514 54.7264 10.3361C54.1111 9.7207 53.2765 9.375 52.4062 9.375H49.125V6.09375C49.125 5.80367 49.0098 5.52547 48.8046 5.32035C48.5995 5.11523 48.3213 5 48.0312 5H43.6562C43.3662 5 43.088 5.11523 42.8829 5.32035C42.6777 5.52547 42.5625 5.80367 42.5625 6.09375V9.65938C40.5062 10.1968 38.7159 11.4642 37.5257 13.225C36.3355 14.9858 35.8269 17.1196 36.0948 19.228C36.3627 21.3364 37.3888 23.2751 38.9815 24.6823C40.5742 26.0895 42.6247 26.8689 44.75 26.875H46.9375C47.5177 26.875 48.0741 27.1055 48.4843 27.5157C48.8945 27.9259 49.125 28.4823 49.125 29.0625C49.125 29.6427 48.8945 30.1991 48.4843 30.6093C48.0741 31.0195 47.5177 31.25 46.9375 31.25H39.2812C38.411 31.25 37.5764 31.5957 36.9611 32.2111C36.3457 32.8264 36 33.661 36 34.5312C36 35.4015 36.3457 36.2361 36.9611 36.8514C37.5764 37.4668 38.411 37.8125 39.2812 37.8125H42.5625V41.0938C42.5625 41.3838 42.6777 41.662 42.8829 41.8671C43.088 42.0723 43.3662 42.1875 43.6562 42.1875H48.0312C48.3213 42.1875 48.5995 42.0723 48.8046 41.8671C49.0098 41.662 49.125 41.3838 49.125 41.0938V37.5281C51.0022 37.0434 52.6652 35.9491 53.853 34.4168C55.0408 32.8846 55.6861 31.0012 55.6875 29.0625ZM47.8781 35.5484C47.6153 35.5856 47.375 35.717 47.2019 35.9183C47.0289 36.1195 46.9349 36.3768 46.9375 36.6422V40H44.75V36.7188C44.75 36.4287 44.6348 36.1505 44.4296 35.9454C44.2245 35.7402 43.9463 35.625 43.6562 35.625H39.2812C38.9912 35.625 38.713 35.5098 38.5079 35.3046C38.3027 35.0995 38.1875 34.8213 38.1875 34.5312C38.1875 34.2412 38.3027 33.963 38.5079 33.7579C38.713 33.5527 38.9912 33.4375 39.2812 33.4375H46.9375C48.0978 33.4375 49.2106 32.9766 50.0311 32.1561C50.8516 31.3356 51.3125 30.2228 51.3125 29.0625C51.3125 27.9022 50.8516 26.7894 50.0311 25.9689C49.2106 25.1484 48.0978 24.6875 46.9375 24.6875H44.75C43.1011 24.6731 41.5181 24.0385 40.3159 22.91C39.1137 21.7815 38.3803 20.2417 38.2617 18.5971C38.1432 16.9524 38.6481 15.3234 39.6761 14.0341C40.704 12.7449 42.1796 11.8898 43.8094 11.6391C44.0722 11.6019 44.3125 11.4705 44.4856 11.2692C44.6586 11.068 44.7526 10.8107 44.75 10.5453V7.1875H46.9375V10.4688C46.9375 10.7588 47.0527 11.037 47.2579 11.2421C47.463 11.4473 47.7412 11.5625 48.0312 11.5625H52.4062C52.6963 11.5625 52.9745 11.6777 53.1796 11.8829C53.3848 12.088 53.5 12.3662 53.5 12.6562C53.5 12.9463 53.3848 13.2245 53.1796 13.4296C52.9745 13.6348 52.6963 13.75 52.4062 13.75H44.75C43.5897 13.75 42.4769 14.2109 41.6564 15.0314C40.8359 15.8519 40.375 16.9647 40.375 18.125C40.375 19.2853 40.8359 20.3981 41.6564 21.2186C42.4769 22.0391 43.5897 22.5 44.75 22.5H46.9375C48.5864 22.5144 50.1694 23.149 51.3716 24.2775C52.5738 25.406 53.3072 26.9458 53.4258 28.5904C53.5443 30.2351 53.0394 31.8641 52.0114 33.1534C50.9835 34.4426 49.5079 35.2977 47.8781 35.5484Z" fill="#3149BC"/>
</svg>
