<svg width="68" height="68" viewBox="0 0 68 68" fill="none" xmlns="http://www.w3.org/2000/svg">
<g clip-path="url(#clip0_4357_458)">
<path d="M5.48389 5.48389H9.87098V9.87098H5.48389V5.48389ZM5.48389 58.1291H9.87098V62.5161H5.48389V58.1291ZM47.1613 18.6452V27.4194H45.1049L43.871 23.0323H36.1936V46.0645L40.5807 47.1613V49.3549H27.4194V47.1613L31.8065 46.0645V23.0323H24.129L22.8952 27.4194H20.8387V18.6452H47.1613ZM58.1291 5.48389H62.5161V9.87098H58.1291V5.48389ZM58.1291 58.1291H62.5161V62.5161H58.1291V58.1291Z" fill="#FC7F7F"/>
<path d="M1.09677 1.09668H9.87097V9.87087H1.09677V1.09668ZM1.09677 58.1289H9.87097V66.9031H1.09677V58.1289ZM58.129 1.09668H66.9032V9.87087H58.129V1.09668ZM58.129 58.1289H66.9032V66.9031H58.129V58.1289ZM47.1613 18.6451V27.4193H45.1048L43.871 23.0322H36.1935V46.0644L40.5806 47.1612V49.3547H27.4194V47.1612L31.8064 46.0644V23.0322H24.129L22.8952 27.4193H20.8387V18.6451H47.1613Z" fill="#FC7F7F"/>
<path d="M66.9032 10.9677C67.1941 10.9677 67.4731 10.8522 67.6788 10.6465C67.8845 10.4408 68 10.1619 68 9.87097V1.09677C68 0.805892 67.8845 0.526923 67.6788 0.321238C67.4731 0.115553 67.1941 0 66.9032 0H58.129C57.8382 0 57.5592 0.115553 57.3535 0.321238C57.1478 0.526923 57.0323 0.805892 57.0323 1.09677V4.3871H10.9677V1.09677C10.9677 0.805892 10.8522 0.526923 10.6465 0.321238C10.4408 0.115553 10.1619 0 9.87097 0H1.09677C0.805892 0 0.526923 0.115553 0.321238 0.321238C0.115553 0.526923 0 0.805892 0 1.09677V9.87097C0 10.1619 0.115553 10.4408 0.321238 10.6465C0.526923 10.8522 0.805892 10.9677 1.09677 10.9677H4.3871V57.0323H1.09677C0.805892 57.0323 0.526923 57.1478 0.321238 57.3535C0.115553 57.5592 0 57.8382 0 58.129V66.9032C0 67.1941 0.115553 67.4731 0.321238 67.6788C0.526923 67.8845 0.805892 68 1.09677 68H9.87097C10.1619 68 10.4408 67.8845 10.6465 67.6788C10.8522 67.4731 10.9677 67.1941 10.9677 66.9032V63.6129H57.0323V66.9032C57.0323 67.1941 57.1478 67.4731 57.3535 67.6788C57.5592 67.8845 57.8382 68 58.129 68H66.9032C67.1941 68 67.4731 67.8845 67.6788 67.6788C67.8845 67.4731 68 67.1941 68 66.9032V58.129C68 57.8382 67.8845 57.5592 67.6788 57.3535C67.4731 57.1478 67.1941 57.0323 66.9032 57.0323H63.6129V10.9677H66.9032ZM2.19355 8.77419V2.19355H8.77419V8.77419H2.19355ZM8.77419 65.8064H2.19355V59.2258H8.77419V65.8064ZM57.0323 58.129V61.4194H10.9677V58.129C10.9677 57.8382 10.8522 57.5592 10.6465 57.3535C10.4408 57.1478 10.1619 57.0323 9.87097 57.0323H6.58065V10.9677H9.87097C10.1619 10.9677 10.4408 10.8522 10.6465 10.6465C10.8522 10.4408 10.9677 10.1619 10.9677 9.87097V6.58065H57.0323V9.87097C57.0323 10.1619 57.1478 10.4408 57.3535 10.6465C57.5592 10.8522 57.8382 10.9677 58.129 10.9677H61.4194V57.0323H58.129C57.8382 57.0323 57.5592 57.1478 57.3535 57.3535C57.1478 57.5592 57.0323 57.8382 57.0323 58.129ZM65.8064 59.2258V65.8064H59.2258V59.2258H65.8064ZM59.2258 8.77419V2.19355H65.8064V8.77419H59.2258Z" fill="#3149BC"/>
<path d="M47.1613 17.5483H20.8387C20.5478 17.5483 20.2688 17.6639 20.0632 17.8696C19.8575 18.0753 19.7419 18.3542 19.7419 18.6451V27.4193C19.7419 27.7102 19.8575 27.9892 20.0632 28.1948C20.2688 28.4005 20.5478 28.5161 20.8387 28.5161H22.8951C23.1342 28.5161 23.3666 28.438 23.5572 28.2937C23.7477 28.1494 23.886 27.9469 23.9508 27.7168L24.9598 24.129H30.7097V45.2076L27.1534 46.0974C26.9161 46.1567 26.7054 46.2936 26.5549 46.4864C26.4044 46.6791 26.3226 46.9167 26.3226 47.1612V49.3548C26.3226 49.6457 26.4381 49.9246 26.6438 50.1303C26.8495 50.336 27.1285 50.4516 27.4193 50.4516H40.5806C40.8715 50.4516 41.1505 50.336 41.3562 50.1303C41.5618 49.9246 41.6774 49.6457 41.6774 49.3548V47.1612C41.6774 46.9167 41.5956 46.6791 41.445 46.4864C41.2945 46.2936 41.0839 46.1567 40.8466 46.0974L37.2903 45.2076V24.129H43.0401L44.0492 27.7168C44.114 27.9469 44.2522 28.1494 44.4428 28.2937C44.6333 28.438 44.8658 28.5161 45.1048 28.5161H47.1613C47.4522 28.5161 47.7311 28.4005 47.9368 28.1948C48.1425 27.9892 48.258 27.7102 48.258 27.4193V18.6451C48.258 18.3542 48.1425 18.0753 47.9368 17.8696C47.7311 17.6639 47.4522 17.5483 47.1613 17.5483ZM46.0645 26.3225H45.9356L44.9266 22.7347C44.8618 22.5047 44.7236 22.3021 44.533 22.1578C44.3424 22.0135 44.11 21.9354 43.8709 21.9354H36.1935C35.9026 21.9354 35.6237 22.051 35.418 22.2567C35.2123 22.4624 35.0968 22.7413 35.0968 23.0322V46.0645C35.0968 46.309 35.1786 46.5466 35.3291 46.7393C35.4796 46.9321 35.6903 47.069 35.9276 47.1283L39.4839 48.0181V48.258H28.5161V48.0181L32.0724 47.1283C32.3097 47.069 32.5203 46.9321 32.6709 46.7393C32.8214 46.5466 32.9032 46.309 32.9032 46.0645V23.0322C32.9032 22.7413 32.7877 22.4624 32.582 22.2567C32.3763 22.051 32.0973 21.9354 31.8064 21.9354H24.129C23.89 21.9354 23.6575 22.0135 23.467 22.1578C23.2764 22.3021 23.1382 22.5047 23.0734 22.7347L22.0643 26.3225H21.9355V19.7419H46.0645V26.3225ZM48.258 52.6451H19.7419C19.451 52.6451 19.1721 52.7607 18.9664 52.9663C18.7607 53.172 18.6451 53.451 18.6451 53.7419C18.6451 54.0328 18.7607 54.3117 18.9664 54.5174C19.1721 54.7231 19.451 54.8387 19.7419 54.8387H48.258C48.5489 54.8387 48.8279 54.7231 49.0336 54.5174C49.2393 54.3117 49.3548 54.0328 49.3548 53.7419C49.3548 53.451 49.2393 53.172 49.0336 52.9663C48.8279 52.7607 48.5489 52.6451 48.258 52.6451ZM38.3871 55.9354H29.6129C29.322 55.9354 29.043 56.051 28.8373 56.2567C28.6317 56.4624 28.5161 56.7413 28.5161 57.0322C28.5161 57.3231 28.6317 57.6021 28.8373 57.8077C29.043 58.0134 29.322 58.129 29.6129 58.129H38.3871C38.678 58.129 38.9569 58.0134 39.1626 57.8077C39.3683 57.6021 39.4839 57.3231 39.4839 57.0322C39.4839 56.7413 39.3683 56.4624 39.1626 56.2567C38.9569 56.051 38.678 55.9354 38.3871 55.9354Z" fill="#3149BC"/>
</g>
<defs>
<clipPath id="clip0_4357_458">
<rect width="68" height="68" fill="white"/>
</clipPath>
</defs>
</svg>
