<svg width="69" height="69" viewBox="0 0 69 69" fill="none" xmlns="http://www.w3.org/2000/svg">
<g clip-path="url(#clip0_4361_495)">
<path d="M67.6523 55.7815L13.2186 55.7814V1.34766H1.34766V67.6525H13.2186V67.6523L67.6523 67.6525V55.7815Z" fill="#FC7F7F"/>
<path d="M67.6523 55.7815L13.2186 55.7814V1.34766H1.34766V67.6525H13.2186V67.6523L67.6523 67.6525V55.7815Z" stroke="#3149BC" stroke-width="2.69531" stroke-miterlimit="10" stroke-linecap="round" stroke-linejoin="round"/>
<path d="M67.6524 27.753V1.34766H13.2186V55.7814L67.6524 55.7815V39.6091V27.753Z" fill="white"/>
<path d="M67.6523 27.753V1.34766H13.2186V55.7814L67.6523 55.7815V39.6091M9.1441 14.3794H13.2186M9.1441 28.559H13.2186M9.1441 42.7386H13.2186M54.1522 55.7815V59.8559M40.5116 55.7815V59.8559M26.332 55.7815V59.8559" stroke="#3149BC" stroke-width="2.69531" stroke-miterlimit="10" stroke-linecap="round" stroke-linejoin="round"/>
<path d="M9.1441 55.7814H13.2186V59.8559M20.8935 48.1446L59.6369 9.40125M20.8935 48.1446H28.4529M20.8935 48.1446V40.5304M59.6369 9.40125H52.0776M59.6369 9.40125V17.0154" stroke="#3149BC" stroke-width="2.69531" stroke-miterlimit="10" stroke-linecap="round" stroke-linejoin="round"/>
</g>
<defs>
<clipPath id="clip0_4361_495">
<rect width="69" height="69" fill="white"/>
</clipPath>
</defs>
</svg>
