<svg width="69" height="69" viewBox="0 0 69 69" fill="none" xmlns="http://www.w3.org/2000/svg">
<g clip-path="url(#clip0_4357_467)">
<path d="M21.7916 3.41997V17.0985H1.27374V3.41997C1.27748 2.16244 2.29604 1.14374 3.55358 1.14014H19.5118C20.7693 1.14388 21.788 2.16244 21.7916 3.41997Z" fill="#FC7F7F"/>
<path d="M21.7916 17.0985V18.7171L21.119 33.0568H1.27374V17.0985H21.7916Z" fill="white"/>
<path d="M21.119 33.0568L19.5118 67.2537H3.55358C2.29604 67.2499 1.27735 66.2314 1.27374 64.9738V33.0568H21.119Z" fill="#FC7F7F"/>
<path d="M33.2592 46.7358H8.79663L27.1379 36.1464L33.2592 46.7358Z" fill="#FC7F7F"/>
<path d="M51.2124 45.7597L49.8103 46.5689H33.2592L27.1379 35.9795L40.9532 28L51.2124 45.7597Z" fill="white"/>
<path d="M63.0559 39.0873L51.2125 45.9265L50.688 45.0143L40.9532 28.167L51.7823 21.9205L52.7966 21.3276C53.0561 21.1764 53.3429 21.0779 53.6406 21.0378C53.9383 20.9978 54.241 21.0169 54.5313 21.0942C54.8215 21.1715 55.0937 21.3054 55.332 21.4882C55.5704 21.671 55.7702 21.8991 55.9201 22.1594L63.8995 35.9751C64.0488 36.2348 64.1454 36.5213 64.1838 36.8184C64.2223 37.1154 64.2017 37.4171 64.1233 37.7062C64.0449 37.9953 63.9103 38.266 63.7271 38.503C63.5439 38.74 63.3158 38.9385 63.0558 39.0872L63.0559 39.0873Z" fill="#FC7F7F"/>
<path d="M59.853 39.7255L50.688 45.0144L40.9532 28.1671L51.7823 21.9205C52.1756 22.1117 52.5017 22.4177 52.7174 22.7982L60.6962 36.6134C60.8455 36.8731 60.9421 37.1596 60.9805 37.4566C61.0189 37.7536 60.9984 38.0553 60.92 38.3444C60.8417 38.6334 60.7071 38.9042 60.524 39.1412C60.3409 39.3782 60.113 39.5767 59.853 39.7255Z" fill="#FC7F7F"/>
<path d="M47.1998 15.406L40.3604 27.2494L22.6008 16.9903L29.4402 5.14685C29.5889 4.88683 29.7874 4.6587 30.0244 4.47552C30.2613 4.29234 30.5321 4.15771 30.8212 4.07934C31.1103 4.00097 31.412 3.98039 31.709 4.0188C32.0061 4.0572 32.2926 4.15383 32.5523 4.30314L46.3679 12.2825C46.6282 12.4324 46.8563 12.6323 47.0391 12.8706C47.222 13.109 47.3559 13.3811 47.4331 13.6714C47.5104 13.9616 47.5296 14.2643 47.4896 14.562C47.4495 14.8597 47.351 15.1465 47.1998 15.406Z" fill="white"/>
<path d="M40.3604 27.5743L39.5511 28.9763L25.2798 37.343L25.2229 37.2521L14.6215 31.1309L21.7916 18.7171L22.6008 17.3151L40.3604 27.5743Z" fill="#FC7F7F"/>
<path d="M25.2798 37.2119L9.25267 46.605H5.61658L14.6214 31L25.2229 37.1212L25.2798 37.2119Z" fill="white"/>
<path d="M19.238 47V67.5179H3.27984C2.0223 67.5141 1.00361 66.4956 1 65.238V49.2798C1.00374 48.0223 2.0223 47.0036 3.27984 47H19.238Z" fill="white"/>
<path d="M19.5117 46.7357H35.4707V67.2536H19.5117V46.7357Z" fill="#FC7F7F"/>
<path d="M35.4706 46.7357H51.429V67.2536H35.4706V46.7357Z" fill="#FC7F7F"/>
<path d="M67.3873 49.0156V64.9738C67.3837 66.2314 66.3651 67.25 65.1074 67.2536H51.429V46.7357H65.1074C66.3651 46.7395 67.3837 47.758 67.3873 49.0156Z" fill="#FC7F7F"/>
<path d="M67 49.3334V65.6666C66.9954 66.9538 65.6957 67.9963 64.091 68H51V47H64.0909C65.6957 47.0038 66.9954 48.0463 67 49.3334Z" fill="white"/>
<path d="M14.9524 56.995C14.9524 58.8835 13.4214 60.4145 11.5324 60.4145C9.64396 60.4145 8.11298 58.8835 8.11298 56.995C8.11298 55.1062 9.64396 53.5751 11.5324 53.5751C13.4212 53.5751 14.9524 55.1061 14.9524 56.995Z" fill="#FC7F7F"/>
<path d="M19.512 68.3938H3.55381C1.6659 68.3917 0.135987 66.8618 0.13385 64.9738V3.41996C0.135987 1.53205 1.6659 0.00213731 3.55381 0H19.512C21.3999 0.00213731 22.9298 1.53205 22.932 3.41996V18.7171C22.9343 18.8682 22.9065 19.0183 22.8503 19.1586C22.794 19.299 22.7104 19.4267 22.6043 19.5344C22.4983 19.6421 22.3718 19.7277 22.2324 19.786C22.0929 19.8444 21.9433 19.8745 21.7921 19.8745C21.6409 19.8745 21.4913 19.8444 21.3518 19.786C21.2124 19.7277 21.0859 19.6421 20.9799 19.5344C20.8738 19.4267 20.7902 19.299 20.734 19.1586C20.6777 19.0183 20.6499 18.8682 20.6523 18.7171V3.41996C20.6518 3.11768 20.5315 2.82792 20.3178 2.61418C20.104 2.40044 19.8143 2.28016 19.512 2.2797H3.55381C3.25153 2.28016 2.96177 2.40044 2.74803 2.61418C2.53429 2.82792 2.41401 3.11768 2.41355 3.41996V64.9738C2.41401 65.2761 2.53429 65.5659 2.74803 65.7796C2.96177 65.9934 3.25153 66.1136 3.55381 66.1141H19.512C19.8143 66.1141 20.1042 66.2342 20.318 66.448C20.5318 66.6617 20.6519 66.9516 20.6519 67.2539C20.6519 67.5563 20.5318 67.8462 20.318 68.0599C20.1042 68.2737 19.8143 68.3938 19.512 68.3938Z" fill="#3149BC"/>
<path d="M65.1075 68.3938H3.55356C1.66565 68.3917 0.135743 66.8618 0.133606 64.9739V49.0157C0.135743 47.1277 1.66565 45.5978 3.55356 45.5957H65.1075C66.9954 45.5978 68.5253 47.1277 68.5274 49.0157V64.9739C68.5253 66.8618 66.9954 68.3917 65.1075 68.3938ZM3.55356 47.8754C3.25129 47.8759 2.96153 47.9961 2.74779 48.2099C2.53405 48.4236 2.41377 48.7134 2.41331 49.0157V64.9739C2.41377 65.2761 2.53405 65.5659 2.74779 65.7796C2.96153 65.9934 3.25129 66.1136 3.55356 66.1141H65.1075C65.4097 66.1136 65.6995 65.9934 65.9132 65.7796C66.127 65.5659 66.2472 65.2761 66.2477 64.9739V49.0157C66.2472 48.7134 66.127 48.4236 65.9132 48.2099C65.6995 47.9961 65.4097 47.8759 65.1075 47.8754H3.55356Z" fill="#3149BC"/>
<path d="M49.8113 47.8754C49.5602 47.8759 49.316 47.7933 49.1167 47.6407C48.9174 47.488 48.7742 47.2737 48.7093 47.0312C48.6441 46.7887 48.6609 46.5316 48.7569 46.2996C48.853 46.0677 49.023 45.874 49.2405 45.7487L62.4859 38.0995C62.6166 38.0257 62.7314 37.9268 62.8236 37.8083C62.9158 37.6899 62.9836 37.5543 63.023 37.4095C63.0625 37.2647 63.0728 37.1135 63.0535 36.9647C63.0341 36.8159 62.9854 36.6724 62.9102 36.5425L54.9334 22.7297C54.7804 22.4661 54.5292 22.2738 54.2347 22.1949C54.0903 22.1559 53.9395 22.1462 53.7913 22.1664C53.6431 22.1866 53.5004 22.2362 53.3717 22.3124L9.36692 47.723C9.23728 47.7979 9.09415 47.8465 8.94573 47.866C8.7973 47.8855 8.64648 47.8757 8.50187 47.8369C8.35727 47.7982 8.2217 47.7314 8.10293 47.6402C7.98415 47.5491 7.88449 47.4355 7.80963 47.3058C7.73476 47.1762 7.68617 47.0331 7.66662 46.8846C7.64707 46.7362 7.65695 46.5854 7.69569 46.4408C7.73443 46.2962 7.80127 46.1606 7.8924 46.0418C7.98352 45.923 8.09716 45.8234 8.2268 45.7485L52.2269 20.3398C52.6149 20.1122 53.0445 19.9643 53.4904 19.9047C53.9363 19.8451 54.3896 19.875 54.8238 19.9928C55.2583 20.1083 55.6656 20.3083 56.0226 20.5815C56.3796 20.8547 56.6792 21.1956 56.9042 21.5848L64.8863 35.4052C65.1107 35.7946 65.2561 36.2245 65.314 36.6703C65.372 37.116 65.3414 37.5688 65.2241 38.0027C65.1067 38.4366 64.9049 38.8431 64.6301 39.1988C64.3554 39.5546 64.0131 39.8526 63.623 40.0758L50.3801 47.723C50.2074 47.8232 50.0111 47.8758 49.8114 47.8753L49.8113 47.8754Z" fill="#3149BC"/>
<path d="M5.61581 47.8754C5.4157 47.8754 5.21912 47.8227 5.04586 47.7226C4.87261 47.6224 4.7288 47.4784 4.6289 47.305C4.52894 47.1319 4.47632 46.9355 4.47632 46.7356C4.47632 46.5356 4.52894 46.3392 4.6289 46.1661L28.4529 4.9014C28.6764 4.51208 28.9744 4.17059 29.3299 3.89645C29.6854 3.62231 30.0914 3.42087 30.5247 3.30365C30.9581 3.18643 31.4102 3.15571 31.8555 3.21326C32.3007 3.27081 32.7302 3.41549 33.1195 3.63905L46.9378 11.6206C47.328 11.8455 47.6699 12.1454 47.9439 12.5028C48.2179 12.8603 48.4185 13.2684 48.5344 13.7036C48.6502 14.1389 48.6789 14.5927 48.6189 15.0391C48.5588 15.4855 48.4112 15.9156 48.1844 16.3047L40.539 29.5461C40.4389 29.7194 40.295 29.8634 40.1217 29.9635C39.9484 30.0636 39.7518 30.1164 39.5517 30.1165C39.3516 30.1166 39.1549 30.064 38.9816 29.964C38.8082 29.864 38.6642 29.7201 38.5641 29.5468C38.464 29.3735 38.4112 29.1769 38.4112 28.9768C38.4112 28.7767 38.4638 28.58 38.5639 28.4067L46.2125 15.1605C46.2894 15.0312 46.3397 14.8878 46.3605 14.7388C46.3812 14.5898 46.3719 14.4381 46.3331 14.2927C46.2532 13.9968 46.0591 13.7448 45.7934 13.592L31.9824 5.61512C31.8527 5.54077 31.7097 5.49271 31.5614 5.47372C31.4131 5.45472 31.2626 5.46514 31.1183 5.5044C30.9741 5.54366 30.839 5.61097 30.7208 5.7025C30.6026 5.79402 30.5036 5.90795 30.4295 6.03778L6.60391 47.3057C6.50378 47.4791 6.35971 47.6231 6.18622 47.7231C6.01272 47.8231 5.81607 47.8757 5.61581 47.8754Z" fill="#3149BC"/>
<path d="M65.1074 68.7981H3.5535C1.66559 68.796 0.135682 67.2661 0.133545 65.3782V49.42C0.135682 47.532 1.66559 46.0021 3.5535 46H65.1074C66.9953 46.0021 68.5252 47.532 68.5273 49.42V65.3782C68.5252 67.2661 66.9953 68.796 65.1074 68.7981ZM3.5535 48.2797C3.25123 48.2802 2.96147 48.4004 2.74773 48.6142C2.53399 48.8279 2.41371 49.1177 2.41325 49.42V65.3782C2.41371 65.6804 2.53399 65.9702 2.74773 66.1839C2.96147 66.3977 3.25123 66.5179 3.5535 66.5184H65.1074C65.4097 66.5179 65.6994 66.3977 65.9132 66.1839C66.1269 65.9702 66.2472 65.6804 66.2476 65.3782V49.42C66.2472 49.1177 66.1269 48.8279 65.9132 48.6142C65.6994 48.4004 65.4097 48.2802 65.1074 48.2797H3.5535Z" fill="#3149BC"/>
<path d="M11.5324 61.5545C9.0141 61.5545 6.97284 59.5134 6.97284 56.9951C6.97284 54.4769 9.0141 52.4356 11.5324 52.4356C14.0507 52.4356 16.0919 54.4769 16.0919 56.9951C16.0893 59.5118 14.0495 61.5516 11.5324 61.5547V61.5545ZM11.5324 54.7154C10.2732 54.7154 9.25268 55.736 9.25268 56.9951C9.25268 58.2543 10.2732 59.2748 11.5324 59.2748C12.7915 59.2748 13.8121 58.2543 13.8121 56.9951C13.8112 55.7365 12.791 54.7164 11.5324 54.7154ZM19.5117 68.3939C19.2095 68.3938 18.9196 68.2736 18.7059 68.0598C18.4922 67.846 18.3722 67.5561 18.3723 67.2538V46.7359C18.3723 46.4336 18.4924 46.1437 18.7062 45.9299C18.9199 45.7162 19.2098 45.5961 19.5121 45.5961C19.8145 45.5961 20.1044 45.7162 20.3181 45.9299C20.5319 46.1437 20.652 46.4336 20.652 46.7359V67.2538C20.652 67.4035 20.6225 67.5518 20.5652 67.6902C20.5079 67.8285 20.4239 67.9542 20.3181 68.0601C20.2122 68.1659 20.0865 68.2499 19.9481 68.3072C19.8098 68.3645 19.6615 68.394 19.5117 68.3939ZM35.4706 68.3939C35.3209 68.3939 35.1726 68.3645 35.0343 68.3072C34.896 68.2499 34.7703 68.1659 34.6644 68.06C34.5585 67.9542 34.4745 67.8285 34.4172 67.6901C34.36 67.5518 34.3305 67.4035 34.3305 67.2538V46.7359C34.3282 46.5848 34.356 46.4347 34.4122 46.2943C34.4684 46.154 34.552 46.0263 34.6581 45.9186C34.7642 45.8109 34.8906 45.7253 35.0301 45.6669C35.1695 45.6086 35.3192 45.5785 35.4703 45.5785C35.6215 45.5785 35.7712 45.6086 35.9106 45.6669C36.0501 45.7253 36.1765 45.8109 36.2826 45.9186C36.3887 46.0263 36.4722 46.154 36.5285 46.2943C36.5847 46.4347 36.6125 46.5848 36.6102 46.7359V67.2538C36.6103 67.5561 36.4903 67.846 36.2766 68.0598C36.0629 68.2736 35.773 68.3938 35.4707 68.3939H35.4706ZM51.4289 68.3939C51.1266 68.3939 50.8366 68.2738 50.6228 68.06C50.409 67.8461 50.2889 67.5562 50.2888 67.2538V46.7359C50.2934 46.4366 50.4155 46.151 50.6289 45.941C50.8422 45.7309 51.1296 45.6131 51.4289 45.6131C51.7283 45.6131 52.0157 45.7309 52.229 45.941C52.4423 46.151 52.5645 46.4366 52.5691 46.7359V67.2538C52.569 67.5562 52.4489 67.8461 52.2351 68.06C52.0213 68.2738 51.7313 68.3939 51.4289 68.3939Z" fill="#3149BC"/>
<path d="M33.2602 48.2473C33.0601 48.2475 32.8633 48.195 32.6898 48.0951C32.5164 47.9952 32.3722 47.8514 32.272 47.6781L26.1508 37.0885C26.0742 36.9588 26.0241 36.8153 26.0033 36.6661C25.9826 36.5169 25.9916 36.3651 26.0298 36.2195C26.068 36.0738 26.1347 35.9372 26.2261 35.8174C26.3174 35.6977 26.4316 35.5973 26.562 35.5219C26.6924 35.4466 26.8364 35.3978 26.9858 35.3784C27.1351 35.359 27.2868 35.3694 27.4321 35.409C27.5774 35.4486 27.7134 35.5166 27.8323 35.6091C27.9512 35.7015 28.0506 35.8166 28.1247 35.9477L34.2459 46.5379C34.3459 46.7111 34.3986 46.9075 34.3986 47.1075C34.3986 47.3074 34.3459 47.5038 34.2459 47.677C34.1462 47.8503 34.0026 47.9942 33.8295 48.0943C33.6565 48.1944 33.4602 48.2471 33.2602 48.2473ZM51.2146 47.4432C51.0143 47.4434 50.8175 47.3908 50.644 47.2908C50.4705 47.1907 50.3264 47.0468 50.2262 46.8734L39.9671 29.1034C39.816 28.8416 39.775 28.5305 39.8533 28.2385C39.9316 27.9465 40.1226 27.6975 40.3844 27.5464C40.6464 27.3953 40.9575 27.3544 41.2496 27.4327C41.5417 27.511 41.7907 27.702 41.942 27.9638L52.2007 45.7332C52.3006 45.9065 52.3533 46.1029 52.3533 46.3029C52.3533 46.5029 52.3008 46.6994 52.2008 46.8726C52.1009 47.0459 51.9572 47.1898 51.7841 47.2899C51.611 47.3901 51.4145 47.4429 51.2146 47.4431V47.4432Z" fill="#3149BC"/>
<path d="M25.2214 38.3917C25.0218 38.3917 24.8256 38.3392 24.6526 38.2394L14.0516 32.1181C13.5063 31.8034 13.319 31.1057 13.6342 30.5606C13.709 30.4309 13.8086 30.3172 13.9274 30.2261C14.0461 30.1349 14.1816 30.068 14.3262 30.0292C14.4708 29.9905 14.6217 29.9806 14.7701 30.0001C14.9185 30.0196 15.0617 30.0682 15.1913 30.143L25.7922 36.2644C26.0097 36.3899 26.1797 36.5837 26.2759 36.8157C26.372 37.0476 26.3889 37.3049 26.3239 37.5474C26.2586 37.7898 26.1152 38.0039 25.9159 38.1566C25.7166 38.3092 25.4725 38.3918 25.2214 38.3917ZM40.3647 28.7127C40.165 28.7128 39.9688 28.6602 39.7959 28.5605L22.0259 18.3013C21.8962 18.2264 21.7826 18.1268 21.6915 18.0081C21.6003 17.8893 21.5335 17.7538 21.4947 17.6092C21.4559 17.4646 21.446 17.3138 21.4655 17.1654C21.4851 17.017 21.5336 16.8739 21.6085 16.7442C21.9237 16.199 22.6207 16.0115 23.166 16.3268L40.9354 26.5855C41.153 26.7109 41.323 26.9047 41.419 27.1367C41.5151 27.3688 41.5318 27.626 41.4667 27.8685C41.4017 28.111 41.2584 28.3252 41.0591 28.4779C40.8598 28.6305 40.6157 28.7131 40.3647 28.7127Z" fill="#3149BC"/>
<path d="M12.8601 34.6324L1.27371 34.6324C1.12255 34.6347 0.972446 34.6069 0.832125 34.5507C0.691804 34.4944 0.564071 34.4108 0.45636 34.3048C0.348649 34.1987 0.263111 34.0722 0.204726 33.9328C0.14634 33.7934 0.116272 33.6437 0.116272 33.4925C0.116272 33.3413 0.14634 33.1917 0.204726 33.0522C0.263111 32.9128 0.348649 32.7864 0.45636 32.6803C0.564071 32.5742 0.691804 32.4906 0.832125 32.4344C0.972446 32.3781 1.12255 32.3504 1.27371 32.3527L12.8601 32.3527C13.1625 32.3527 13.4524 32.4728 13.6661 32.6865C13.8799 32.9003 14 33.1902 14 33.4925C14 33.7948 13.8799 34.0847 13.6661 34.2985C13.4524 34.5123 13.1625 34.6324 12.8601 34.6324ZM21.7916 18.674H1.27371C0.974353 18.6695 0.688809 18.5473 0.478734 18.334C0.268659 18.1207 0.150909 17.8333 0.150909 17.5339C0.150909 17.2345 0.268659 16.9471 0.478734 16.7338C0.688809 16.5205 0.974353 16.3984 1.27371 16.3938H21.7916C22.0909 16.3984 22.3765 16.5205 22.5866 16.7338C22.7966 16.9471 22.9144 17.2345 22.9144 17.5339C22.9144 17.8333 22.7966 18.1207 22.5866 18.334C22.3765 18.5473 22.0909 18.6695 21.7916 18.674Z" fill="#3149BC"/>
</g>
<defs>
<clipPath id="clip0_4357_467">
<rect width="68.5274" height="68.3938" fill="white"/>
</clipPath>
</defs>
</svg>
