<svg width="83" height="83" viewBox="0 0 83 83" fill="none" xmlns="http://www.w3.org/2000/svg">
<path d="M41.4964 74.6533C59.8039 74.6533 74.6451 68.347 74.6451 60.5679C74.6451 52.7887 59.8039 46.4824 41.4964 46.4824C23.1888 46.4824 8.34766 52.7887 8.34766 60.5679C8.34766 68.347 23.1888 74.6533 41.4964 74.6533Z" fill="#FC7F7F"/>
<path d="M41.4964 64.1344C52.0545 64.1344 60.6135 61.2838 60.6135 57.7674C60.6135 54.251 52.0545 51.4004 41.4964 51.4004C30.9384 51.4004 22.3794 54.251 22.3794 57.7674C22.3794 61.2838 30.9384 64.1344 41.4964 64.1344Z" fill="white"/>
<path d="M59.9565 26.825C59.9565 16.6202 51.6839 8.34766 41.4792 8.34766C31.2744 8.34766 23.0017 16.6202 23.0017 26.825C23.0017 31.2931 24.5878 35.3908 27.2276 38.5858H27.2168L41.4792 56.8579L55.8097 38.4896H55.8085C58.4011 35.3086 59.9565 31.2486 59.9565 26.825ZM41.4792 37.8997C35.5255 37.8997 30.6991 33.0734 30.6991 27.1197C30.6991 21.166 35.5255 16.3397 41.4792 16.3397C47.4328 16.3397 52.2592 21.166 52.2592 27.1197C52.2592 33.0734 47.4327 37.8997 41.4792 37.8997Z" fill="#FC7F7F"/>
<path d="M41.4791 58.2053C41.2743 58.2053 41.0722 58.1586 40.8881 58.0688C40.704 57.9789 40.5428 57.8483 40.4168 57.6868L26.1545 39.4148C26.1301 39.3837 26.1072 39.3515 26.0858 39.3183C23.2267 35.7989 21.6543 31.3689 21.6543 26.8247C21.6542 15.8935 30.5475 7 41.479 7C52.4105 7 61.3038 15.8935 61.3038 26.8248C61.3038 31.3562 59.7353 35.7843 56.8869 39.2993C56.882 39.3057 56.8771 39.3122 56.8722 39.3185L42.5414 57.6866C42.4154 57.8481 42.2542 57.9788 42.0702 58.0687C41.8861 58.1585 41.684 58.2053 41.4791 58.2053ZM28.376 37.881L41.4787 54.6674L54.715 37.7019C54.7306 37.6802 54.7468 37.659 54.7639 37.638C57.2433 34.596 58.6089 30.7557 58.6089 26.8247C58.6088 17.3794 50.9243 9.69504 41.479 9.69504C32.0337 9.69504 24.3492 17.3794 24.3492 26.8248C24.3492 30.7981 25.7403 34.6701 28.2663 37.7275C28.3067 37.7766 28.3434 37.8279 28.376 37.881Z" fill="#3149BC"/>
<path d="M41.4791 39.2478C38.2398 39.2478 35.1942 37.9862 32.9036 35.6956C30.613 33.405 29.3516 30.3596 29.3516 27.1202C29.3516 23.8808 30.6131 20.8353 32.9036 18.5447C36.0508 15.3975 40.6592 14.2277 44.9307 15.4921C45.6442 15.7033 46.0516 16.453 45.8403 17.1667C45.7901 17.3364 45.7069 17.4945 45.5956 17.6321C45.4843 17.7697 45.3469 17.8839 45.1914 17.9684C45.0359 18.0529 44.8653 18.1059 44.6893 18.1244C44.5133 18.1429 44.3354 18.1265 44.1657 18.0762C42.5368 17.5927 40.8077 17.558 39.1608 17.9759C37.5139 18.3938 36.0104 19.2487 34.8092 20.4504C33.0274 22.232 32.0463 24.6008 32.0463 27.1202C32.0463 29.6396 33.0274 32.0084 34.809 33.79C36.5908 35.5718 38.9594 36.5529 41.4789 36.5529C43.9984 36.5529 46.3671 35.5718 48.1487 33.7902C50.5943 31.3446 51.5049 27.7624 50.5253 24.4416C50.3146 23.7279 50.7226 22.9785 51.4364 22.7678C52.15 22.5573 52.8996 22.9651 53.1102 23.679C54.3695 27.9471 53.1986 32.5519 50.0545 35.6959C47.7639 37.9862 44.7185 39.2478 41.4791 39.2478Z" fill="#3149BC"/>
<path d="M49.1257 20.8685C48.9487 20.8688 48.7734 20.834 48.6099 20.7663C48.4464 20.6986 48.2979 20.5992 48.1729 20.4738L48.149 20.4498C47.6228 19.9236 47.6228 19.0704 48.149 18.5441C48.6753 18.0178 49.5285 18.0178 50.0548 18.5441L50.0786 18.5681C50.6049 19.0944 50.6049 19.9476 50.0786 20.4738C49.9536 20.5991 49.8051 20.6985 49.6415 20.7663C49.478 20.834 49.3027 20.8688 49.1257 20.8685ZM41.4963 76.0001C32.465 76.0001 23.9535 74.4968 17.5298 71.7672C10.7397 68.882 7.00024 64.9046 7.00024 60.5673C7.00024 56.8463 9.69906 53.4241 14.8049 50.6708C19.4577 48.1617 25.9739 46.3526 33.1533 45.5763C33.8929 45.4958 34.5578 46.0313 34.6378 46.7712C34.7179 47.511 34.1829 48.1757 33.443 48.2558C26.6023 48.9952 20.4375 50.6953 16.0843 53.0428C11.9642 55.2645 9.69529 57.9366 9.69529 60.5673C9.69529 63.7084 12.9349 66.8867 18.5838 69.2869C24.6819 71.878 32.819 73.305 41.4965 73.305C50.1739 73.305 58.311 71.878 64.4092 69.2869C70.0579 66.8867 73.2977 63.7085 73.2977 60.5673C73.2977 56.8525 68.8333 53.1654 61.3551 50.7046C60.6483 50.4718 60.2638 49.7103 60.4964 49.0033C60.729 48.2963 61.4907 47.9124 62.1977 48.1446C70.9647 51.0296 75.9928 55.5575 75.9928 60.5673C75.9928 64.9044 72.2534 68.882 65.4633 71.7672C59.0392 74.4968 50.5277 76.0001 41.4963 76.0001Z" fill="#3149BC"/>
<path d="M55.7668 49.1972C55.6784 49.1972 55.5889 49.1884 55.4989 49.1704L55.452 49.161C54.7225 49.0138 54.2504 48.3032 54.3974 47.5736C54.5446 46.8441 55.2552 46.372 55.9848 46.519L56.0317 46.5284C56.7612 46.6756 57.2333 47.3862 57.0863 48.1159C56.9572 48.7553 56.395 49.1972 55.7668 49.1972ZM29.9838 54.0308C29.3911 54.0308 28.848 53.6368 28.6845 53.0375C28.4887 52.3196 28.912 51.5788 29.6299 51.383C29.6598 51.3748 29.692 51.3672 29.7224 51.3611C30.4521 51.2155 31.1621 51.6886 31.308 52.4182C31.4505 53.1299 31.0037 53.8229 30.3046 53.992C30.1996 54.0178 30.0919 54.0308 29.9838 54.0308Z" fill="#3149BC"/>
<path d="M41.4962 65.4811C31.3264 65.4811 21.0312 62.8312 21.0312 57.7665C21.0312 56.4876 21.7353 54.6188 25.0894 52.9776C25.7579 52.6504 26.565 52.9272 26.8921 53.5957C27.2191 54.2641 26.9425 55.0712 26.274 55.3983C24.6788 56.1787 23.7264 57.0641 23.7264 57.7664C23.7264 58.5348 24.9514 59.8402 28.404 60.99C31.8811 62.148 36.5308 62.7859 41.4964 62.7859C46.4619 62.7859 51.1115 62.1482 54.5887 60.99C58.0413 59.8402 59.2663 58.5348 59.2663 57.7664C59.2663 56.1736 54.5803 53.6003 45.7822 52.9116C45.0403 52.8535 44.4859 52.205 44.5439 51.463C44.602 50.7211 45.2497 50.1675 45.9925 50.2248C53.3591 50.8014 61.9615 53.1225 61.9615 57.7664C61.9612 62.8312 51.666 65.4811 41.4962 65.4811Z" fill="#3149BC"/>
</svg>
