<svg width="30" height="30" viewBox="0 0 30 30" fill="none" xmlns="http://www.w3.org/2000/svg">
<g clip-path="url(#clip0_3851_563)">
<path fill-rule="evenodd" clip-rule="evenodd" d="M20.36 29.858C21.8297 29.775 23.2979 29.6553 24.7632 29.499C25.9758 29.3692 27.1074 28.8277 27.9692 27.9647C28.831 27.1017 29.3709 25.9694 29.499 24.7565C30.1653 18.5107 30.1653 12.2118 29.499 5.96608C29.3692 4.75339 28.8277 3.62183 27.9647 2.76004C27.1017 1.89825 25.9694 1.35831 24.7565 1.23023C18.5107 0.563883 12.2118 0.563883 5.96608 1.23023C4.75339 1.36001 3.62183 1.90154 2.76004 2.76454C1.89825 3.62754 1.35831 4.75986 1.23023 5.97273C0.563883 12.2185 0.563883 18.5174 1.23023 24.7632C1.36001 25.9758 1.90154 27.1074 2.76454 27.9692C3.62754 28.831 4.75986 29.3709 5.97273 29.499C7.89495 29.7041 9.82221 29.846 11.7514 29.9249V21.528H8.62382C7.72835 21.528 7 20.9185 7 20.1698V15.836C7 15.087 7.72835 14.4778 8.62382 14.4778H11.7514V12.3076C11.7514 10.1557 12.5592 8.325 14.0872 7.01354C15.6222 5.69617 17.7673 5 20.2906 5L24.3789 5.00558C25.2728 5.00684 26 5.61611 26 6.36374V10.3876C26 11.1365 25.2718 11.7458 24.3766 11.7458L21.624 11.7466C20.7845 11.7466 20.5707 11.8874 20.525 11.9305C20.4497 12.0022 20.3601 12.2044 20.3601 12.7631V14.4776H24.1698C24.4566 14.4776 24.7345 14.5368 24.9732 14.6482C25.4885 14.889 25.8087 15.3442 25.8087 15.8362L25.8067 20.17C25.8067 20.9185 25.0783 21.5278 24.1829 21.5278H20.36V29.858ZM18.3973 29.9469V20.7932C18.3973 20.2931 18.8839 19.8864 19.4815 19.8864H23.8442L23.8459 16.1193H19.4812C18.8836 16.1193 18.3973 15.7126 18.3973 15.2125V12.7631C18.3973 12.1218 18.4752 11.3925 19.0539 10.8443C19.7533 10.1817 20.8553 10.1052 21.6235 10.1052L24.0375 10.1044V6.64659L20.2891 6.6415C16.2338 6.6415 13.7139 8.81276 13.7139 12.3076V15.2125C13.7139 15.7123 13.2276 16.1193 12.6299 16.1193H8.96249V19.8863H12.6299C13.2276 19.8863 13.7139 20.2931 13.7139 20.7931L13.7138 29.9833C15.275 30.0125 16.8367 30.0004 18.3973 29.9469Z" fill="white"/>
</g>
<defs>
<clipPath id="clip0_3851_563">
<rect width="30" height="30" fill="white"/>
</clipPath>
</defs>
</svg>
