<svg width="78" height="47" viewBox="0 0 78 47" fill="none" xmlns="http://www.w3.org/2000/svg">
<g clip-path="url(#clip0_162_151)">
<path d="M67.7985 15.2886C67.1515 12.2614 65.8657 9.53851 63.9813 7.20165L63.9668 7.18389C63.5749 6.69572 62.8618 6.61538 62.3712 7.00558C61.8793 7.3968 61.7976 8.11268 62.1887 8.60449L62.2049 8.62418C63.8679 10.6868 65.0011 13.0891 65.5729 15.7643C66.15 18.4645 66.1222 21.3108 65.4901 24.2239C64.2972 29.7218 61.0572 34.8719 56.3675 38.7255C51.6598 42.5938 46.0172 44.7241 40.4791 44.7241C37.6209 44.7241 34.9443 44.1618 32.5233 43.0527C30.1344 41.9582 28.102 40.3847 26.4822 38.3759C24.8574 36.3607 23.7398 34.0206 23.1561 31.4196H25.4868C26.0128 33.4485 26.9399 35.3177 28.2539 36.9475C31.114 40.4947 35.4557 42.4483 40.4791 42.4483C40.7061 42.4483 40.9333 42.4429 41.1608 42.4349C41.2161 42.443 41.2712 42.4485 41.3257 42.4485C41.4182 42.4485 41.5089 42.4365 41.5965 42.4149C46.2483 42.1493 50.9403 40.2394 54.9225 36.9671C59.2181 33.4373 62.1812 28.7404 63.2657 23.7413L63.2669 23.7355L63.2694 23.7231C64.3849 18.5596 63.3779 13.7052 60.433 10.0525C57.5766 6.51001 53.2426 4.5572 48.2274 4.55208L48.2124 4.55185H48.2078C43.1953 4.55185 38.0658 6.4984 33.7643 10.0329C29.4688 13.5627 26.5057 18.2596 25.421 23.2587L25.4196 23.2656L25.4176 23.2759C24.9807 25.2973 24.8706 27.2708 25.0732 29.1439H22.7912C22.591 27.0802 22.726 24.9468 23.197 22.7762C24.3899 17.2784 27.6296 12.1283 32.3195 8.2746C37.0271 4.40631 42.6697 2.27598 48.2078 2.27598C50.4542 2.27598 52.604 2.62726 54.5972 3.32015C55.1909 3.52669 55.8392 3.2125 56.0457 2.61884C56.252 2.02518 55.9381 1.37667 55.3445 1.17037C53.1103 0.393839 50.7092 0 48.2078 0C42.4964 0 36.7037 2.05363 31.7768 5.80347H17.6238C16.9953 5.80347 16.4858 6.31292 16.4858 6.9414C16.4858 7.56988 16.9953 8.07934 17.6238 8.07934H29.115C24.9796 12.0438 22.1179 17.0161 20.9729 22.2935C20.468 24.6202 20.314 26.9144 20.5072 29.1438H16.2524C15.624 29.1438 15.1145 29.6532 15.1145 30.2817C15.1145 30.9102 15.624 31.4196 16.2524 31.4196H20.8305C20.8498 31.5169 20.8679 31.6144 20.8886 31.7114C21.5355 34.7385 22.8215 37.4614 24.7107 39.8045C26.5536 42.09 28.8633 43.8791 31.5755 45.1218C34.296 46.3681 37.2916 47 40.4792 47C46.5429 47 52.6987 44.6859 57.8124 40.4838C62.8966 36.3063 66.413 30.7031 67.7143 24.7064C68.4151 21.4756 68.4436 18.3069 67.7985 15.2886ZM27.4747 24.638H28.7546C29.3831 24.638 29.8925 24.1285 29.8925 23.5001C29.8925 22.8716 29.3831 22.3621 28.7546 22.3621H28.0012C29.188 18.3794 31.7092 14.6674 35.2093 11.7914C38.6934 8.92835 42.7545 7.21712 46.7837 6.88746L46.6139 7.66991C46.4806 8.28405 46.8705 8.89 47.4846 9.02325C47.566 9.04089 47.6471 9.04931 47.727 9.04931C48.2509 9.04931 48.7224 8.68529 48.838 8.15239L49.1197 6.85355C53.0504 7.07044 56.4139 8.69359 58.6613 11.4811C61.0014 14.3834 61.8934 18.219 61.2122 22.3621H59.9324C59.304 22.3621 58.7945 22.8716 58.7945 23.5001C58.7945 24.1285 59.304 24.638 59.9324 24.638H60.6858C59.499 28.6208 56.9779 32.3327 53.4777 35.2087C50.2429 37.8668 46.5109 39.532 42.7688 40.0207L42.9187 39.3302C43.0519 38.7161 42.6621 38.1101 42.048 37.9769C41.4338 37.8432 40.8277 38.2334 40.6946 38.8476L40.4073 40.1716C36.1166 40.1533 32.4317 38.5032 30.0255 35.519C29.044 34.3017 28.3183 32.9194 27.8554 31.4197H32.7094C33.3378 31.4197 33.8473 30.9103 33.8473 30.2818C33.8473 29.6533 33.3378 29.1439 32.7094 29.1439H27.3671C27.1856 27.7073 27.2188 26.1946 27.4747 24.638Z" fill="white"/>
<path d="M39.8101 28.3641C40.0735 28.3643 40.3287 28.2728 40.5319 28.1053L45.0665 24.3792C45.2645 24.2165 45.4017 23.9918 45.4561 23.7413L47.7391 13.2187C47.8724 12.6046 47.4825 11.9986 46.8684 11.8654C46.2545 11.732 45.6483 12.122 45.5151 12.7361L43.3159 22.8721L39.0871 26.3469C38.6015 26.7458 38.5313 27.4629 38.9304 27.9485C39.0371 28.0786 39.1713 28.1834 39.3235 28.2553C39.4756 28.3272 39.6419 28.3643 39.8101 28.3641ZM11.1379 17.8782H18.9066C19.5351 17.8782 20.0445 17.3688 20.0445 16.7403C20.0445 16.1118 19.5351 15.6024 18.9066 15.6024H11.1379C10.5095 15.6024 10 16.1118 10 16.7403C10 17.3688 10.5095 17.8782 11.1379 17.8782ZM20.0559 39.499H14.1326C13.5042 39.499 12.9947 40.0084 12.9947 40.6369C12.9947 41.2654 13.5042 41.7749 14.1326 41.7749H20.0559C20.6844 41.7749 21.1939 41.2654 21.1939 40.6369C21.1939 40.0084 20.6844 39.499 20.0559 39.499ZM12.1882 29.8463C11.7967 28.9063 10.4145 28.9393 10.0674 29.8981C9.90293 30.3524 10.0559 30.8827 10.4381 31.1786C10.8087 31.4656 11.3263 31.4967 11.7275 31.2544C12.2014 30.9681 12.4014 30.3576 12.1882 29.8463ZM58.4954 5.04506C58.7335 5.61687 59.4082 5.89862 59.9815 5.66068C60.5547 5.42285 60.8338 4.74772 60.5971 4.17454C60.3606 3.60182 59.6835 3.32132 59.111 3.55892C58.5369 3.7972 58.26 4.47097 58.4954 5.04506Z" fill="white"/>
</g>
<defs>
<clipPath id="clip0_162_151">
<rect width="59" height="47" fill="white" transform="translate(10)"/>
</clipPath>
</defs>
</svg>
