<svg width="70" height="70" viewBox="0 0 70 70" fill="none" xmlns="http://www.w3.org/2000/svg">
<g clip-path="url(#clip0_4721_735)">
<path d="M67.5024 31.4696H65.9353C65.6999 26.439 64.085 21.5702 61.2674 17.3962C58.4498 13.2222 54.5381 9.90381 49.9605 7.80445H60.2074C60.5068 8.80858 61.1577 9.67139 62.0409 10.2351C62.9242 10.7988 63.9809 11.0258 65.0177 10.8745C66.0545 10.7232 67.0023 10.2037 67.6876 9.41112C68.373 8.61851 68.7501 7.6057 68.7501 6.55787C68.7501 5.51005 68.373 4.49723 67.6876 3.70462C67.0023 2.91201 66.0545 2.39256 65.0177 2.24126C63.9809 2.08996 62.9242 2.31692 62.0409 2.88064C61.1577 3.44435 60.5068 4.30716 60.2074 5.31129H39.8069V3.44498C39.8067 3.11442 39.6753 2.79746 39.4416 2.56372C39.2078 2.32998 38.8909 2.19859 38.5603 2.1984H32.3345C32.0039 2.1984 31.6868 2.32973 31.4531 2.56351C31.2193 2.79729 31.0879 3.11436 31.0879 3.44498V5.31129H10.6853C10.3859 4.30696 9.73495 3.44397 8.85154 2.88012C7.96814 2.31627 6.91129 2.08924 5.87426 2.24054C4.83723 2.39184 3.8893 2.91137 3.20382 3.70411C2.51834 4.49686 2.14111 5.50986 2.14111 6.55787C2.14111 7.60589 2.51834 8.61888 3.20382 9.41163C3.8893 10.2044 4.83723 10.7239 5.87426 10.8752C6.91129 11.0265 7.96814 10.7995 8.85154 10.2356C9.73495 9.67177 10.3859 8.80878 10.6853 7.80445H20.9344C16.3569 9.90385 12.4452 13.2222 9.62772 17.3963C6.81023 21.5703 5.19549 26.4391 4.9603 31.4696H3.39317C3.06255 31.4696 2.74548 31.6009 2.5117 31.8347C2.27792 32.0685 2.14658 32.3855 2.14658 32.7162V38.2816C2.14649 38.4453 2.17867 38.6075 2.24128 38.7588C2.3039 38.91 2.39572 39.0475 2.51149 39.1633C2.62726 39.2791 2.76472 39.3709 2.91601 39.4335C3.06729 39.4961 3.22944 39.5283 3.39317 39.5282H8.95862C9.12235 39.5283 9.28449 39.4961 9.43578 39.4335C9.58706 39.3709 9.72452 39.2791 9.84029 39.1633C9.95607 39.0475 10.0479 38.91 10.1105 38.7588C10.1731 38.6075 10.2053 38.4453 10.2052 38.2816V32.7162C10.2052 32.3855 10.0739 32.0685 9.84009 31.8347C9.60631 31.6009 9.28923 31.4696 8.95862 31.4696H7.45346C7.77039 25.304 10.3622 19.475 14.7277 15.1096C19.0933 10.7442 24.9224 8.15254 31.0879 7.8358V9.67789C31.0879 9.84159 31.1202 10.0037 31.1828 10.1549C31.2455 10.3062 31.3373 10.4436 31.4531 10.5594C31.5688 10.6751 31.7062 10.7669 31.8575 10.8296C32.0087 10.8922 32.1708 10.9245 32.3345 10.9245H38.5632C38.8937 10.9243 39.2107 10.7929 39.4444 10.5591C39.6782 10.3254 39.8096 10.0084 39.8097 9.67789V7.8358C45.9753 8.15254 51.8044 10.7442 56.17 15.1096C60.5355 19.475 63.1273 25.304 63.4442 31.4696H61.9391C61.6085 31.4698 61.2915 31.6012 61.0578 31.8349C60.8241 32.0686 60.6927 32.3856 60.6925 32.7162V38.2816C60.6925 38.6122 60.8238 38.9293 61.0576 39.1631C61.2914 39.3968 61.6085 39.5282 61.9391 39.5282H67.5052C67.8358 39.5282 68.1529 39.3968 68.3867 39.1631C68.6205 38.9293 68.7518 38.6122 68.7518 38.2816V32.7162C68.7517 32.5522 68.7193 32.3899 68.6565 32.2386C68.5936 32.0872 68.5015 31.9497 68.3855 31.8339C68.2694 31.7181 68.1317 31.6263 67.9802 31.5638C67.8287 31.5013 67.6663 31.4693 67.5024 31.4696ZM7.71133 37.035H4.63904V33.9627H7.71133V37.035ZM64.3866 4.69085C64.7563 4.69085 65.1177 4.80047 65.4251 5.00586C65.7325 5.21124 65.972 5.50317 66.1135 5.84471C66.255 6.18626 66.292 6.56208 66.2199 6.92466C66.1478 7.28725 65.9697 7.6203 65.7083 7.88171C65.4469 8.14311 65.1139 8.32113 64.7513 8.39325C64.3887 8.46538 64.0129 8.42836 63.6713 8.28689C63.3298 8.14542 63.0379 7.90584 62.8325 7.59846C62.6271 7.29108 62.5175 6.92969 62.5175 6.56001C62.518 6.06445 62.7152 5.58935 63.0656 5.23894C63.416 4.88852 63.8911 4.69141 64.3866 4.69085ZM6.50819 8.43131C6.13848 8.43145 5.77703 8.32194 5.46955 8.11664C5.16208 7.91134 4.92239 7.61947 4.78081 7.27794C4.63923 6.9364 4.60211 6.56056 4.67415 6.19793C4.74619 5.8353 4.92416 5.50218 5.18554 5.2407C5.44691 4.97922 5.77996 4.80113 6.14257 4.72895C6.50517 4.65677 6.88103 4.69375 7.22262 4.8352C7.5642 4.97665 7.85617 5.21622 8.06158 5.52362C8.267 5.83102 8.37664 6.19243 8.37664 6.56215C8.37608 7.05758 8.17907 7.53257 7.82881 7.88297C7.47855 8.23336 7.00363 8.43055 6.50819 8.43131ZM37.3137 8.43131H33.5811V4.69156H37.3137V8.43131ZM66.2558 37.035H63.1828V33.9627H66.2558V37.035Z" fill="#3149BC"/>
<path d="M46.5668 54.2061H24.3278C22.4788 54.2061 20.9799 55.705 20.9799 57.554V58.9929C20.9799 60.842 22.4788 62.3409 24.3278 62.3409H46.5668C48.4159 62.3409 49.9148 60.842 49.9148 58.9929V57.554C49.9148 55.705 48.4159 54.2061 46.5668 54.2061Z" fill="white"/>
<path d="M24.9689 62.3408H45.9257V67.5551H24.9689V62.3408Z" fill="#FC7F7F"/>
<path d="M37.6057 17.1221V37.2483C38.3575 37.7172 38.9362 38.4181 39.2542 39.245C39.5723 40.072 39.6124 40.98 39.3686 41.8318C39.1248 42.6836 38.6102 43.4328 37.9027 43.9662C37.1952 44.4996 36.3333 44.7881 35.4473 44.7881C34.5613 44.7881 33.6994 44.4996 32.9919 43.9662C32.2844 43.4328 31.7698 42.6836 31.526 41.8318C31.2822 40.98 31.3223 40.072 31.6404 39.245C31.9584 38.4181 32.5371 37.7172 33.2889 37.2483V17.1221L20.2817 39.7885L27.284 54.2061H43.6106L50.6129 39.7885L37.6057 17.1221Z" fill="#FC7F7F"/>
<path d="M67.4994 31.4684H65.9322C65.6972 26.4381 64.0828 21.5695 61.2657 17.3955C58.4486 13.2215 54.5374 9.90295 49.9603 7.80325H60.2051C60.5045 8.80738 61.1553 9.67019 62.0386 10.2339C62.9219 10.7976 63.9785 11.0246 65.0154 10.8733C66.0522 10.722 67 10.2025 67.6853 9.40992C68.3707 8.61731 68.7478 7.60449 68.7478 6.55667C68.7478 5.50885 68.3707 4.49603 67.6853 3.70342C67 2.91081 66.0522 2.39136 65.0154 2.24006C63.9785 2.08876 62.9219 2.31572 62.0386 2.87944C61.1553 3.44315 60.5045 4.30596 60.2051 5.31009H39.8039V3.4452C39.8039 3.11459 39.6725 2.79752 39.4387 2.56374C39.205 2.32996 38.8879 2.19862 38.5573 2.19862H32.3315C32.1677 2.19853 32.0055 2.2307 31.8541 2.29329C31.7028 2.35589 31.5652 2.44768 31.4493 2.56344C31.3334 2.6792 31.2415 2.81664 31.1787 2.96794C31.1159 3.11923 31.0836 3.2814 31.0835 3.4452V5.31151H10.683C10.3836 4.30719 9.73263 3.4442 8.84923 2.88035C7.96582 2.3165 6.90898 2.08946 5.87194 2.24077C4.83491 2.39207 3.88698 2.91159 3.2015 3.70434C2.51602 4.49708 2.13879 5.51008 2.13879 6.5581C2.13879 7.60611 2.51602 8.61911 3.2015 9.41185C3.88698 10.2046 4.83491 10.7241 5.87194 10.8754C6.90898 11.0267 7.96582 10.7997 8.84923 10.2358C9.73263 9.67199 10.3836 8.809 10.683 7.80468H20.932C16.3547 9.90392 12.4431 13.2221 9.62546 17.3958C6.80785 21.5696 5.19285 26.4381 4.95726 31.4684H3.39013C3.05952 31.4684 2.74245 31.5997 2.50867 31.8335C2.27489 32.0673 2.14355 32.3843 2.14355 32.7149V38.2783C2.14355 38.6089 2.27489 38.926 2.50867 39.1597C2.74245 39.3935 3.05952 39.5248 3.39013 39.5248H8.9563C9.28691 39.5248 9.60399 39.3935 9.83777 39.1597C10.0715 38.926 10.2029 38.6089 10.2029 38.2783V32.7149C10.2029 32.3843 10.0715 32.0673 9.83777 31.8335C9.60399 31.5997 9.28691 31.4684 8.9563 31.4684H7.45043C7.76734 25.3031 10.359 19.4743 14.7242 15.1091C19.0895 10.7439 24.9182 8.15222 31.0835 7.83531V9.67669C31.0837 10.0072 31.2151 10.3242 31.4488 10.5579C31.6826 10.7917 31.9995 10.9231 32.3301 10.9233H38.5559C38.8865 10.9233 39.2035 10.7919 39.4373 10.5582C39.6711 10.3244 39.8024 10.0073 39.8024 9.67669V7.83531C45.9682 8.15154 51.7977 10.7429 56.1635 15.1082C60.5293 19.4735 63.1214 25.3027 63.4383 31.4684H61.9339C61.6033 31.4684 61.2862 31.5997 61.0524 31.8335C60.8187 32.0673 60.6873 32.3843 60.6873 32.7149V38.2783C60.6873 38.6089 60.8187 38.926 61.0524 39.1597C61.2862 39.3935 61.6033 39.5248 61.9339 39.5248H67.4994C67.6631 39.5249 67.8252 39.4928 67.9765 39.4301C68.1278 39.3675 68.2653 39.2757 68.381 39.1599C68.4968 39.0442 68.5886 38.9067 68.6512 38.7554C68.7139 38.6041 68.746 38.442 68.7459 38.2783V32.7149C68.746 32.5512 68.7139 32.3891 68.6512 32.2378C68.5886 32.0865 68.4968 31.949 68.381 31.8333C68.2653 31.7175 68.1278 31.6257 67.9765 31.5631C67.8252 31.5005 67.6631 31.4683 67.4994 31.4684ZM7.70901 37.0338H4.636V33.9615H7.70901V37.0338ZM64.3843 4.68965C64.754 4.68965 65.1154 4.79927 65.4228 5.00466C65.7302 5.21004 65.9697 5.50197 66.1112 5.84351C66.2527 6.18506 66.2897 6.56088 66.2176 6.92346C66.1454 7.28604 65.9674 7.6191 65.706 7.8805C65.4446 8.14191 65.1116 8.31993 64.749 8.39205C64.3864 8.46417 64.0106 8.42716 63.669 8.28569C63.3275 8.14421 63.0356 7.90464 62.8302 7.59726C62.6248 7.28988 62.5152 6.92849 62.5152 6.55881C62.5155 6.06319 62.7126 5.58798 63.063 5.23753C63.4135 4.88707 63.8887 4.69002 64.3843 4.68965ZM6.50801 8.43153C6.13833 8.43153 5.77695 8.3219 5.46956 8.11652C5.16218 7.91113 4.92261 7.61921 4.78113 7.27767C4.63966 6.93612 4.60265 6.5603 4.67477 6.19771C4.74689 5.83513 4.92491 5.50208 5.18632 5.24067C5.44772 4.97927 5.78078 4.80125 6.14336 4.72912C6.50594 4.657 6.88177 4.69402 7.22331 4.83549C7.56485 4.97696 7.85678 5.21654 8.06216 5.52392C8.26755 5.8313 8.37717 6.19268 8.37717 6.56237C8.37661 7.05793 8.1795 7.53303 7.82909 7.88344C7.47867 8.23385 7.00357 8.43096 6.50801 8.43153ZM37.3135 8.43153H33.5767V4.69178H37.3093L37.3135 8.43153ZM66.2556 37.0352H63.1833V33.9615H66.2556V37.0352Z" fill="#3149BC"/>
<path d="M38.6849 16.4978C38.5485 16.2581 38.3365 16.0704 38.0821 15.9641C37.8277 15.8578 37.5453 15.8388 37.2789 15.9101C37.0126 15.9814 36.7774 16.1391 36.6102 16.3583C36.443 16.5776 36.3532 16.8461 36.3548 17.1218V37.2473C36.3548 37.4585 36.4084 37.6663 36.5107 37.8511C36.613 38.0359 36.7606 38.1916 36.9396 38.3037C37.4623 38.6288 37.8648 39.1153 38.0863 39.6896C38.3078 40.2639 38.3361 40.8947 38.1671 41.4865C37.998 42.0784 37.6408 42.599 37.1494 42.9697C36.658 43.3404 36.0593 43.5409 35.4437 43.5409C34.8282 43.5409 34.2295 43.3404 33.7381 42.9697C33.2467 42.599 32.8895 42.0784 32.7204 41.4865C32.5514 40.8947 32.5797 40.2639 32.8012 39.6896C33.0227 39.1153 33.4252 38.6288 33.9478 38.3037C34.127 38.1917 34.2747 38.036 34.3771 37.8512C34.4795 37.6664 34.5333 37.4586 34.5334 37.2473V17.1218C34.5331 16.8471 34.4422 16.5802 34.2747 16.3625C34.1073 16.1448 33.8726 15.9885 33.6072 15.9178C33.3418 15.8471 33.0605 15.8659 32.8069 15.9715C32.5533 16.077 32.3417 16.2632 32.2048 16.5013L28.5448 22.8796C28.3889 23.1659 28.3514 23.5019 28.4401 23.8155C28.5289 24.1292 28.7369 24.3957 29.0197 24.5579C29.3025 24.7201 29.6375 24.7651 29.9531 24.6834C30.2687 24.6016 30.5397 24.3996 30.7082 24.1205L32.0402 21.799V36.6155C31.1986 37.3155 30.5932 38.2579 30.3064 39.3144C30.0197 40.3709 30.0655 41.49 30.4377 42.5195C30.8099 43.549 31.4903 44.4388 32.3863 45.0676C33.2824 45.6965 34.3505 46.0339 35.4452 46.0339C36.5399 46.0339 37.608 45.6965 38.504 45.0676C39.4001 44.4388 40.0805 43.549 40.4527 42.5195C40.8249 41.49 40.8707 40.3709 40.5839 39.3144C40.2972 38.2579 39.6918 37.3155 38.8501 36.6155V21.799L49.201 39.8352L42.8278 52.9578H28.0618L21.6886 39.8352L23.5713 36.5542C23.6528 36.4122 23.7055 36.2556 23.7264 36.0932C23.7474 35.9308 23.7361 35.7659 23.6933 35.6079C23.6505 35.4499 23.577 35.3018 23.477 35.1722C23.377 35.0426 23.2524 34.9339 23.1104 34.8525C22.9684 34.771 22.8118 34.7183 22.6494 34.6973C22.487 34.6764 22.3221 34.6877 22.1641 34.7305C22.0061 34.7733 21.858 34.8468 21.7284 34.9468C21.5988 35.0468 21.4901 35.1713 21.4087 35.3133L19.2004 39.1663C19.0994 39.3427 19.043 39.541 19.036 39.7441C19.0291 39.9472 19.0718 40.1489 19.1605 40.3317L25.293 52.9578H24.3257C23.1075 52.9591 21.9395 53.4436 21.078 54.3049C20.2166 55.1663 19.7319 56.3342 19.7304 57.5524V58.9913C19.7323 60.1039 20.1376 61.1781 20.8711 62.0147C21.6046 62.8513 22.6166 63.3936 23.7195 63.5409V67.5549C23.7197 67.8855 23.8511 68.2025 24.0848 68.4362C24.3185 68.6699 24.6355 68.8013 24.966 68.8015H34.7165C35.0471 68.8015 35.3641 68.6702 35.5979 68.4364C35.8317 68.2026 35.963 67.8856 35.963 67.5549C35.963 67.2243 35.8317 66.9073 35.5979 66.6735C35.3641 66.4397 35.0471 66.3084 34.7165 66.3084H26.2126V63.5872H44.6763V66.3084H42.0955C41.7649 66.3084 41.4478 66.4397 41.214 66.6735C40.9803 66.9073 40.8489 67.2243 40.8489 67.5549C40.8489 67.8856 40.9803 68.2026 41.214 68.4364C41.4478 68.6702 41.7649 68.8015 42.0955 68.8015H45.9229C46.2535 68.8015 46.5706 68.6702 46.8043 68.4364C47.0381 68.2026 47.1695 67.8856 47.1695 67.5549V63.5424C48.2724 63.3951 49.2844 62.8529 50.018 62.0163C50.7515 61.1797 51.1568 60.1054 51.1585 58.9927V57.5538C51.1572 56.3356 50.6727 55.1678 49.8113 54.3064C48.95 53.4451 47.7821 52.9606 46.564 52.9592H45.5995L51.7319 40.3332C51.8208 40.1503 51.8635 39.9485 51.8564 39.7454C51.8493 39.5423 51.7927 39.344 51.6913 39.1678L38.6849 16.4978ZM48.6654 57.5524V58.9913C48.6648 59.5484 48.4432 60.0826 48.0492 60.4766C47.6553 60.8705 47.1211 61.0921 46.564 61.0927H24.3257C23.7684 61.0923 23.234 60.8708 22.8399 60.4768C22.4458 60.0828 22.2241 59.5485 22.2236 58.9913V57.5524C22.2243 56.9952 22.4461 56.461 22.8401 56.067C23.2342 55.6731 23.7684 55.4516 24.3257 55.451H46.564C47.1211 55.4517 47.6551 55.6734 48.049 56.0673C48.443 56.4612 48.6646 56.9953 48.6654 57.5524Z" fill="#3149BC"/>
<path d="M25.7802 31.4438C25.9999 31.4441 26.2158 31.3862 26.4059 31.2761C26.5961 31.166 26.7537 31.0076 26.8629 30.8169L27.3509 29.9621C27.5108 29.6756 27.5513 29.3376 27.4637 29.0214C27.376 28.7052 27.1672 28.4363 26.8825 28.2731C26.5979 28.1099 26.2604 28.0655 25.9432 28.1495C25.626 28.2335 25.3547 28.4392 25.1882 28.722L24.7003 29.5725C24.5918 29.762 24.535 29.9767 24.5355 30.1951C24.536 30.4134 24.5938 30.6279 24.7031 30.8169C24.8124 31.0059 24.9694 31.163 25.1584 31.2724C25.3474 31.3818 25.5618 31.4396 25.7802 31.4402V31.4438Z" fill="#3149BC"/>
</g>
<defs>
<clipPath id="clip0_4721_735">
<rect width="67.7679" height="69" fill="white" transform="translate(1 1)"/>
</clipPath>
</defs>
</svg>
