<svg width="83" height="83" viewBox="0 0 83 83" fill="none" xmlns="http://www.w3.org/2000/svg">
<mask id="mask0_4855_969" style="mask-type:luminance" maskUnits="userSpaceOnUse" x="9" y="9" width="65" height="65">
<path d="M9 9.00019H73.9998V74H9V9.00019Z" fill="white"/>
</mask>
<g mask="url(#mask0_4855_969)">
<path fill-rule="evenodd" clip-rule="evenodd" d="M64.6087 22.8858L58.9157 17.1926C57.98 16.2533 56.4434 16.2533 55.5077 17.1926L53.5428 19.1574C51.4205 17.8973 49.129 16.9473 46.7377 16.3361V13.5578C46.7377 12.2334 45.6509 11.1503 44.3266 11.1503H36.2764C34.9485 11.1503 33.8652 12.2334 33.8652 13.5578V16.3361C31.474 16.9473 29.1824 17.8973 27.0602 19.1574L25.0953 17.1926C24.156 16.2533 22.6231 16.2533 21.6874 17.1926L15.9942 22.8858C15.055 23.8214 15.055 25.3545 15.9942 26.2938L17.9592 28.2588C16.6991 30.3811 15.749 32.6727 15.1378 35.064H12.3597C11.0353 35.064 9.95215 36.1473 9.95215 37.4752V45.5257C9.95215 46.85 11.0353 47.9369 12.3597 47.9369H15.1378C15.749 50.3282 16.6991 52.6198 17.9592 54.7421L15.9942 56.707C15.055 57.6427 15.055 59.1794 15.9942 60.1151L21.6874 65.8083C22.6231 66.7476 24.156 66.7476 25.0953 65.8083L27.0602 63.8434C29.1824 65.1035 31.474 66.0536 33.8652 66.6648V69.4431C33.8652 70.7674 34.9485 71.8506 36.2764 71.8506H44.3266C45.6509 71.8506 46.7377 70.7674 46.7377 69.4431V66.6648C48.4353 66.2298 50.0847 65.6245 51.6607 64.8583L68.9703 47.8216C69.942 47.5121 70.6509 46.598 70.6509 45.5257V37.4752C70.6509 36.1473 69.5678 35.064 68.2434 35.064H65.4653C64.8541 32.6727 63.904 30.3811 62.6439 28.2588L64.6087 26.2938C65.5479 25.3545 65.5479 23.8214 64.6087 22.8858Z" fill="#FC7F7F"/>
<path fill-rule="evenodd" clip-rule="evenodd" d="M44.0748 59.3086C45.6956 58.9682 47.2615 58.405 48.7279 57.6351C52.6864 56.5879 56.6666 51.6288 58.1564 45.0467C58.3869 43.878 58.5027 42.6895 58.502 41.4983C58.502 31.4469 50.3545 23.2992 40.2999 23.2992C30.2488 23.2992 22.1013 31.4469 22.1013 41.4983C22.1013 50.2578 28.2875 57.5704 36.5285 59.3086H44.0748Z" fill="white"/>
<path fill-rule="evenodd" clip-rule="evenodd" d="M50.5992 38.3749C50.5992 34.9633 48.8646 31.9367 46.2304 30.1409C43.4666 28.2516 43.9992 31.2349 43.9992 31.7351V37.7199C43.9992 39.8144 42.3582 41.5419 40.2998 41.6821C38.2414 41.5419 36.6004 39.8144 36.6004 37.7199V31.7351C36.6004 31.2349 37.1366 28.2516 34.3729 30.1409C31.7386 31.9367 30.0039 34.9633 30.0039 38.3749C30.0039 42.6466 32.7282 46.3138 36.5284 47.7209V59.3089C37.7447 59.568 39.0079 59.7012 40.2998 59.7012C41.5953 59.7012 42.8584 59.568 44.0747 59.3089V47.7209C47.875 46.3138 50.5992 42.6466 50.5992 38.3749Z" fill="#FC7F7F"/>
<path fill-rule="evenodd" clip-rule="evenodd" d="M68.9704 47.8215C66.8184 45.9069 63.9827 44.741 60.877 44.741C59.9412 44.741 59.0309 44.8453 58.1564 45.0469C52.744 46.2812 48.7063 51.1252 48.7063 56.9119C48.7063 57.1567 48.7135 57.3978 48.7279 57.6353C48.8897 60.3884 49.9658 62.8967 51.6607 64.858C53.8919 67.4456 57.1919 69.083 60.877 69.083C67.5993 69.083 73.0477 63.6345 73.0477 56.9119C73.0477 53.2988 71.4715 50.0527 68.9704 47.8215Z" fill="#EFF6FF"/>
<path fill-rule="evenodd" clip-rule="evenodd" d="M60.8769 69.083C67.5993 69.083 73.0476 63.6344 73.0476 56.9119C73.0476 53.2987 71.4713 50.0527 68.9702 47.8215C66.8183 45.9069 63.9825 44.741 60.8769 44.741C60.6538 44.741 60.4306 44.7481 60.2076 44.7589C62.176 45.2375 63.9537 46.1948 65.4183 47.4976C65.7564 47.7984 66.0772 48.118 66.3793 48.4548C66.6865 48.7953 66.9736 49.1534 67.2394 49.5272C68.6572 51.5174 69.4921 53.9538 69.4921 56.5845C69.4921 63.0839 64.4036 68.392 57.9907 68.7376C58.9357 68.9663 59.9046 69.0823 60.8769 69.083Z" fill="#D9EEFF"/>
<path fill-rule="evenodd" clip-rule="evenodd" d="M66.678 51.8095C65.6992 50.9926 64.2381 51.1222 63.4212 52.0974L59.4915 56.783L58.214 55.6998C57.2459 54.8794 55.7813 54.9981 54.9571 55.9697C54.1366 56.9413 54.2553 58.4025 55.227 59.2266L58.2752 61.8141C58.7646 62.2279 59.3295 62.4079 59.9665 62.3539C60.6035 62.3 61.1325 62.0264 61.5427 61.5335L66.9623 55.0664C67.7828 54.0875 67.6533 52.6264 66.678 51.8095Z" fill="#FC7F7F"/>
<path d="M51.6608 64.8582C50.0848 65.6244 48.4354 66.2296 46.7378 66.6647V69.4429C46.7378 70.7673 45.651 71.8506 44.3266 71.8506H36.2764C34.9485 71.8506 33.8653 70.7673 33.8653 69.4429V66.6647C31.4741 66.0535 29.1825 65.1034 27.0603 63.8433L25.0955 65.8081C24.1561 66.7475 22.623 66.7475 21.6874 65.8081L15.9943 60.1149C15.0551 59.1793 15.0551 57.6427 15.9943 56.7069L17.9593 54.7419C16.6992 52.6197 15.7491 50.3281 15.1379 47.9368H12.3597C11.0354 47.9368 9.95215 46.8499 9.95215 45.5255V37.4751C9.95215 36.1472 11.0354 35.064 12.3597 35.064H15.1379C15.7491 32.6726 16.6992 30.381 17.9593 28.2587L15.9943 26.2937C15.0551 25.3545 15.0551 23.8213 15.9943 22.8857L21.6874 17.1925C22.623 16.2532 24.1561 16.2532 25.0955 17.1925L27.0603 19.1574C29.1825 17.8973 31.4741 16.9471 33.8653 16.3359V13.5577C33.8653 12.2333 34.9485 11.1502 36.2764 11.1502H44.3266C45.651 11.1502 46.7378 12.2333 46.7378 13.5577V16.3359C49.1291 16.9471 51.4207 17.8973 53.5429 19.1574L55.5077 17.1925C56.4434 16.2532 57.98 16.2532 58.9157 17.1925L64.6089 22.8857C65.5481 23.8213 65.5481 25.3545 64.6089 26.2937L62.644 28.2587C63.9041 30.381 64.8541 32.6726 65.4653 35.064H68.2435C69.5678 35.064 70.6509 36.1472 70.6509 37.4751V45.5255C70.6509 46.598 69.942 47.5121 68.9704 47.8216" stroke="#3149BC" stroke-width="2" stroke-miterlimit="10" stroke-linecap="round" stroke-linejoin="round"/>
<path d="M28.4099 27.7224C24.5449 31.0585 22.1013 35.9924 22.1013 41.4986C22.1013 51.5535 30.2488 59.7012 40.2999 59.7012C43.3443 59.7012 46.2089 58.9561 48.7279 57.6354M58.1564 45.0469C58.3869 43.8782 58.5027 42.6898 58.502 41.4986C58.502 31.4472 50.3545 23.2995 40.2999 23.2995C37.2121 23.2995 34.3045 24.0697 31.7566 25.4265" stroke="#3149BC" stroke-width="2" stroke-miterlimit="10" stroke-linecap="round" stroke-linejoin="round"/>
<path d="M36.5284 59.3086V47.7206C32.7282 46.3135 30.0039 42.6463 30.0039 38.3746C30.0039 34.9629 31.7386 31.9363 34.3729 30.1406C37.1366 28.2511 36.6004 31.2345 36.6004 31.7348V37.7195C36.6004 39.814 38.2414 41.5414 40.2998 41.6818C42.3582 41.5414 43.9992 39.814 43.9992 37.7195V31.7348C43.9992 31.2345 43.4666 28.2511 46.2304 30.1406C48.8646 31.9363 50.5992 34.9629 50.5992 38.3746C50.5992 42.6463 47.8749 46.3135 44.0747 47.7206V59.3086" stroke="#3149BC" stroke-width="2" stroke-miterlimit="10" stroke-linecap="round" stroke-linejoin="round"/>
<path d="M66.6024 67.6543C64.8966 68.5648 62.9462 69.083 60.8769 69.083C54.1546 69.083 48.7063 63.6345 48.7063 56.9119C48.7063 50.1895 54.1546 44.741 60.8769 44.741C67.5993 44.741 73.0477 50.1895 73.0477 56.9119C73.0477 60.0177 71.8816 62.8499 69.9672 65.002" stroke="#3149BC" stroke-width="2" stroke-miterlimit="10" stroke-linecap="round" stroke-linejoin="round"/>
<path d="M59.4915 56.7831L63.4212 52.0975C64.2381 51.1223 65.6991 50.9927 66.678 51.8096C67.6533 52.6265 67.7828 54.0876 66.9623 55.0664L61.5427 61.5334C61.1325 62.0265 60.6035 62.3001 59.9665 62.3539C59.3295 62.408 58.7646 62.228 58.275 61.8141L55.227 59.2267C54.2553 58.4025 54.1366 56.9414 54.9571 55.9697C55.7812 54.998 57.2459 54.8793 58.214 55.6998L59.4915 56.7831Z" stroke="#3149BC" stroke-width="2" stroke-miterlimit="10" stroke-linecap="round" stroke-linejoin="round"/>
</g>
</svg>
