<svg width="52" height="54" viewBox="0 0 52 54" fill="none" xmlns="http://www.w3.org/2000/svg">
<g filter="url(#filter0_d_4666_1278)">
<path d="M30 0H42C44.7614 0 47 2.23858 47 5V41C47 43.7614 44.7614 46 42 46H30V0Z" fill="#F23434"/>
<path d="M4 5C4 2.23858 6.23858 0 9 0H30.3966L47.4444 23L30.3966 46H9C6.23858 46 4 43.7614 4 41V5Z" fill="white"/>
<g clip-path="url(#clip0_4666_1278)">
<path d="M29.1505 10H19.605C17.4955 10 15.7869 11.7086 15.7869 13.8182V18.5909C15.7869 19.1159 16.2164 19.5455 16.7414 19.5455C17.2664 19.5455 17.696 19.1159 17.696 18.5909V13.8182C17.696 12.7682 18.555 11.9091 19.605 11.9091V12.8636C19.605 14.4386 20.8937 15.7273 22.4687 15.7273H26.2869C27.8619 15.7273 29.1505 14.4386 29.1505 12.8636V11.9091C30.2005 11.9091 31.0596 12.7682 31.0596 13.8182V32.9091C31.0596 33.9591 30.2005 34.8182 29.1505 34.8182H28.196C27.671 34.8182 27.2414 35.2477 27.2414 35.7727C27.2414 36.2977 27.671 36.7273 28.196 36.7273H29.1505C31.26 36.7273 32.9687 35.0186 32.9687 32.9091V13.8182C32.9687 11.7086 31.26 10 29.1505 10ZM27.2414 12.8636C27.2414 13.3886 26.8119 13.8182 26.2869 13.8182H22.4687C21.9437 13.8182 21.5141 13.3886 21.5141 12.8636V11.9091H27.2414V12.8636Z" fill="#3149BC"/>
<path d="M23.8146 29.091C23.07 28.3464 21.8578 28.3464 21.1132 29.091L20.55 29.6542L17.1232 26.2274L17.6864 25.6642C18.431 24.9196 18.431 23.7074 17.6864 22.9628L15.2141 20.4905C14.4696 19.746 13.2573 19.746 12.5128 20.4905L11.4437 21.5596C10.5464 22.4569 10.05 23.6596 10.05 24.9387V25.5974C10.05 26.8764 10.5464 28.0696 11.4437 28.9764L17.801 35.3337C18.6982 36.231 19.901 36.7274 21.18 36.7274H21.8387C23.1178 36.7274 24.311 36.231 25.2178 35.3337L26.2869 34.2646C27.0314 33.5201 27.0314 32.3078 26.2869 31.5633L23.8146 29.091ZM23.8623 33.9783C23.3278 34.5128 22.5928 34.8183 21.8387 34.8183H21.18C20.426 34.8183 19.691 34.5128 19.1564 33.9783L12.7991 27.621C12.2646 27.0864 11.9591 26.3514 11.9591 25.5974V24.9387C11.9591 24.1846 12.2646 23.4496 12.7991 22.9151L13.8682 21.846L16.3405 24.3183L15.1091 25.5496C15.0207 25.6379 14.9504 25.7428 14.9025 25.8583C14.8546 25.9738 14.83 26.0976 14.83 26.2226C14.83 26.3476 14.8546 26.4714 14.9025 26.5869C14.9504 26.7023 15.0207 26.8072 15.1091 26.8955L19.8819 31.6683C20.2541 32.0405 20.8555 32.0405 21.2278 31.6683L22.4591 30.4369L24.9314 32.9092L23.8623 33.9783Z" fill="#3149BC"/>
</g>
</g>
<defs>
<filter id="filter0_d_4666_1278" x="0" y="0" width="51.4445" height="54" filterUnits="userSpaceOnUse" color-interpolation-filters="sRGB">
<feFlood flood-opacity="0" result="BackgroundImageFix"/>
<feColorMatrix in="SourceAlpha" type="matrix" values="0 0 0 0 0 0 0 0 0 0 0 0 0 0 0 0 0 0 127 0" result="hardAlpha"/>
<feOffset dy="4"/>
<feGaussianBlur stdDeviation="2"/>
<feComposite in2="hardAlpha" operator="out"/>
<feColorMatrix type="matrix" values="0 0 0 0 0 0 0 0 0 0 0 0 0 0 0 0 0 0 0.1 0"/>
<feBlend mode="normal" in2="BackgroundImageFix" result="effect1_dropShadow_4666_1278"/>
<feBlend mode="normal" in="SourceGraphic" in2="effect1_dropShadow_4666_1278" result="shape"/>
</filter>
<clipPath id="clip0_4666_1278">
<rect width="22.9688" height="26.7273" fill="white" transform="translate(10 10)"/>
</clipPath>
</defs>
</svg>
