<svg width="54" height="57" viewBox="0 0 54 57" fill="none" xmlns="http://www.w3.org/2000/svg">
<path d="M0 6.12971C0 2.74436 2.74436 0 6.12971 0H32.3607L53.2603 28.1967L32.3607 56.3933H6.12971C2.74436 56.3933 0 53.6489 0 50.2636V6.12971Z" fill="#F23434"/>
<path d="M35.0117 16H6.98828C5.33722 16 4 17.3508 4 19V37C4 38.659 5.34705 40 6.98828 40H35.0117C36.649 40 38 38.6647 38 37V19C38 17.3537 36.6681 16 35.0117 16ZM34.5932 18L23.113 29.4645C22.5486 30.0311 21.7982 30.3431 21 30.3431C20.2018 30.3431 19.4514 30.0311 18.8851 29.4626L7.40677 18H34.5932ZM5.99219 36.5929V19.4083L14.601 28.0053L5.99219 36.5929ZM7.40804 38L16.0134 29.4158L17.4783 30.8787C18.419 31.8231 19.6697 32.3431 21 32.3431C22.3303 32.3431 23.581 31.8231 24.5199 30.8805L25.9866 29.4158L34.592 38H7.40804ZM36.0078 36.5929L27.399 28.0053L36.0078 19.4083V36.5929Z" fill="white"/>
</svg>
