<svg width="44" height="46" viewBox="0 0 44 46" fill="none" xmlns="http://www.w3.org/2000/svg">
<path d="M0 5C0 2.23858 2.23858 0 5 0H26.3966L43.4444 23L26.3966 46H5C2.23858 46 0 43.7614 0 41V5Z" fill="#F23434"/>
<g clip-path="url(#clip0_4612_679)">
<path d="M25.1505 10H15.605C13.4955 10 11.7869 11.7086 11.7869 13.8182V18.5909C11.7869 19.1159 12.2164 19.5455 12.7414 19.5455C13.2664 19.5455 13.696 19.1159 13.696 18.5909V13.8182C13.696 12.7682 14.555 11.9091 15.605 11.9091V12.8636C15.605 14.4386 16.8937 15.7273 18.4687 15.7273H22.2869C23.8619 15.7273 25.1505 14.4386 25.1505 12.8636V11.9091C26.2005 11.9091 27.0596 12.7682 27.0596 13.8182V32.9091C27.0596 33.9591 26.2005 34.8182 25.1505 34.8182H24.196C23.671 34.8182 23.2414 35.2477 23.2414 35.7727C23.2414 36.2977 23.671 36.7273 24.196 36.7273H25.1505C27.26 36.7273 28.9687 35.0186 28.9687 32.9091V13.8182C28.9687 11.7086 27.26 10 25.1505 10ZM23.2414 12.8636C23.2414 13.3886 22.8119 13.8182 22.2869 13.8182H18.4687C17.9437 13.8182 17.5141 13.3886 17.5141 12.8636V11.9091H23.2414V12.8636Z" fill="white"/>
<path d="M19.8146 29.091C19.07 28.3464 17.8578 28.3464 17.1132 29.091L16.55 29.6542L13.1232 26.2274L13.6864 25.6642C14.431 24.9196 14.431 23.7074 13.6864 22.9628L11.2141 20.4905C10.4696 19.746 9.25732 19.746 8.51278 20.4905L7.44369 21.5596C6.54641 22.4569 6.05005 23.6596 6.05005 24.9387V25.5974C6.05005 26.8764 6.54641 28.0696 7.44369 28.9764L13.801 35.3337C14.6982 36.231 15.901 36.7274 17.18 36.7274H17.8387C19.1178 36.7274 20.311 36.231 21.2178 35.3337L22.2869 34.2646C23.0314 33.5201 23.0314 32.3078 22.2869 31.5633L19.8146 29.091ZM19.8623 33.9783C19.3278 34.5128 18.5928 34.8183 17.8387 34.8183H17.18C16.426 34.8183 15.691 34.5128 15.1564 33.9783L8.79914 27.621C8.26459 27.0864 7.95914 26.3514 7.95914 25.5974V24.9387C7.95914 24.1846 8.26459 23.4496 8.79914 22.9151L9.86823 21.846L12.3405 24.3183L11.1091 25.5496C11.0207 25.6379 10.9504 25.7428 10.9025 25.8583C10.8546 25.9738 10.83 26.0976 10.83 26.2226C10.83 26.3476 10.8546 26.4714 10.9025 26.5869C10.9504 26.7023 11.0207 26.8072 11.1091 26.8955L15.8819 31.6683C16.2541 32.0405 16.8555 32.0405 17.2278 31.6683L18.4591 30.4369L20.9314 32.9092L19.8623 33.9783Z" fill="white"/>
</g>
<defs>
<clipPath id="clip0_4612_679">
<rect width="22.9688" height="26.7273" fill="white" transform="translate(6 10)"/>
</clipPath>
</defs>
</svg>
