<svg width="44" height="46" viewBox="0 0 44 46" fill="none" xmlns="http://www.w3.org/2000/svg">
<path d="M0 5C0 2.23858 2.23858 0 5 0H26.3966L43.4444 23L26.3966 46H5C2.23858 46 0 43.7614 0 41V5Z" fill="white"/>
<g clip-path="url(#clip0_4321_2693)">
<path d="M25.1506 10H15.6051C13.4956 10 11.7869 11.7086 11.7869 13.8182V18.5909C11.7869 19.1159 12.2165 19.5455 12.7415 19.5455C13.2665 19.5455 13.696 19.1159 13.696 18.5909V13.8182C13.696 12.7682 14.5551 11.9091 15.6051 11.9091V12.8636C15.6051 14.4386 16.8937 15.7273 18.4687 15.7273H22.2869C23.8619 15.7273 25.1506 14.4386 25.1506 12.8636V11.9091C26.2006 11.9091 27.0597 12.7682 27.0597 13.8182V32.9091C27.0597 33.9591 26.2006 34.8182 25.1506 34.8182H24.196C23.671 34.8182 23.2415 35.2477 23.2415 35.7727C23.2415 36.2977 23.671 36.7273 24.196 36.7273H25.1506C27.2601 36.7273 28.9687 35.0186 28.9687 32.9091V13.8182C28.9687 11.7086 27.2601 10 25.1506 10ZM23.2415 12.8636C23.2415 13.3886 22.8119 13.8182 22.2869 13.8182H18.4687C17.9437 13.8182 17.5142 13.3886 17.5142 12.8636V11.9091H23.2415V12.8636Z" fill="#F23434"/>
<path d="M19.8147 29.091C19.0701 28.3464 17.8578 28.3464 17.1133 29.091L16.5501 29.6542L13.1233 26.2274L13.6865 25.6642C14.431 24.9196 14.431 23.7074 13.6865 22.9628L11.2142 20.4905C10.4697 19.746 9.25738 19.746 8.51284 20.4905L7.44375 21.5596C6.54647 22.4569 6.05011 23.6596 6.05011 24.9387V25.5974C6.05011 26.8764 6.54647 28.0696 7.44375 28.9764L13.801 35.3337C14.6983 36.231 15.901 36.7274 17.1801 36.7274H17.8387C19.1178 36.7274 20.311 36.231 21.2178 35.3337L22.2869 34.2646C23.0315 33.5201 23.0315 32.3078 22.2869 31.5633L19.8147 29.091ZM19.8624 33.9783C19.3278 34.5128 18.5928 34.8183 17.8387 34.8183H17.1801C16.426 34.8183 15.691 34.5128 15.1565 33.9783L8.7992 27.621C8.26466 27.0864 7.9592 26.3514 7.9592 25.5974V24.9387C7.9592 24.1846 8.26466 23.4496 8.7992 22.9151L9.86829 21.846L12.3406 24.3183L11.1092 25.5496C11.0207 25.6379 10.9505 25.7428 10.9026 25.8583C10.8547 25.9738 10.83 26.0976 10.83 26.2226C10.83 26.3476 10.8547 26.4714 10.9026 26.5869C10.9505 26.7023 11.0207 26.8072 11.1092 26.8955L15.8819 31.6683C16.2542 32.0405 16.8556 32.0405 17.2278 31.6683L18.4592 30.4369L20.9315 32.9092L19.8624 33.9783Z" fill="#F23434"/>
</g>
<defs>
<clipPath id="clip0_4321_2693">
<rect width="22.9688" height="26.7273" fill="white" transform="translate(6 10)"/>
</clipPath>
</defs>
</svg>
