<svg width="30" height="30" viewBox="0 0 30 30" fill="none" xmlns="http://www.w3.org/2000/svg">
<g clip-path="url(#clip0_3851_557)">
<path fill-rule="evenodd" clip-rule="evenodd" d="M5.97273 29.499C12.2185 30.1653 18.5174 30.1653 24.7632 29.499C25.9758 29.3692 27.1074 28.8277 27.9692 27.9647C28.831 27.1017 29.3709 25.9694 29.499 24.7565C30.1653 18.5107 30.1653 12.2118 29.499 5.96608C29.3692 4.75339 28.8277 3.62183 27.9647 2.76004C27.1017 1.89825 25.9694 1.35831 24.7565 1.23023C18.5107 0.563883 12.2118 0.563883 5.96608 1.23023C4.75339 1.36001 3.62183 1.90154 2.76004 2.76454C1.89825 3.62754 1.35831 4.75986 1.23023 5.97273C0.563883 12.2185 0.563883 18.5174 1.23023 24.7632C1.36001 25.9758 1.90154 27.1074 2.76454 27.9692C3.62754 28.831 4.75986 29.3709 5.97273 29.499ZM10.6096 5.85383H20.1218C22.7374 5.85383 24.8779 7.99431 24.8779 10.6099V20.1226C24.8779 22.7375 22.7374 24.8787 20.1218 24.8787H10.6096C7.99398 24.8787 5.8535 22.7375 5.8535 20.1226V10.6099C5.8535 7.99431 7.99398 5.85383 10.6096 5.85383ZM20.1218 23.2933C21.8707 23.2933 23.2925 21.8705 23.2925 20.1226V10.6099C23.2925 8.86161 21.8707 7.43928 20.1218 7.43928H10.6096C8.86151 7.43928 7.43895 8.86161 7.43895 10.6099V20.1226C7.43895 21.8705 8.86151 23.2933 10.6096 23.2933H20.1218ZM20.5189 11.4022C21.1756 11.4022 21.7079 10.8698 21.7079 10.2132C21.7079 9.55648 21.1756 9.02413 20.5189 9.02413C19.8622 9.02413 19.3299 9.55648 19.3299 10.2132C19.3299 10.8698 19.8622 11.4022 20.5189 11.4022ZM10.6096 15.3661C10.6096 12.739 12.7384 10.6099 15.3657 10.6099C17.9922 10.6099 20.1218 12.739 20.1218 15.3661C20.1218 17.9921 17.9922 20.1226 15.3657 20.1226C12.7384 20.1226 10.6096 17.9921 10.6096 15.3661ZM12.195 15.3661C12.195 17.1175 13.6147 18.5372 15.3657 18.5372C17.1167 18.5372 18.5364 17.1175 18.5364 15.3661C18.5364 13.6146 17.1167 12.1954 15.3657 12.1954C13.6147 12.1954 12.195 13.6146 12.195 15.3661Z" fill="white"/>
</g>
<defs>
<clipPath id="clip0_3851_557">
<rect width="30" height="30" fill="white"/>
</clipPath>
</defs>
</svg>
