<svg width="44" height="46" viewBox="0 0 44 46" fill="none" xmlns="http://www.w3.org/2000/svg">
<path d="M0 5C0 2.23858 2.23858 0 5 0H26.3966L43.4444 23L26.3966 46H5C2.23858 46 0 43.7614 0 41V5Z" fill="white"/>
<g clip-path="url(#clip0_4264_417)">
<path d="M21.8539 21.7463C21.8539 21.5279 21.7671 21.3184 21.6126 21.1639C21.4581 21.0094 21.2486 20.9226 21.0301 20.9226H11.9691C11.7506 20.9226 11.5411 21.0094 11.3866 21.1639C11.2322 21.3184 11.1454 21.5279 11.1454 21.7463C11.1454 21.9648 11.2322 22.1743 11.3866 22.3288C11.5411 22.4833 11.7506 22.5701 11.9691 22.5701H21.0301C21.1383 22.5701 21.2454 22.5488 21.3454 22.5074C21.4453 22.466 21.5361 22.4053 21.6126 22.3288C21.6891 22.2523 21.7498 22.1615 21.7912 22.0616C21.8326 21.9616 21.8539 21.8545 21.8539 21.7463ZM11.9673 25.0824C11.7488 25.0824 11.5393 25.1692 11.3848 25.3237C11.2303 25.4782 11.1436 25.6877 11.1436 25.9062C11.1436 26.1246 11.2303 26.3342 11.3848 26.4886C11.5393 26.6431 11.7488 26.7299 11.9673 26.7299H16.7715C16.9899 26.7299 17.1994 26.6431 17.3539 26.4886C17.5084 26.3342 17.5952 26.1246 17.5952 25.9062C17.5952 25.6877 17.5084 25.4782 17.3539 25.3237C17.1994 25.1692 16.9899 25.0824 16.7715 25.0824H11.9673Z" fill="#3149BC"/>
<path d="M27.2812 21.7918C27.0628 21.7918 26.8533 21.8786 26.6988 22.0331C26.5443 22.1876 26.4575 22.3971 26.4575 22.6156V29.2777C26.4568 29.877 26.2184 30.4516 25.7946 30.8754C25.3708 31.2992 24.7962 31.5376 24.1968 31.5384H18.687C18.5083 31.5382 18.3344 31.5963 18.1918 31.704L13.4344 35.2818C13.3937 35.3144 13.3442 35.3339 13.2922 35.3378C13.2403 35.3417 13.1884 35.3299 13.1433 35.3037C13.0967 35.2815 13.0577 35.246 13.0312 35.2017C13.0047 35.1574 12.9918 35.1063 12.9941 35.0548L13.0856 32.3914C13.0892 32.281 13.0706 32.171 13.0308 32.0679C12.9911 31.9649 12.9311 31.8708 12.8544 31.7914C12.7777 31.7119 12.6858 31.6487 12.5842 31.6054C12.4825 31.5621 12.3733 31.5396 12.2628 31.5393H8.43615C7.83673 31.5388 7.262 31.3005 6.83815 30.8766C6.41429 30.4528 6.17596 29.878 6.17547 29.2786V18.3871C6.17499 17.7866 6.41274 17.2105 6.83657 16.7851C7.2604 16.3597 7.83568 16.1199 8.43615 16.1182H18.5863C18.8048 16.1182 19.0143 16.0314 19.1688 15.8769C19.3233 15.7224 19.41 15.5129 19.41 15.2944C19.41 15.076 19.3233 14.8664 19.1688 14.712C19.0143 14.5575 18.8048 14.4707 18.5863 14.4707H8.43615C7.39881 14.4731 6.40478 14.8869 5.67212 15.6213C4.93947 16.3557 4.52801 17.3506 4.52802 18.388V29.2786C4.52923 30.3148 4.94133 31.3083 5.67396 32.0411C6.40659 32.7739 7.39994 33.1862 8.43615 33.1877H11.4098L11.3476 35.0017C11.335 35.364 11.4257 35.7223 11.6091 36.035C11.7926 36.3476 12.0612 36.6016 12.3836 36.7672C12.6581 36.9111 12.9634 36.9864 13.2733 36.9869C13.6787 36.9869 14.0805 36.856 14.4228 36.6006L18.9616 33.1877H24.1959C25.2321 33.1862 26.2255 32.7739 26.9581 32.0411C27.6907 31.3083 28.1028 30.3148 28.104 29.2786V22.6165C28.1043 22.5083 28.0832 22.4011 28.0419 22.301C28.0007 22.201 27.9401 22.1101 27.8637 22.0335C27.7873 21.9569 27.6965 21.8961 27.5965 21.8546C27.4966 21.8132 27.3894 21.7918 27.2812 21.7918Z" fill="#3149BC"/>
<path d="M31.734 13.9453C31.6621 13.7216 31.5341 13.52 31.3622 13.3598C31.1903 13.1995 30.9802 13.086 30.7519 13.0301L28.6468 12.5056L27.4973 10.666C26.9875 9.84773 25.6567 9.84956 25.1478 10.666L23.9983 12.5056L21.8932 13.0301C21.4273 13.1454 21.0594 13.4877 20.9111 13.9453C20.7628 14.403 20.858 14.8963 21.1674 15.2651L22.5622 16.9254L22.4103 19.0891C22.3931 19.3235 22.4362 19.5585 22.5355 19.7716C22.6348 19.9847 22.7871 20.1688 22.9777 20.3063C23.1676 20.4451 23.3898 20.5329 23.6232 20.5616C23.8566 20.5903 24.0935 20.5588 24.3113 20.4702L26.323 19.6574L28.3338 20.4702C28.7795 20.6514 29.2774 20.5892 29.6673 20.3073C30.0563 20.0244 30.2687 19.5696 30.2357 19.0891L30.0838 16.9254L31.4786 15.2642C31.7871 14.8963 31.8832 14.403 31.734 13.9453ZM28.6075 16.1209C28.4699 16.2848 28.4016 16.4959 28.4171 16.7094L28.5635 18.787L26.6324 18.0063C26.4346 17.9259 26.2132 17.9259 26.0155 18.0063L24.0852 18.787L24.2307 16.7094C24.2452 16.4961 24.177 16.2853 24.0404 16.1209L22.7013 14.5265L24.7222 14.0222C24.9291 13.9705 25.108 13.8406 25.221 13.6598L26.3248 11.8942L27.4286 13.6598C27.5421 13.841 27.7206 13.971 27.9274 14.0222L29.9483 14.5265L28.6075 16.1209Z" fill="#3149BC"/>
</g>
<defs>
<clipPath id="clip0_4264_417">
<rect width="27.3432" height="27" fill="white" transform="translate(4.49377 10)"/>
</clipPath>
</defs>
</svg>
