<svg width="62" height="61" viewBox="0 0 62 61" fill="none" xmlns="http://www.w3.org/2000/svg">
<path d="M37.8481 21.7296L39.0563 23.1418L36.1979 25.8661L34.6538 24.1422C33.4928 24.6834 32.2079 25.0129 30.7934 25.0129C25.5423 25.0129 21.6055 20.747 21.6055 15.9163C21.6055 11.0855 25.5423 6.92554 30.7934 6.92554C36.0447 6.92554 40.005 11.0855 40.005 15.9163C40.005 18.1051 39.2095 20.1586 37.8481 21.7296ZM30.7934 21.1119C31.153 21.1119 31.5125 21.0589 31.8485 20.9824L29.4027 18.2346L32.3612 15.4868L35.037 18.5936C35.5025 17.8462 35.7558 16.8695 35.7558 15.9222C35.7558 13.0214 33.646 10.8325 30.7876 10.8325C27.9587 10.8325 25.8193 13.0155 25.8193 15.9222C25.8252 18.6935 27.9646 21.1119 30.7934 21.1119Z" fill="white"/>
<path d="M35.2023 48.0069H26.7569L25.596 50.7311H21.1168L28.6076 33.2616H33.3164L40.8307 50.7311H36.328L35.2023 48.0069ZM33.7349 44.5648L31.0061 38.0394L28.2244 44.5648H33.7349Z" fill="white"/>
<path d="M41.2724 27.4194H20.7336V30.9614H41.2724V27.4194Z" fill="white"/>
<path d="M0 0V3.54217H0.0294676V60.717H8.46902V57.1748H3.57148V3.54217H58.4521V57.1748H53.5605V60.717H62V0H0Z" fill="white"/>
<path d="M10.579 56.2329C10.579 56.2096 10.5849 56.1918 10.6025 56.1741C10.6202 56.1566 10.6379 56.1506 10.6615 56.1506H12.1702C12.4944 56.1506 12.8009 56.2094 13.0837 56.333C13.3666 56.4566 13.6142 56.6213 13.8263 56.8273C14.0385 57.0392 14.2094 57.2804 14.3391 57.5627C14.4687 57.8452 14.5335 58.1453 14.5394 58.463C14.5512 58.7985 14.4864 59.1102 14.3626 59.4044C14.233 59.6986 14.0621 59.9517 13.8381 60.1694C13.62 60.3871 13.3607 60.5578 13.0661 60.6871C12.7714 60.8107 12.459 60.8754 12.1231 60.8754H10.6674C10.6438 60.8754 10.6261 60.8695 10.6085 60.852C10.5908 60.8343 10.5849 60.8166 10.5849 60.793V56.2329H10.579ZM11.4453 60.0222H12.1702C12.3765 60.0222 12.571 59.9811 12.7537 59.9046C12.9364 59.8281 13.0955 59.7163 13.2311 59.581C13.3666 59.4457 13.4786 59.2868 13.5552 59.1044C13.6318 58.9219 13.6731 58.7278 13.6731 58.5218C13.6731 58.3158 13.6318 58.1217 13.5552 57.9393C13.4786 57.757 13.3666 57.5982 13.2311 57.4628C13.0955 57.3273 12.9364 57.2156 12.7537 57.1391C12.571 57.0625 12.3765 57.0215 12.1702 57.0215H11.4453V60.0222Z" fill="white"/>
<path d="M16.9673 58.4924C16.9673 58.1452 17.0322 57.8216 17.1618 57.5216C17.2915 57.2216 17.4624 56.9626 17.6805 56.7449C17.8985 56.5271 18.1578 56.3565 18.4525 56.2329C18.753 56.1094 19.0713 56.0506 19.4132 56.0565C19.7432 56.0623 20.0497 56.1211 20.3384 56.2447C20.6273 56.3623 20.8806 56.5271 21.0987 56.7389C21.1341 56.7743 21.1341 56.8096 21.1046 56.8448L20.6744 57.4038C20.6625 57.4274 20.639 57.4392 20.6154 57.4392C20.5919 57.4392 20.5682 57.4332 20.5506 57.4098C20.4092 57.2449 20.2324 57.1096 20.0319 57.0097C19.8316 56.9096 19.6135 56.8625 19.3836 56.8684C19.1716 56.8684 18.9711 56.9155 18.7825 57.0037C18.594 57.0921 18.4289 57.2155 18.2875 57.3627C18.146 57.5097 18.04 57.6863 17.9575 57.8863C17.8749 58.0864 17.8337 58.2983 17.8337 58.5218C17.8337 58.7455 17.8749 58.9513 17.9633 59.1514C18.0517 59.3514 18.1637 59.5221 18.3111 59.6691C18.4525 59.8163 18.6235 59.9339 18.8121 60.0223C19.0006 60.1105 19.2068 60.1516 19.419 60.1516C19.5959 60.1458 19.761 60.1164 19.92 60.0517C20.0792 59.9869 20.2265 59.9045 20.3621 59.7928C20.4976 59.6869 20.6095 59.5574 20.7038 59.4104C20.7981 59.2632 20.8689 59.1043 20.916 58.9338H19.5959C19.5722 58.9338 19.5546 58.9219 19.5429 58.9044C19.5309 58.8866 19.5309 58.8631 19.5487 58.8395L19.9789 58.204C20.0379 58.1217 20.1144 58.0806 20.2087 58.0806H21.8119C21.8237 58.1571 21.8354 58.2334 21.8413 58.3041C21.8471 58.3748 21.8471 58.4513 21.8471 58.5278C21.8413 58.8689 21.7765 59.1867 21.6468 59.4867C21.5171 59.7811 21.3403 60.0399 21.1163 60.2636C20.8924 60.4812 20.6332 60.6576 20.3325 60.7813C20.0319 60.9049 19.7136 60.9696 19.3719 60.9696C19.036 60.9696 18.7178 60.9049 18.423 60.7754C18.1284 60.646 17.869 60.4694 17.6569 60.2458C17.4388 60.0223 17.2738 59.7634 17.15 59.4573C17.0322 59.1631 16.9673 58.8395 16.9673 58.4924Z" fill="white"/>
<path d="M24.2341 56.2218C24.2341 56.1982 24.24 56.1805 24.2576 56.163C24.2754 56.1452 24.293 56.1394 24.3165 56.1394H27.2516C27.34 56.1394 27.4165 56.1746 27.4756 56.2453L27.9765 56.8984C27.9941 56.9219 28 56.9396 27.9883 56.9632C27.9765 56.9809 27.9587 56.9926 27.9294 56.9926H26.4207V60.7818C26.4207 60.8348 26.3911 60.8642 26.3381 60.8642H25.6367C25.5837 60.8642 25.5543 60.8348 25.5543 60.7818V56.9926H24.3106C24.2872 56.9926 24.2694 56.9867 24.2518 56.969C24.2341 56.9513 24.2281 56.9338 24.2281 56.9102V56.2218H24.2341Z" fill="white"/>
<path d="M28.0826 60.7813L31.5598 56.2565C31.6188 56.186 31.6953 56.1506 31.7837 56.1506H32.4261C32.4791 56.1506 32.5086 56.18 32.5086 56.2329V60.799C32.5086 60.852 32.4791 60.8814 32.4261 60.8814H31.7837C31.6953 60.8814 31.6188 60.846 31.5598 60.7755L30.3871 59.2516L29.2083 60.7755C29.1493 60.846 29.0728 60.8814 28.9844 60.8814H28.1239C28.1002 60.8814 28.0826 60.8695 28.0709 60.852C28.059 60.8284 28.065 60.8049 28.0826 60.7813ZM30.9469 58.516L31.6423 59.4221V57.6098L30.9469 58.516Z" fill="white"/>
<path d="M33.5578 56.1506H34.2531C34.3122 56.1506 34.3416 56.18 34.3416 56.2329V60.0222H36.2335C36.2628 60.0222 36.2806 60.0341 36.2924 60.0576C36.3041 60.0812 36.3041 60.0987 36.2865 60.1164L35.7797 60.7694C35.7208 60.8401 35.65 60.8754 35.5616 60.8754H33.5519C33.5282 60.8754 33.5106 60.8695 33.493 60.852C33.4752 60.8343 33.4693 60.8166 33.4693 60.793V56.2271C33.4693 56.2035 33.4752 56.186 33.493 56.1683C33.5165 56.1624 33.5343 56.1506 33.5578 56.1506Z" fill="white"/>
<path d="M38.7206 60.799V56.2329C38.7206 56.2096 38.7264 56.1918 38.7442 56.1741C38.7618 56.1566 38.7796 56.1506 38.8031 56.1506H39.4455C39.5339 56.1506 39.6106 56.186 39.6695 56.2565L43.1527 60.7813C43.1644 60.8049 43.1644 60.8224 43.1585 60.846C43.1466 60.8637 43.129 60.8754 43.0995 60.8754H42.2392C42.1507 60.8754 42.0741 60.8401 42.0152 60.7694L40.8423 59.2455L39.6636 60.7694C39.6047 60.8401 39.528 60.8754 39.4396 60.8754H38.7972C38.7738 60.8754 38.756 60.8695 38.7384 60.852C38.7266 60.8401 38.7206 60.8224 38.7206 60.799ZM39.5869 57.6098V59.4221L40.2825 58.516L39.5869 57.6098Z" fill="white"/>
<path d="M43.6829 56.2329C43.6829 56.2096 43.6888 56.1918 43.7065 56.1741C43.7242 56.1566 43.7418 56.1506 43.7654 56.1506H45.2742C45.5983 56.1506 45.9048 56.2094 46.1876 56.333C46.4705 56.4566 46.7181 56.6213 46.9302 56.8273C47.1424 57.0392 47.3134 57.2804 47.4431 57.5627C47.5726 57.8452 47.6375 58.1453 47.6434 58.463C47.6551 58.7985 47.5904 59.1102 47.4665 59.4044C47.3368 59.6986 47.1661 59.9517 46.9421 60.1694C46.724 60.3871 46.4646 60.5578 46.17 60.6871C45.8753 60.8107 45.5629 60.8754 45.227 60.8754H43.7713C43.7476 60.8754 43.73 60.8695 43.7124 60.852C43.6946 60.8343 43.6888 60.8166 43.6888 60.793V56.2329H43.6829ZM44.5492 60.0222H45.2742C45.4805 60.0222 45.675 59.9811 45.8577 59.9046C46.0404 59.8281 46.1994 59.7163 46.3349 59.581C46.4705 59.4457 46.5826 59.2868 46.6591 59.1044C46.7357 58.9219 46.777 58.7278 46.777 58.5218C46.777 58.3158 46.7357 58.1217 46.6591 57.9393C46.5826 57.757 46.4705 57.5982 46.3349 57.4628C46.1994 57.3273 46.0404 57.2156 45.8577 57.1391C45.675 57.0625 45.4805 57.0215 45.2742 57.0215H44.5492V60.0222Z" fill="white"/>
<path d="M48.2976 57.5328C48.2976 57.3209 48.3389 57.1268 48.4273 56.9444C48.5157 56.762 48.6337 56.6091 48.7868 56.4796C48.94 56.3502 49.111 56.2442 49.3173 56.1677C49.5176 56.0912 49.7299 56.0501 49.9538 56.0501C50.3073 56.0501 50.6079 56.1148 50.8732 56.2384C51.1324 56.3618 51.327 56.5032 51.4567 56.6679C51.486 56.709 51.486 56.7444 51.4506 56.7738L50.9851 57.2621C50.9675 57.2798 50.9438 57.2915 50.9203 57.2915C50.8967 57.2915 50.8732 57.2799 50.8554 57.2563C50.8143 57.2092 50.767 57.1681 50.7022 57.121C50.6434 57.0739 50.5725 57.0326 50.49 56.9973C50.4135 56.9621 50.3251 56.9267 50.2367 56.9091C50.1483 56.8856 50.054 56.8737 49.9597 56.8737C49.8476 56.8737 49.7416 56.8914 49.6532 56.9267C49.5589 56.9621 49.4822 57.0032 49.4175 57.0561C49.3525 57.1091 49.3054 57.1739 49.2702 57.2444C49.2348 57.3151 49.217 57.3916 49.217 57.474C49.217 57.6034 49.2583 57.7152 49.3467 57.8094C49.4351 57.9035 49.5589 57.9683 49.7299 58.0036L50.3898 58.133C50.6079 58.1741 50.7965 58.2389 50.9616 58.3271C51.1265 58.4154 51.2621 58.5213 51.3741 58.6391C51.486 58.7625 51.5686 58.8978 51.6275 59.045C51.6865 59.198 51.7159 59.3569 51.7159 59.5216C51.7159 59.7041 51.6807 59.8805 51.604 60.0571C51.5273 60.2337 51.4213 60.3925 51.274 60.5278C51.1265 60.669 50.9497 60.7808 50.7376 60.8631C50.5254 60.9455 50.2838 60.9867 50.0068 60.9867C49.8124 60.9867 49.6297 60.969 49.4646 60.928C49.2937 60.8867 49.1405 60.8337 49.0049 60.7691C48.8694 60.7043 48.7456 60.6338 48.6454 60.5512C48.5394 60.4749 48.4568 60.3925 48.386 60.316C48.3567 60.2866 48.3567 60.2512 48.386 60.2101L48.8105 59.6628C48.8222 59.6392 48.8457 59.6276 48.8694 59.6276C48.8929 59.6276 48.9165 59.6334 48.9341 59.6511C48.9991 59.7099 49.0697 59.7687 49.1464 59.8275C49.223 59.8865 49.3054 59.9453 49.3938 59.9922C49.4822 60.0393 49.5826 60.0806 49.6827 60.1159C49.7887 60.1453 49.8948 60.163 50.0127 60.163C50.2602 60.163 50.4489 60.11 50.5784 59.9983C50.7081 59.8923 50.773 59.751 50.773 59.5804C50.773 59.4451 50.7259 59.3275 50.6256 59.2274C50.5313 59.1274 50.384 59.0567 50.1954 59.0215L49.5352 58.8861C49.1581 58.8096 48.8516 58.6566 48.6278 58.4214C48.4097 58.1918 48.2976 57.8976 48.2976 57.5328Z" fill="white"/>
<path d="M15.3998 56.1506C15.3998 56.1506 16.1837 56.9685 16.1837 56.9802V60.793C16.1837 60.846 16.1542 60.8754 16.0953 60.8754H15.3998C15.3763 60.8754 15.3586 60.8695 15.3409 60.852C15.3232 60.8343 15.3173 60.8166 15.3173 60.793V56.2271C15.3173 56.2035 15.3232 56.186 15.3409 56.1683C15.3586 56.1624 15.3763 56.1506 15.3998 56.1506Z" fill="white"/>
<path d="M22.7135 56.1506C22.7135 56.1506 23.4973 56.9685 23.4973 56.9802V60.793C23.4973 60.846 23.468 60.8754 23.4091 60.8754H22.7135C22.69 60.8754 22.6723 60.8695 22.6546 60.852C22.637 60.8343 22.631 60.8166 22.631 60.793V56.2271C22.631 56.2035 22.637 56.186 22.6546 56.1683C22.6664 56.1624 22.69 56.1506 22.7135 56.1506Z" fill="white"/>
</svg>
