<svg width="480" height="363" viewBox="0 0 480 363" fill="none" xmlns="http://www.w3.org/2000/svg">
<path opacity="0.2" d="M458.611 119.947C438.389 99.7243 407.668 90.0024 357.502 90.0024H266.114L246.583 162.724H337.28H354.391C364.502 162.724 375.391 165.057 381.612 171.279C385.89 175.558 388.223 181.391 388.223 187.223C388.223 207.834 372.279 223.39 337.668 223.39H326.899H321.335H230.29L193.004 362.222H284.003L303.836 288.333H342.335C428.667 288.333 480 242.834 480 174.78C480 153.39 473.001 134.335 458.611 119.947Z" fill="#B6B7B8"/>
<path opacity="0.2" d="M280.006 0H180.003L0 159.145L10.3846 224.494H132.31L120.003 271.007H207.312L236.924 160.613L149.3 161.97L149.233 162.22H90.7709L280.006 0Z" fill="#B6B7B8"/>
</svg>
