<svg width="350" height="71" viewBox="0 0 350 71" fill="none" xmlns="http://www.w3.org/2000/svg">
<path d="M183.133 22.6522C183.133 17.1344 181.528 11.9206 177.618 8.00809C172.902 3.2951 164.679 0.487 151.741 0.487H124.36L123.684 3.0038L142.989 20.1437H150.838C154.149 20.1437 156.454 20.8457 157.758 22.1492C158.761 23.153 159.262 24.4565 159.262 25.8605C159.262 30.2739 155.151 33.8846 147.328 33.8846H142.358L109.637 55.3105L105.506 70.6917H128.974L134.39 50.6326H140.207L148.03 70.6917H173.305L163.575 47.3237C177.416 43.0109 183.133 33.5828 183.133 22.6522Z" fill="white"/>
<path d="M126.251 7.95061C121.025 2.72523 113.087 0.213135 100.124 0.213135H76.5097L71.4631 19.0041H94.899H99.3202C101.933 19.0041 104.747 19.607 106.354 21.2148C107.46 22.3203 108.062 23.8275 108.062 25.3347C108.062 30.6605 103.942 34.68 94.9991 34.68H92.2165H90.7786H67.2531L57.6184 70.5538H81.1322L86.257 51.4612H96.2052C118.513 51.4612 131.777 39.7044 131.777 22.1193C131.777 16.5924 129.969 11.6686 126.251 7.95061Z" fill="white"/>
<path d="M72.4959 0.392578H46.6045L0 41.6197L2.68867 58.5486H34.2563L31.0698 70.5979H53.6748L61.3416 42L38.6551 42.3515L38.6377 42.4163H23.5014L72.4959 0.392578Z" fill="#ED2424"/>
<path d="M195.784 0.213043L176.954 70.327H200.393L219.222 0.213043H195.784Z" fill="white"/>
<path d="M274.413 0.535767L269.061 20.3937H300.556L287.017 70.7405H310.485L324.025 20.3937H344.686L350 0.535767H274.413Z" fill="white"/>
<path d="M268.214 24.7214L265.253 33.9209L249.307 0.422699H227.343L208.487 70.6274H231.757L241.183 35.7252L257.832 70.6274H278.694L290.472 24.6972L268.214 24.7214Z" fill="white"/>
</svg>
