<svg width="384" height="109" viewBox="0 0 384 109" fill="none" xmlns="http://www.w3.org/2000/svg">
<path d="M202.513 24.5904C202.513 18.5813 200.765 12.9031 196.506 8.64211C191.371 3.50937 182.415 0.451172 168.325 0.451172H138.505L137.769 3.19213L158.794 21.8586H167.341C170.947 21.8586 173.458 22.6231 174.877 24.0427C175.97 25.1359 176.516 26.5554 176.516 28.0845C176.516 32.8909 172.038 36.8232 163.518 36.8232H158.106L122.471 60.1574L117.972 76.9085H143.531L149.428 55.0629H155.763L164.283 76.9085H191.809L181.213 51.4592C196.287 46.7624 202.513 36.4946 202.513 24.5904Z" fill="#3149BC"/>
<path d="M140.323 8.68246C134.632 2.99169 125.987 0.255859 111.869 0.255859H86.1519L80.6558 20.7204H106.179H110.994C113.839 20.7204 116.904 21.377 118.654 23.128C119.858 24.332 120.515 25.9734 120.515 27.6149C120.515 33.415 116.028 37.7925 106.288 37.7925H103.258H101.692H76.0708L65.5781 76.8612H91.1861L96.7673 56.0683H107.602C131.896 56.0683 146.342 43.2644 146.342 24.1131C146.342 18.0939 144.372 12.7315 140.323 8.68246Z" fill="#3149BC"/>
<path d="M81.7806 0.451172H53.5832L2.828 45.3501L5.75614 63.7867H40.1353L36.6649 76.9092H61.2832L69.6329 45.7643L44.9258 46.147L44.9069 46.2177H28.4225L81.7806 0.451172Z" fill="#F23434"/>
<path d="M216.049 0.0458984L195.542 76.4044H221.068L241.575 0.0458984H216.049Z" fill="#3149BC"/>
<path d="M301.681 0.398438L295.853 22.0249H330.153L315.407 76.8558H340.966L355.712 22.0249H378.212L384 0.398438H301.681Z" fill="#3149BC"/>
<path d="M294.93 26.7363L291.705 36.7551L274.339 0.273438H250.419L229.883 76.7308H255.225L265.491 38.72L283.623 76.7308H306.343L319.17 26.7099L294.93 26.7363Z" fill="#3149BC"/>
<path d="M13.707 96.7081H8.49453L8.14028 98.2601H12.3744L11.6996 101.145H7.46553L6.58835 104.957H2.6579L5.23884 93.8236H14.3818L13.707 96.7081ZM17.5426 102.072H22.7551L22.0803 104.957H12.9374L15.5183 93.8236H19.4488L17.5426 102.072ZM23.3157 104.957L25.8966 93.8236H35.242L34.5672 96.7081H29.1523L28.8318 98.0914H33.1165L32.5092 100.757H28.2245L27.9209 102.072H33.437L32.7623 104.957H23.3157ZM33.8752 104.957L36.4562 93.8236H45.8015L45.1268 96.7081H39.7119L39.3914 98.0914H43.676L43.0688 100.757H38.7841L38.4804 102.072H43.9966L43.3218 104.957H33.8752ZM57.4069 93.8236L56.7322 96.7081H53.2572L51.351 104.957H47.4205L49.3267 96.7081H45.8349L46.5096 93.8236H57.4069ZM61.9642 104.957L61.3906 93.8236H65.2705L64.9837 101.803L68.1888 93.8236H71.5626L71.5794 101.803L74.5484 93.8236H78.8668L73.1145 104.957H68.8635L68.931 100.774L69.1841 97.7878H69.1334L67.9526 100.774L66.232 104.957H61.9642ZM77.0194 104.957L79.6003 93.8236H85.1333C86.3704 93.8236 87.3488 94.1103 88.0685 94.6839C88.7882 95.2574 89.1481 96.0615 89.1481 97.0961C89.1481 98.0183 88.9288 98.7886 88.4902 99.4072C88.0629 100.014 87.4668 100.47 86.7021 100.774C85.9486 101.077 85.0771 101.229 84.0874 101.229L83.5983 101.398H81.4559L82.0463 98.8168H83.7163C84.0425 98.8168 84.3236 98.7661 84.5598 98.6649C84.7959 98.5637 84.9815 98.4175 85.1165 98.2263C85.2514 98.0352 85.3189 97.8159 85.3189 97.5685C85.3189 97.2198 85.2008 96.978 84.9646 96.8431C84.7397 96.6969 84.4642 96.6238 84.1381 96.6238H82.7885L80.8655 104.957H77.0194ZM84.2899 104.957L82.5186 100.082L85.9768 99.5084L88.1866 104.957H84.2899ZM87.8847 104.957L94.1093 93.8236H98.8326L99.8447 104.957H96.1504L96.0998 102.73H92.9959L91.8995 104.957H87.8847ZM94.2105 100.284H96.0323L95.9817 96.5732L94.2105 100.284ZM100.527 104.957L103.108 93.8236H107.916C109.389 93.8236 110.536 94.1328 111.357 94.7514C112.189 95.3586 112.605 96.2302 112.605 97.366C112.605 98.2207 112.403 98.9798 111.998 99.6433C111.593 100.296 111.008 100.807 110.244 101.178C109.49 101.55 108.579 101.735 107.511 101.735H103.327L103.951 98.9517H107.173C107.511 98.9517 107.792 98.8955 108.017 98.783C108.253 98.6593 108.433 98.5019 108.557 98.3107C108.68 98.1083 108.742 97.889 108.742 97.6528C108.742 97.3267 108.647 97.0736 108.455 96.8937C108.264 96.7025 107.927 96.6069 107.443 96.6069H106.381L104.458 104.957H100.527ZM112.339 104.957L114.92 93.8236H119.727C121.2 93.8236 122.347 94.1328 123.168 94.7514C124.001 95.3586 124.417 96.2302 124.417 97.366C124.417 98.2207 124.214 98.9798 123.809 99.6433C123.405 100.296 122.82 100.807 122.055 101.178C121.302 101.55 120.391 101.735 119.322 101.735H115.139L115.763 98.9517H118.985C119.322 98.9517 119.603 98.8955 119.828 98.783C120.065 98.6593 120.245 98.5019 120.368 98.3107C120.492 98.1083 120.554 97.889 120.554 97.6528C120.554 97.3267 120.458 97.0736 120.267 96.8937C120.076 96.7025 119.738 96.6069 119.255 96.6069H118.192L116.269 104.957H112.339ZM130.662 93.8236L128.081 104.957H124.15L126.731 93.8236H130.662ZM129.768 104.957L132.349 93.8236H136.431L137.932 99.0698L138.32 100.639H138.354L138.877 97.9564L139.838 93.8236H143.246L140.665 104.957H136.633L135.064 99.8964L134.643 98.3107H134.609L134.137 100.824L133.175 104.957H129.768ZM147.684 105.126C146.829 105.126 146.065 104.929 145.39 104.535C144.715 104.142 144.181 103.585 143.787 102.865C143.394 102.134 143.197 101.268 143.197 100.267C143.197 99.3453 143.337 98.485 143.619 97.6865C143.9 96.8881 144.31 96.1852 144.85 95.5779C145.39 94.9706 146.053 94.4983 146.841 94.1609C147.628 93.8236 148.527 93.6549 149.54 93.6549C150.462 93.6549 151.277 93.8123 151.986 94.1272C152.694 94.4308 153.262 94.8694 153.689 95.443C154.128 96.0165 154.381 96.6913 154.448 97.4672L150.805 98.007C150.805 97.6134 150.698 97.2817 150.484 97.0118C150.282 96.7419 149.95 96.6069 149.489 96.6069C149.163 96.6069 148.854 96.6913 148.561 96.86C148.28 97.0174 148.027 97.2479 147.802 97.5516C147.588 97.844 147.42 98.1982 147.296 98.6143C147.172 99.0304 147.11 99.4915 147.11 99.9976C147.11 100.459 147.172 100.864 147.296 101.212C147.42 101.561 147.622 101.831 147.903 102.022C148.184 102.213 148.561 102.309 149.033 102.309C149.326 102.309 149.579 102.269 149.793 102.191C150.006 102.112 150.186 102.005 150.332 101.87C150.479 101.724 150.591 101.566 150.67 101.398L150.805 101.111H148.679L149.219 98.7493H154.381L152.795 104.957H150.299L150.94 102.072L151.26 102.41C151.069 102.995 150.816 103.489 150.501 103.894C150.197 104.299 149.815 104.608 149.354 104.822C148.893 105.025 148.336 105.126 147.684 105.126ZM162.693 105.143C161.928 105.143 161.259 105.013 160.685 104.755C160.123 104.485 159.69 104.119 159.386 103.658C159.083 103.186 158.931 102.657 158.931 102.072C158.931 101.341 159.094 100.717 159.42 100.2C159.757 99.6714 160.219 99.2553 160.803 98.9517C161.399 98.6368 162.085 98.4513 162.861 98.395L163.772 97.9564C164.2 97.9227 164.576 97.8777 164.902 97.8215C165.229 97.754 165.482 97.6359 165.662 97.4672C165.853 97.2986 165.948 97.0568 165.948 96.7419C165.948 96.5395 165.886 96.3764 165.763 96.2527C165.639 96.129 165.476 96.0671 165.274 96.0671C164.925 96.0671 164.689 96.174 164.565 96.3876C164.441 96.5901 164.38 96.8037 164.38 97.0287C164.38 97.1636 164.391 97.3098 164.413 97.4672C164.447 97.6247 164.514 97.8215 164.616 98.0577C164.728 98.2826 164.897 98.5806 165.122 98.9517C165.347 99.3116 165.65 99.7727 166.033 100.335C166.393 100.852 166.736 101.302 167.062 101.684C167.388 102.056 167.742 102.331 168.124 102.511C168.507 102.691 168.962 102.747 169.491 102.68L168.799 105.126H168.31C167.691 105.126 167.146 105.025 166.674 104.822C166.213 104.62 165.757 104.299 165.307 103.861C164.857 103.411 164.363 102.815 163.823 102.072C163.182 101.195 162.693 100.47 162.355 99.8964C162.018 99.3116 161.782 98.8055 161.647 98.3782C161.523 97.9508 161.461 97.5291 161.461 97.113C161.461 96.4495 161.619 95.8591 161.934 95.3418C162.26 94.8132 162.715 94.4027 163.3 94.1103C163.896 93.8067 164.604 93.6549 165.425 93.6549C166.46 93.6549 167.281 93.8742 167.888 94.3128C168.496 94.7401 168.799 95.3305 168.799 96.084C168.799 96.7588 168.614 97.3435 168.243 97.8384C167.871 98.3219 167.365 98.7099 166.724 99.0023C166.083 99.2835 165.352 99.4634 164.531 99.5421L164.413 100.065C164.031 100.121 163.677 100.217 163.351 100.352C163.036 100.476 162.783 100.644 162.591 100.858C162.4 101.06 162.305 101.313 162.305 101.617C162.305 101.999 162.434 102.292 162.693 102.494C162.951 102.697 163.306 102.798 163.755 102.798C164.115 102.798 164.43 102.713 164.7 102.545C164.97 102.376 165.24 102.157 165.51 101.887L165.931 101.668C166.179 101.488 166.376 101.24 166.522 100.925C166.679 100.599 166.82 100.189 166.944 99.6939H169.423C169.187 100.515 168.878 101.24 168.496 101.87C168.124 102.489 167.686 102.967 167.18 103.304L166.809 103.523C166.471 103.804 166.111 104.069 165.729 104.316C165.347 104.563 164.908 104.766 164.413 104.923C163.93 105.069 163.356 105.143 162.693 105.143ZM180.269 105.126C179.246 105.126 178.341 104.929 177.554 104.535C176.778 104.13 176.165 103.568 175.715 102.848C175.276 102.117 175.057 101.268 175.057 100.301C175.057 99.2778 175.198 98.3613 175.479 97.5516C175.771 96.7306 176.187 96.0334 176.727 95.4598C177.267 94.8751 177.925 94.4308 178.701 94.1272C179.477 93.8123 180.354 93.6549 181.332 93.6549C182.254 93.6549 183.07 93.8123 183.778 94.1272C184.498 94.4421 185.077 94.8976 185.516 95.4936C185.966 96.0784 186.241 96.7869 186.342 97.6191L182.631 98.3444C182.654 97.7821 182.558 97.3548 182.344 97.0624C182.142 96.7588 181.793 96.6069 181.299 96.6069C180.882 96.6069 180.523 96.7363 180.219 96.9949C179.926 97.2536 179.685 97.5853 179.494 97.9902C179.302 98.3838 179.162 98.8055 179.072 99.2553C178.993 99.7052 178.954 100.127 178.954 100.521C178.954 100.858 179.004 101.15 179.106 101.398C179.218 101.645 179.387 101.836 179.612 101.971C179.837 102.106 180.135 102.174 180.506 102.174C180.967 102.174 181.327 102.027 181.585 101.735C181.855 101.443 182.08 101.066 182.26 100.605L185.718 101.87C185.223 102.893 184.526 103.692 183.626 104.265C182.738 104.839 181.619 105.126 180.269 105.126ZM191.866 105.126C190.877 105.126 189.988 104.935 189.201 104.552C188.414 104.159 187.795 103.596 187.346 102.865C186.896 102.123 186.671 101.24 186.671 100.217C186.671 99.2497 186.811 98.3669 187.093 97.5685C187.374 96.7588 187.779 96.0615 188.307 95.4767C188.847 94.8919 189.499 94.4421 190.264 94.1272C191.04 93.8123 191.911 93.6549 192.879 93.6549C193.879 93.6549 194.768 93.8517 195.544 94.2453C196.331 94.6276 196.95 95.1843 197.399 95.9153C197.849 96.6463 198.074 97.5291 198.074 98.5637C198.074 99.5309 197.934 100.419 197.653 101.229C197.371 102.027 196.961 102.719 196.421 103.304C195.893 103.889 195.24 104.339 194.464 104.653C193.7 104.968 192.834 105.126 191.866 105.126ZM191.934 102.174C192.316 102.174 192.642 102.05 192.912 101.803C193.193 101.544 193.424 101.212 193.604 100.807C193.795 100.402 193.936 99.9695 194.026 99.5084C194.116 99.0361 194.161 98.5918 194.161 98.1757C194.161 97.8271 194.11 97.5403 194.009 97.3154C193.919 97.0793 193.773 96.9049 193.57 96.7925C193.379 96.6688 193.126 96.6069 192.811 96.6069C192.429 96.6069 192.097 96.7363 191.816 96.9949C191.546 97.2423 191.315 97.5685 191.124 97.9733C190.944 98.3782 190.809 98.8168 190.719 99.2891C190.629 99.7502 190.584 100.189 190.584 100.605C190.584 100.942 190.629 101.229 190.719 101.465C190.821 101.701 190.972 101.881 191.175 102.005C191.377 102.117 191.63 102.174 191.934 102.174ZM198.034 104.957L200.615 93.8236H205.422L205.777 98.2095L205.861 101.06H205.878L207.227 98.1926L209.454 93.8236H214.92L212.339 104.957H208.914L209.808 101.094L210.618 97.5853H210.584L206.688 104.957H203.736L203.027 97.7034H202.993L202.352 101.094L201.458 104.957H198.034ZM214.03 104.957L216.611 93.8236H221.418L221.773 98.2095L221.857 101.06H221.874L223.223 98.1926L225.45 93.8236H230.915L228.335 104.957H224.91L225.804 101.094L226.614 97.5853H226.58L222.683 104.957H219.731L219.023 97.7034H218.989L218.348 101.094L217.454 104.957H214.03ZM230.025 104.957L232.606 93.8236H241.952L241.277 96.7081H235.862L235.542 98.0914H239.826L239.219 100.757H234.934L234.631 102.072H240.147L239.472 104.957H230.025ZM240.585 104.957L243.166 93.8236H248.699C249.936 93.8236 250.914 94.1103 251.634 94.6839C252.354 95.2574 252.714 96.0615 252.714 97.0961C252.714 98.0183 252.494 98.7886 252.056 99.4072C251.629 100.014 251.032 100.47 250.268 100.774C249.514 101.077 248.643 101.229 247.653 101.229L247.164 101.398H245.022L245.612 98.8168H247.282C247.608 98.8168 247.889 98.7661 248.125 98.6649C248.362 98.5637 248.547 98.4175 248.682 98.2263C248.817 98.0352 248.884 97.8159 248.884 97.5685C248.884 97.2198 248.766 96.978 248.53 96.8431C248.305 96.6969 248.03 96.6238 247.704 96.6238H246.354L244.431 104.957H240.585ZM247.855 104.957L246.084 100.082L249.542 99.5084L251.752 104.957H247.855ZM258.42 105.126C257.397 105.126 256.491 104.929 255.704 104.535C254.928 104.13 254.315 103.568 253.865 102.848C253.427 102.117 253.207 101.268 253.207 100.301C253.207 99.2778 253.348 98.3613 253.629 97.5516C253.922 96.7306 254.338 96.0334 254.877 95.4598C255.417 94.8751 256.075 94.4308 256.851 94.1272C257.627 93.8123 258.504 93.6549 259.483 93.6549C260.405 93.6549 261.22 93.8123 261.929 94.1272C262.648 94.4421 263.228 94.8976 263.666 95.4936C264.116 96.0784 264.391 96.7869 264.493 97.6191L260.782 98.3444C260.804 97.7821 260.708 97.3548 260.495 97.0624C260.292 96.7588 259.944 96.6069 259.449 96.6069C259.033 96.6069 258.673 96.7363 258.369 96.9949C258.077 97.2536 257.835 97.5853 257.644 97.9902C257.453 98.3838 257.312 98.8055 257.222 99.2553C257.143 99.7052 257.104 100.127 257.104 100.521C257.104 100.858 257.155 101.15 257.256 101.398C257.368 101.645 257.537 101.836 257.762 101.971C257.987 102.106 258.285 102.174 258.656 102.174C259.117 102.174 259.477 102.027 259.736 101.735C260.006 101.443 260.23 101.066 260.41 100.605L263.869 101.87C263.374 102.893 262.676 103.692 261.777 104.265C260.888 104.839 259.769 105.126 258.42 105.126ZM270.637 93.8236L268.056 104.957H264.126L266.707 93.8236H270.637ZM268.731 104.957L274.956 93.8236H279.679L280.691 104.957H276.997L276.946 102.73H273.842L272.746 104.957H268.731ZM275.057 100.284H276.879L276.828 96.5732L275.057 100.284ZM285.979 102.072H291.191L290.516 104.957H281.373L283.954 93.8236H287.885L285.979 102.072ZM295.623 104.957L298.204 93.8236H303.012C304.485 93.8236 305.632 94.1328 306.453 94.7514C307.285 95.3586 307.701 96.2302 307.701 97.366C307.701 98.2207 307.499 98.9798 307.094 99.6433C306.689 100.296 306.104 100.807 305.34 101.178C304.586 101.55 303.675 101.735 302.607 101.735H298.423L299.047 98.9517H302.269C302.607 98.9517 302.888 98.8955 303.113 98.783C303.349 98.6593 303.529 98.5019 303.653 98.3107C303.776 98.1083 303.838 97.889 303.838 97.6528C303.838 97.3267 303.743 97.0736 303.551 96.8937C303.36 96.7025 303.023 96.6069 302.539 96.6069H301.477L299.553 104.957H295.623ZM307.435 104.957L310.016 93.8236H315.549C316.786 93.8236 317.764 94.1103 318.484 94.6839C319.203 95.2574 319.563 96.0615 319.563 97.0961C319.563 98.0183 319.344 98.7886 318.905 99.4072C318.478 100.014 317.882 100.47 317.117 100.774C316.364 101.077 315.492 101.229 314.503 101.229L314.013 101.398H311.871L312.461 98.8168H314.132C314.458 98.8168 314.739 98.7661 314.975 98.6649C315.211 98.5637 315.397 98.4175 315.532 98.2263C315.667 98.0352 315.734 97.8159 315.734 97.5685C315.734 97.2198 315.616 96.978 315.38 96.8431C315.155 96.6969 314.879 96.6238 314.553 96.6238H313.204L311.281 104.957H307.435ZM314.705 104.957L312.934 100.082L316.392 99.5084L318.602 104.957H314.705ZM325.823 93.8236L323.242 104.957H319.312L321.893 93.8236H325.823ZM324.929 104.957L327.51 93.8236H331.593L333.094 99.0698L333.482 100.639H333.516L334.039 97.9564L335 93.8236H338.408L335.827 104.957H331.795L330.226 99.8964L329.805 98.3107H329.771L329.298 100.824L328.337 104.957H324.929ZM350.487 93.8236L349.813 96.7081H346.338L344.431 104.957H340.501L342.407 96.7081H338.915L339.59 93.8236H350.487ZM355.591 93.8236L353.01 104.957H349.08L351.661 93.8236H355.591ZM354.697 104.957L357.278 93.8236H361.36L362.862 99.0698L363.25 100.639H363.283L363.806 97.9564L364.768 93.8236H368.175L365.594 104.957H361.563L359.994 99.8964L359.572 98.3107H359.538L359.066 100.824L358.105 104.957H354.697ZM372.613 105.126C371.759 105.126 370.994 104.929 370.319 104.535C369.645 104.142 369.11 103.585 368.717 102.865C368.323 102.134 368.126 101.268 368.126 100.267C368.126 99.3453 368.267 98.485 368.548 97.6865C368.829 96.8881 369.24 96.1852 369.779 95.5779C370.319 94.9706 370.983 94.4983 371.77 94.1609C372.557 93.8236 373.457 93.6549 374.469 93.6549C375.391 93.6549 376.207 93.8123 376.915 94.1272C377.624 94.4308 378.191 94.8694 378.619 95.443C379.057 96.0165 379.31 96.6913 379.378 97.4672L375.734 98.007C375.734 97.6134 375.627 97.2817 375.414 97.0118C375.211 96.7419 374.88 96.6069 374.418 96.6069C374.092 96.6069 373.783 96.6913 373.491 96.86C373.209 97.0174 372.956 97.2479 372.732 97.5516C372.518 97.844 372.349 98.1982 372.225 98.6143C372.102 99.0304 372.04 99.4915 372.04 99.9976C372.04 100.459 372.102 100.864 372.225 101.212C372.349 101.561 372.552 101.831 372.833 102.022C373.114 102.213 373.491 102.309 373.963 102.309C374.255 102.309 374.508 102.269 374.722 102.191C374.936 102.112 375.116 102.005 375.262 101.87C375.408 101.724 375.521 101.566 375.599 101.398L375.734 101.111H373.609L374.149 98.7493H379.31L377.725 104.957H375.228L375.869 102.072L376.19 102.41C375.998 102.995 375.745 103.489 375.431 103.894C375.127 104.299 374.745 104.608 374.283 104.822C373.822 105.025 373.266 105.126 372.613 105.126Z" fill="white"/>
<path d="M1.61108 106.566H381.02L379.408 108.561H0L1.61108 106.566Z" fill="white"/>
</svg>
