<svg width="276" height="56" viewBox="0 0 276 56" fill="none" xmlns="http://www.w3.org/2000/svg">
<path d="M144.611 17.7683C144.611 13.4179 143.345 9.30715 140.262 6.22238C136.545 2.50649 130.061 0.29248 119.86 0.29248H98.2719L97.7392 2.27682L112.96 15.7906H119.148C121.759 15.7906 123.576 16.3441 124.604 17.3717C125.395 18.1632 125.79 19.1909 125.79 20.2979C125.79 23.7775 122.548 26.6243 116.381 26.6243H112.462L86.6641 43.5173L83.4067 55.6444H101.91L106.18 39.8291H110.766L116.934 55.6444H136.862L129.19 37.2202C140.104 33.8199 144.611 26.3864 144.611 17.7683Z" fill="#0B0A93"/>
<path d="M99.5879 6.25163C95.468 2.13175 89.2092 0.151123 78.9888 0.151123H60.3704L56.3914 14.9666H74.8691H78.355C80.4149 14.9666 82.6333 15.442 83.9008 16.7096C84.7724 17.5812 85.2476 18.7696 85.2476 19.9579C85.2476 24.1569 81.9993 27.3261 74.9481 27.3261H72.7542H71.6205H53.0721L45.4758 55.6102H64.0149L68.0555 40.557H75.899C93.4874 40.557 103.945 31.2875 103.945 17.4228C103.945 13.0651 102.519 9.183 99.5879 6.25163Z" fill="#0B0A93"/>
<path d="M57.2058 0.29248H36.792L0.0473633 32.7974L2.16721 46.1448H27.0563L24.5439 55.6449H42.3665L48.4113 33.0973L30.5244 33.3744L30.5108 33.4255H18.5767L57.2058 0.29248Z" fill="#ED2424"/>
<path d="M154.41 0L139.564 55.2804H158.044L172.89 0H154.41Z" fill="#0B0A93"/>
<path d="M216.404 0.254547L212.185 15.9112H237.017L226.342 55.6065H244.845L255.52 15.9112H271.81L276 0.254547H216.404Z" fill="#0B0A93"/>
<path d="M211.517 19.3234L209.182 26.5766L196.61 0.165375H179.293L164.426 55.5173H182.773L190.204 27.9991L203.332 55.5173H219.78L229.066 19.3043L211.517 19.3234Z" fill="#0B0A93"/>
</svg>
