<svg width="442" height="90" viewBox="0 0 442 90" fill="none" xmlns="http://www.w3.org/2000/svg">
<path d="M232.007 28.4523C232.007 21.4992 229.984 14.9292 225.057 9.99896C219.115 4.06003 208.753 0.521484 192.449 0.521484H157.946L157.094 3.69296L181.421 25.2913H191.311C195.484 25.2913 198.388 26.1759 200.031 27.8185C201.296 29.0834 201.927 30.7259 201.927 32.4952C201.927 38.0565 196.746 42.6064 186.888 42.6064H180.625L139.394 69.6057L134.187 88.9878H163.761L170.584 63.711H177.915L187.773 88.9878H219.622L207.361 59.5413C224.803 54.1067 232.007 42.2262 232.007 28.4523Z" fill="white"/>
<path d="M160.049 10.046C153.464 3.46144 143.461 0.295898 127.127 0.295898H97.3696L91.0102 23.9748H120.542H126.114C129.406 23.9748 132.951 24.7345 134.977 26.7606C136.37 28.1536 137.13 30.0529 137.13 31.9521C137.13 38.6632 131.938 43.7283 120.668 43.7283H117.162H115.35H85.705L73.5642 88.9335H103.194L109.652 64.8746H122.188C150.299 64.8746 167.013 50.0597 167.013 27.9003C167.013 20.9357 164.734 14.7311 160.049 10.046Z" fill="white"/>
<path d="M92.3117 0.521484H59.6854L0.958191 52.4726L4.34624 73.805H44.1252L40.1098 88.9886H68.5949L78.256 52.9518L49.6682 53.3947L49.6464 53.4764H30.5727L92.3117 0.521484Z" fill="white"/>
<path d="M247.669 0.0527344L223.942 88.4047H253.477L277.204 0.0527344H247.669Z" fill="white"/>
<path d="M346.751 0.460938L340.007 25.4843H379.695L362.634 88.9273H392.207L409.268 25.4843H435.303L442 0.460938H346.751Z" fill="white"/>
<path d="M338.939 30.9357L335.208 42.5281L315.115 0.316406H287.438L263.676 88.7827H292.999L304.877 44.8017L325.857 88.7827H352.145L366.987 30.9052L338.939 30.9357Z" fill="white"/>
</svg>
