<svg width="27" height="28" viewBox="0 0 27 28" fill="none" xmlns="http://www.w3.org/2000/svg">
<g clip-path="url(#clip0_3851_541)">
<path d="M22.2871 26.6681C16.666 27.2678 10.9969 27.2678 5.37575 26.6681C4.28417 26.5528 3.26508 26.0668 2.48838 25.2912C1.71168 24.5156 1.2243 23.4972 1.1075 22.4058C0.507788 16.7846 0.507788 11.1156 1.1075 5.4944C1.22277 4.40282 1.70872 3.38373 2.48433 2.60703C3.25994 1.83033 4.27835 1.34295 5.36976 1.22615C10.9909 0.62644 16.66 0.62644 22.2811 1.22615C23.3727 1.34142 24.3918 1.82737 25.1685 2.60298C25.9452 3.37859 26.4326 4.397 26.5494 5.48842C27.1491 11.1096 27.1491 16.7786 26.5494 22.3998C26.4341 23.4914 25.9482 24.5105 25.1726 25.2872C24.397 26.0639 23.3785 26.5512 22.2871 26.6681Z" fill="#F23434"/>
<path d="M22.0515 7.67969H6.02866C5.08465 7.67969 4.32007 8.44901 4.32007 9.38828V19.6398C4.32007 20.5847 5.09026 21.3484 6.02866 21.3484H22.0515C22.9876 21.3484 23.7601 20.5879 23.7601 19.6398V9.38828C23.7601 8.45068 22.9985 7.67969 22.0515 7.67969ZM21.8122 8.81875L15.2482 15.3481C14.9255 15.6709 14.4965 15.8486 14.0401 15.8486C13.5837 15.8486 13.1546 15.6708 12.8308 15.3471L6.26794 8.81875H21.8122ZM5.45913 19.408V9.62084L10.3813 14.5171L5.45913 19.408ZM6.26866 20.2094L11.1889 15.3204L12.0265 16.1536C12.5643 16.6914 13.2794 16.9876 14.0401 16.9876C14.8007 16.9876 15.5158 16.6914 16.0526 16.1546L16.8912 15.3204L21.8115 20.2094H6.26866ZM22.621 19.408L17.6988 14.5171L22.621 9.62084V19.408Z" fill="white"/>
</g>
<defs>
<clipPath id="clip0_3851_541">
<rect width="27" height="27" fill="white" transform="translate(0 0.120117)"/>
</clipPath>
</defs>
</svg>
