<svg width="27" height="28" viewBox="0 0 27 28" fill="none" xmlns="http://www.w3.org/2000/svg">
<g clip-path="url(#clip0_3851_545)">
<path d="M22.2871 26.7882C16.666 27.3879 10.9969 27.3879 5.37575 26.7882C4.28417 26.6729 3.26508 26.1869 2.48838 25.4113C1.71168 24.6357 1.2243 23.6173 1.1075 22.5259C0.507788 16.9047 0.507788 11.2357 1.1075 5.61452C1.22277 4.52294 1.70872 3.50385 2.48433 2.72715C3.25994 1.95045 4.27835 1.46307 5.36976 1.34627C10.9909 0.746557 16.66 0.746557 22.2811 1.34627C23.3727 1.46154 24.3918 1.94749 25.1685 2.7231C25.9452 3.49871 26.4326 4.51711 26.5494 5.60853C27.1491 11.2297 27.1491 16.8987 26.5494 22.5199C26.4341 23.6115 25.9482 24.6306 25.1726 25.4073C24.397 26.184 23.3785 26.6714 22.2871 26.7882Z" fill="#F23434"/>
<path d="M20.2148 12.777C20.2148 13.6235 19.8231 14.7194 19.1646 15.9366C18.5147 17.138 17.6416 18.3921 16.7585 19.5367C15.877 20.6793 14.9942 21.7019 14.331 22.4394C14.0463 22.7561 13.8025 23.0197 13.6174 23.217C13.4322 23.0197 13.1884 22.7561 12.9037 22.4394C12.2406 21.7019 11.3577 20.6793 10.4762 19.5367C9.59317 18.3921 8.72007 17.138 8.07015 15.9366C7.41167 14.7194 7.01998 13.6235 7.01998 12.777C7.01998 9.1334 9.97373 6.17965 13.6174 6.17965C17.261 6.17965 20.2148 9.1334 20.2148 12.777Z" stroke="#D9D9D9" stroke-width="1.08"/>
<circle cx="13.5" cy="12.66" r="2.25" stroke="#D9D9D9" stroke-width="0.9"/>
</g>
<defs>
<clipPath id="clip0_3851_545">
<rect width="27" height="27" fill="white" transform="translate(0 0.240234)"/>
</clipPath>
</defs>
</svg>
