<svg width="27" height="27" viewBox="0 0 27 27" fill="none" xmlns="http://www.w3.org/2000/svg">
<g clip-path="url(#clip0_3851_536)">
<path d="M22.2871 26.5479C16.666 27.1476 10.9969 27.1476 5.37575 26.5479C4.28417 26.4327 3.26508 25.9467 2.48838 25.1711C1.71168 24.3955 1.2243 23.3771 1.1075 22.2857C0.507788 16.6645 0.507788 10.9955 1.1075 5.37428C1.22277 4.2827 1.70872 3.26362 2.48433 2.48691C3.25994 1.71021 4.27835 1.22284 5.36976 1.10603C10.9909 0.506323 16.66 0.506323 22.2811 1.10603C23.3727 1.2213 24.3918 1.70725 25.1685 2.48286C25.9452 3.25847 26.4326 4.27688 26.5494 5.3683C27.1491 10.9895 27.1491 16.6585 26.5494 22.2797C26.4341 23.3713 25.9482 24.3903 25.1726 25.167C24.397 25.9438 23.3785 26.4311 22.2871 26.5479Z" fill="#F23434"/>
<path d="M19.6999 4.31934H12.4765C10.8801 4.31934 9.58716 5.61232 9.58716 7.20869V10.8204C9.58716 11.2177 9.91221 11.5427 10.3095 11.5427C10.7068 11.5427 11.0318 11.2177 11.0318 10.8204V7.20869C11.0318 6.41412 11.6819 5.76401 12.4765 5.76401V6.48635C12.4765 7.67821 13.4517 8.65336 14.6435 8.65336H17.5329C18.7247 8.65336 19.6999 7.67821 19.6999 6.48635V5.76401C20.4945 5.76401 21.1446 6.41412 21.1446 7.20869V21.6554C21.1446 22.45 20.4945 23.1001 19.6999 23.1001H18.9775C18.5803 23.1001 18.2552 23.4252 18.2552 23.8225C18.2552 24.2197 18.5803 24.5448 18.9775 24.5448H19.6999C21.2963 24.5448 22.5892 23.2518 22.5892 21.6554V7.20869C22.5892 5.61232 21.2963 4.31934 19.6999 4.31934ZM18.2552 6.48635C18.2552 6.88363 17.9302 7.20869 17.5329 7.20869H14.6435C14.2462 7.20869 13.9212 6.88363 13.9212 6.48635V5.76401H18.2552V6.48635Z" fill="white"/>
<path d="M15.662 18.7658C15.0985 18.2024 14.1812 18.2024 13.6177 18.7658L13.1916 19.192L10.5984 16.5988L11.0246 16.1726C11.588 15.6092 11.588 14.6918 11.0246 14.1284L9.1537 12.2575C8.59027 11.6941 7.6729 11.6941 7.10948 12.2575L6.30046 13.0665C5.62147 13.7455 5.24585 14.6557 5.24585 15.6236V16.122C5.24585 17.09 5.62147 17.9929 6.30046 18.6791L11.1112 23.4899C11.7902 24.1689 12.7004 24.5445 13.6683 24.5445H14.1667C15.1347 24.5445 16.0376 24.1689 16.7238 23.4899L17.5328 22.6809C18.0962 22.1174 18.0962 21.2001 17.5328 20.6366L15.662 18.7658ZM15.6981 22.4642C15.2936 22.8687 14.7374 23.0998 14.1667 23.0998H13.6683C13.0977 23.0998 12.5415 22.8687 12.137 22.4642L7.32618 17.6534C6.92167 17.2489 6.69052 16.6927 6.69052 16.122V15.6236C6.69052 15.053 6.92167 14.4968 7.32618 14.0923L8.1352 13.2832L10.0061 15.1541L9.07424 16.0859C9.00728 16.1527 8.95415 16.2321 8.9179 16.3195C8.88165 16.4069 8.863 16.5006 8.863 16.5952C8.863 16.6898 8.88165 16.7834 8.9179 16.8708C8.95415 16.9582 9.00728 17.0376 9.07424 17.1044L12.6859 20.7161C12.9676 20.9978 13.4227 20.9978 13.7044 20.7161L14.6362 19.7843L16.5071 21.6551L15.6981 22.4642Z" fill="white"/>
</g>
<defs>
<clipPath id="clip0_3851_536">
<rect width="27" height="27" fill="white"/>
</clipPath>
</defs>
</svg>
