<svg width="1200" height="827" viewBox="0 0 1200 827" fill="none" xmlns="http://www.w3.org/2000/svg">
<path fill-rule="evenodd" clip-rule="evenodd" d="M1180.69 610.115C1191.36 610.115 1200 601.471 1200 590.808V19.3068C1200 8.64396 1191.36 0 1180.69 0H557.744C551.535 0 545.705 2.98644 542.076 8.02545L495.019 73.38C494.292 74.3901 493.616 75.4315 492.994 76.5H20.1612C9.02647 76.5 -1.30349e-06 85.5265 0 96.6612L8.31368e-05 806.839C8.5497e-05 817.974 9.02655 827 20.1613 827H905.079C911.633 827 917.778 823.814 921.555 818.458L969.631 750.284C974.426 743.484 977 735.367 977 727.046L977 610.115H1180.69Z" fill="#121212"/>
</svg>
