<svg width="70" height="70" viewBox="0 0 70 70" fill="none" xmlns="http://www.w3.org/2000/svg">
<path d="M37.6654 12.5721C43.0059 7.2316 51.6909 7.2316 57.0312 12.5721C59.6084 15.1494 61.0268 18.5869 61.0268 22.2532C61.0268 25.9194 59.6084 29.3608 57.0312 31.9379C54.4539 34.5152 51.0164 35.9337 47.3463 35.9337C43.6763 35.9337 40.2426 34.5152 37.6653 31.9379C32.3249 26.5975 32.3249 17.9126 37.6653 12.5721H37.6654ZM33.1544 32.8758C33.1544 35.4957 34.0845 36.4257 36.7043 36.4257C39.8667 36.4257 42.5989 37.5573 44.8351 39.7935C46.6915 41.646 48.0014 41.646 49.8577 39.7935C52.0901 37.5573 54.8261 36.4257 57.9885 36.4257C60.6083 36.4257 61.5384 35.4956 61.5384 32.8758C61.5384 29.7135 62.674 26.9773 64.9101 24.745C66.7354 22.9119 66.7354 21.5517 64.9101 19.7224C62.6739 17.4862 61.5384 14.75 61.5384 11.5916C61.5384 10.2662 61.1741 8.04166 58.7287 8.04166C54.5122 8.04166 52.3147 7.13098 49.3345 4.14682C48.8035 3.61977 48.0983 3.3291 47.3463 3.3291C46.5944 3.3291 45.8892 3.61977 45.3582 4.14682C42.378 7.13098 40.1805 8.04166 35.964 8.04166C34.4138 8.04166 33.1543 9.30125 33.1543 10.8514C33.1543 14.1533 32.5807 16.9281 29.7865 19.7224L29.2594 20.2456C27.5348 21.9741 28.8486 23.8071 29.7865 24.745C32.0187 26.9773 33.1543 29.7134 33.1543 32.8758H33.1544Z" fill="#FC7F7F"/>
<path d="M52.4699 27.0898L53.7101 21.9199L51.3848 23.2957C51.2604 23.369 51.1227 23.4169 50.9798 23.4369C50.8368 23.4569 50.6913 23.4484 50.5516 23.4121C50.4117 23.3751 50.2804 23.3108 50.1654 23.223C50.0504 23.1352 49.9537 23.0256 49.8811 22.9005L47.3465 18.5134L44.8158 22.9005C44.6686 23.1523 44.4282 23.3384 44.1454 23.4121C43.8625 23.4858 43.5601 23.4431 43.3082 23.2957L40.9907 21.9199L42.2271 27.0898H52.47H52.4699ZM7.63831 51.5053C8.15757 51.203 8.82804 51.3813 9.13032 51.9044L11.041 55.2179C11.3433 55.7411 11.165 56.4116 10.6417 56.7139C10.4753 56.8092 10.2871 56.86 10.0953 56.8611C9.9036 56.8608 9.71535 56.8102 9.54939 56.7143C9.38342 56.6184 9.24556 56.4806 9.1496 56.3147L7.23513 53.0011C7.16306 52.8765 7.11631 52.7389 7.09756 52.5962C7.07882 52.4535 7.08845 52.3085 7.1259 52.1695C7.16335 52.0305 7.22788 51.9003 7.31579 51.7863C7.4037 51.6723 7.5134 51.5768 7.63831 51.5053ZM12.7346 66.4569C12.9323 66.798 13.6415 66.9026 14.2925 66.5266C15.5171 65.8173 16.2613 65.4687 16.9744 65.1275C17.6836 64.7942 18.3541 64.4765 19.5013 63.8138C19.8346 63.6201 20.0942 63.3333 20.2144 63.0232C20.2687 62.8914 20.3346 62.6357 20.2144 62.4302L18.8696 60.1049L12.0333 48.2885V48.2846L10.6923 45.9633C10.58 45.7734 10.3087 45.6532 9.97921 45.6532C9.71958 45.6532 9.42112 45.7269 9.13442 45.8934C7.9097 46.6027 7.16567 46.9515 6.44872 47.2925C5.73942 47.6258 5.07292 47.9435 3.92571 48.6024C3.59239 48.7961 3.32894 49.0868 3.20876 49.3968C3.15845 49.5286 3.08858 49.7843 3.20876 49.9898L12.7348 66.4567L12.7346 66.4569Z" fill="#FC7F7F"/>
<path d="M39.2117 14.1185C41.4557 11.8745 44.401 10.7546 47.3464 10.7546C50.2917 10.7546 53.241 11.8746 55.4849 14.1185C57.6474 16.2809 58.8411 19.1721 58.8411 22.2532C58.8411 25.3343 57.6474 28.2292 55.4849 30.3917C50.9972 34.8756 43.6995 34.8756 39.2117 30.3917C34.7278 25.9039 34.7278 18.6062 39.2117 14.1185ZM47.3464 35.9336C51.0164 35.9336 54.454 34.5151 57.0312 31.9378C59.6084 29.3607 61.0268 25.923 61.0268 22.2531C61.0268 18.5831 59.6084 15.1493 57.0312 12.572C51.6907 7.23152 43.0058 7.23152 37.6654 12.572C32.3251 17.9125 32.3251 26.5975 37.6654 31.9378C40.2427 34.5151 43.6802 35.9336 47.3465 35.9336H47.3464Z" fill="#3149BC"/>
<path d="M29.2595 20.2457L29.7866 19.7225C32.5809 16.9282 33.1544 14.1534 33.1544 10.8515C33.1544 9.30138 34.414 8.04179 35.9641 8.04179C40.1806 8.04179 42.3781 7.1311 45.3583 4.14694C45.8893 3.61989 46.5945 3.32923 47.3465 3.32923C48.0984 3.32923 48.8036 3.61989 49.3346 4.14694C52.3148 7.1311 54.5123 8.04179 58.7289 8.04179C61.1742 8.04179 61.5386 10.2663 61.5386 11.5917C61.5386 14.7503 62.6742 17.4863 64.9102 19.7225C66.7355 21.5516 66.7355 22.912 64.9102 24.7451C62.674 26.9775 61.5386 29.7135 61.5386 32.8759C61.5386 35.4959 60.6085 36.4258 57.9887 36.4258C54.8262 36.4258 52.0902 37.5575 49.8579 39.7936C48.0015 41.6462 46.6916 41.6462 44.8352 39.7936C42.5991 37.5575 39.8669 36.4258 36.7044 36.4258C34.0846 36.4258 33.1545 35.4957 33.1545 32.8759C33.1545 29.7136 32.0189 26.9775 29.7867 24.7451C28.8488 23.8072 27.5351 21.9741 29.2597 20.2457H29.2595ZM28.2403 26.2914C30.0502 28.1013 30.9647 30.3181 30.9647 32.8759C30.9647 36.6816 32.8986 38.6117 36.7043 38.6117C39.2622 38.6117 41.4789 39.5302 43.2888 41.34C44.6336 42.6848 45.9939 43.3592 47.3465 43.3592C48.699 43.3592 50.0594 42.685 51.4042 41.34C53.214 39.5302 55.4308 38.6117 57.9887 38.6117C61.7944 38.6117 63.7283 36.6816 63.7283 32.8759C63.7283 30.3182 64.6429 28.1013 66.4566 26.2914C69.1461 23.5979 69.1461 20.8697 66.4566 18.1762C64.6429 16.3663 63.7283 14.1496 63.7283 11.5917C63.7283 8.05341 61.81 5.8521 58.7289 5.8521C55.1207 5.8521 53.431 5.15442 50.8809 2.60052C49.9392 1.6588 48.6835 1.1394 47.3465 1.1394C46.0095 1.1394 44.7576 1.65866 43.812 2.60052C41.262 5.15442 39.5722 5.8521 35.9641 5.8521C33.2087 5.8521 30.9647 8.09607 30.9647 10.8515C30.9647 14.1999 30.2283 16.188 28.2403 18.1762L27.7133 18.6994C26.5468 19.8699 26.0468 21.2688 26.2755 22.7493C26.4616 23.9661 27.1396 25.1908 28.2403 26.2914Z" fill="#3149BC"/>
<path d="M3.20845 49.3972C3.32862 49.0872 3.59208 48.7965 3.9254 48.6028C5.07261 47.9439 5.73911 47.6261 6.44841 47.2929C7.16536 46.9518 7.90952 46.603 9.13411 45.8938C9.42095 45.7272 9.71927 45.6536 9.9789 45.6536C10.3083 45.6536 10.5796 45.7738 10.692 45.9637L12.033 48.285V48.2889L18.8693 60.1053L20.2141 62.4306C20.3342 62.636 20.2683 62.8918 20.2141 63.0236C20.0939 63.3337 19.8343 63.6204 19.5009 63.8142C18.3537 64.4769 17.6833 64.7946 16.9741 65.128C16.261 65.4691 15.517 65.8177 14.2922 66.527C13.6412 66.903 12.9319 66.7983 12.7343 66.4573L3.20845 49.9902C3.08827 49.7848 3.15814 49.529 3.20845 49.3972ZM24.5662 42.3051C25.2483 41.9137 26.2481 41.8129 27.0001 42.0609C27.0195 42.0687 27.0428 42.0725 27.062 42.0803L41.7269 45.9984C42.3353 46.1611 42.8469 46.5525 43.1646 47.103C43.4824 47.6533 43.5677 48.2927 43.405 48.8974C43.0756 50.1298 41.8315 50.8351 40.5681 50.5096L29.5306 47.5953C28.9493 47.4403 28.3486 47.789 28.1935 48.3704C28.0385 48.9555 28.3873 49.5563 28.9725 49.7073L39.9984 52.6216H40.0022L41.7578 53.0867C43.0793 53.4355 43.8273 53.1797 45.5403 52.1875L61.1663 43.1537C62.5265 42.367 64.2744 42.836 65.0611 44.1962C65.4409 44.8512 65.5417 45.6185 65.344 46.3587C65.1463 47.095 64.6775 47.7112 64.0224 48.091L42.7188 60.4073C41.7925 60.946 40.7152 61.0894 39.6882 60.8142L25.0659 56.9078L25.0195 56.8961C23.8064 56.6249 22.9113 56.5087 21.5741 57.2759L20.2178 58.0626L14.4743 48.1375L24.5661 42.305L24.5662 42.3051ZM10.8393 67.5499C11.3663 68.4608 12.3661 68.9529 13.4513 68.9529C14.0947 68.9529 14.7651 68.7785 15.3852 68.4219C16.5322 67.7593 17.2027 67.4415 17.912 67.1082C18.629 66.7672 19.3691 66.4185 20.5939 65.7092C21.3651 65.2635 21.9541 64.593 22.2525 63.8141C22.5819 62.9654 22.5316 62.0625 22.1091 61.3337L21.3108 59.9579L22.671 59.1713C23.3066 58.8031 23.5547 58.8109 24.5236 59.0279L39.1225 62.9267C39.6431 63.0679 40.18 63.1395 40.7193 63.1398C41.7928 63.1398 42.8585 62.8569 43.8158 62.3027L65.1155 49.9864C66.2782 49.3119 67.1075 48.2269 67.4563 46.9209C67.805 45.6187 67.6268 44.2624 66.9563 43.0997C65.5649 40.6969 62.4762 39.8714 60.0735 41.2588L45.4396 49.7229C45.4707 49.6376 45.4939 49.5524 45.5172 49.4633C45.8311 48.2928 45.6684 47.0643 45.056 46.0102C44.4476 44.9521 43.4632 44.2003 42.2928 43.8864L27.6551 39.976C26.318 39.5419 24.6788 39.7124 23.4734 40.41L13.3817 46.2464L12.5834 44.8706C11.7502 43.4251 9.70778 43.0337 8.03749 43.9986C6.89028 44.6613 6.22378 44.9792 5.51448 45.3124C4.79753 45.6535 4.05337 46.0022 2.83261 46.7114C2.06138 47.1571 1.47226 47.8276 1.16997 48.6065C0.840616 49.4552 0.894757 50.3581 1.31339 51.0868L10.8393 67.5499ZM43.3082 23.2957C43.561 23.4434 43.8619 23.4852 44.1453 23.4121C44.2852 23.3751 44.4165 23.3108 44.5315 23.223C44.6466 23.1353 44.7432 23.0256 44.8158 22.9005L47.3465 18.5134L49.8811 22.9005C50.0283 23.1523 50.2687 23.3384 50.5515 23.4121C50.8344 23.4858 51.1367 23.4431 51.3847 23.2957L53.71 21.9199L52.4698 27.0898H42.2269L40.9905 21.9199L43.3081 23.2957H43.3082ZM41.3666 29.2795H53.3302C53.8379 29.2795 54.2759 28.9307 54.3959 28.4385L56.4382 19.9125C56.4874 19.7034 56.4743 19.4845 56.4007 19.2828C56.327 19.081 56.1959 18.9052 56.0236 18.777C55.8499 18.6499 55.6427 18.5767 55.4277 18.5663C55.2128 18.556 54.9995 18.6091 54.8144 18.7189L51.2219 20.8504L48.2958 15.7774C48.199 15.6114 48.0604 15.4737 47.8938 15.3778C47.7272 15.282 47.5385 15.2313 47.3463 15.231C47.1547 15.2314 46.9665 15.282 46.8005 15.3779C46.6346 15.4738 46.4967 15.6116 46.4006 15.7774L43.4746 20.8504L39.882 18.7189C39.506 18.4942 39.0294 18.5174 38.6729 18.777C38.5006 18.9053 38.3695 19.081 38.2959 19.2828C38.2222 19.4845 38.2091 19.7034 38.2582 19.9125L40.3005 28.4385C40.4207 28.9307 40.8586 29.2795 41.3662 29.2795H41.3666Z" fill="#3149BC"/>
<path d="M9.14958 56.3149C9.24555 56.4809 9.38341 56.6187 9.54937 56.7146C9.71534 56.8105 9.90359 56.8611 10.0953 56.8614C10.2871 56.8602 10.4753 56.8095 10.6417 56.7141C11.165 56.4119 11.3432 55.7414 11.041 55.2182L9.13031 51.9046C8.82802 51.3814 8.15755 51.2033 7.6383 51.5056C7.51338 51.5771 7.40382 51.6726 7.31591 51.7866C7.228 51.9005 7.16347 52.0308 7.12602 52.1698C7.08857 52.3087 7.07894 52.4538 7.09769 52.5965C7.11643 52.7392 7.16318 52.8768 7.23525 53.0014L9.14958 56.3149Z" fill="#3149BC"/>
</svg>
