<svg width="70" height="70" viewBox="0 0 70 70" fill="none" xmlns="http://www.w3.org/2000/svg">
<g clip-path="url(#clip0_4231_1049)">
<path fill-rule="evenodd" clip-rule="evenodd" d="M50.8695 39.9445C53.891 34.3006 54.78 27.761 53.3746 21.5176C51.9692 15.2743 48.3629 9.74269 43.213 5.93103C38.0631 2.11936 31.7124 0.281367 25.3182 0.752004C18.9241 1.22264 12.9123 3.97058 8.37832 8.49502C3.85075 13.0216 1.10235 19.0203 0.633478 25.3992C0.164602 31.7781 2.00642 38.1129 5.82364 43.2505C9.64086 48.388 15.1796 51.9867 21.4317 53.3913C27.6837 54.7959 34.2333 53.9131 39.888 50.9036L40.2452 50.7129L56.7355 67.1705C58.1188 68.5513 59.995 69.327 61.9513 69.3271C63.9077 69.3272 65.784 68.5517 67.1674 67.1711C68.5508 65.7905 69.3281 63.9179 69.3282 61.9654C69.3283 60.0128 68.5512 58.1402 67.1679 56.7595L50.6773 40.301L50.8695 39.9445Z" fill="#FC7F7F"/>
<circle cx="27" cy="27" r="14" fill="white"/>
<path fill-rule="evenodd" clip-rule="evenodd" d="M27.2769 40.7078C24.6321 40.7078 22.0467 39.9251 19.8476 38.4586C17.6486 36.9921 15.9346 34.9077 14.9225 32.4689C13.9104 30.0302 13.6455 27.3467 14.1615 24.7578C14.6775 22.1689 15.9511 19.7908 17.8212 17.9243C19.6914 16.0578 22.0741 14.7866 24.6681 14.2717C27.2621 13.7567 29.9508 14.021 32.3943 15.0312C34.8377 16.0413 36.9262 17.7519 38.3956 19.9467C39.8649 22.1415 40.6492 24.7219 40.6492 27.3615C40.645 30.8999 39.2347 34.2921 36.7278 36.7941C34.221 39.2961 30.8221 40.7036 27.2769 40.7078ZM27.2769 10.7474C23.9844 10.7474 20.7658 11.7219 18.0282 13.5475C15.2906 15.3732 13.1569 17.9681 11.8969 21.004C10.6369 24.04 10.3073 27.3806 10.9496 30.6036C11.5919 33.8265 13.1774 36.787 15.5056 39.1106C17.8337 41.4343 20.8 43.0167 24.0292 43.6578C27.2584 44.2988 30.6056 43.9698 33.6475 42.7123C36.6894 41.4547 39.2893 39.3252 41.1185 36.5929C42.9477 33.8606 43.9241 30.6483 43.9241 27.3622C43.9191 22.9572 42.1636 18.7341 39.0427 15.6193C35.9218 12.5045 31.6905 10.7524 27.2769 10.7474ZM36.3736 22.7319C36.5064 22.563 36.6045 22.3697 36.6624 22.163C36.7203 21.9562 36.7368 21.7402 36.711 21.5271C36.6852 21.314 36.6177 21.108 36.5121 20.921C36.4066 20.734 36.2652 20.5695 36.096 20.437C35.9268 20.3046 35.7331 20.2066 35.526 20.1489C35.3189 20.0911 35.1024 20.0746 34.8889 20.1003C34.6754 20.126 34.469 20.1935 34.2816 20.2988C34.0942 20.4041 33.9295 20.5452 33.7967 20.7141L26.011 30.6212L20.557 25.7615C20.2317 25.483 19.8099 25.343 19.3822 25.3715C18.9545 25.3999 18.5551 25.5946 18.2697 25.9137C17.9842 26.2328 17.8355 26.6509 17.8555 27.0782C17.8755 27.5056 18.0625 27.908 18.3765 28.1992L25.1317 34.2187C25.4321 34.4856 25.8203 34.6332 26.2225 34.6332C26.2703 34.6332 26.319 34.6312 26.3668 34.6274C26.5897 34.6074 26.8061 34.5422 27.0028 34.4356C27.1994 34.329 27.3721 34.1833 27.5102 34.0076L36.3731 22.7313L36.3736 22.7319ZM65.2333 65.2445C64.361 66.1132 63.179 66.601 61.9467 66.601C60.7145 66.601 59.5325 66.1132 58.6602 65.2445L43.0007 49.6157C45.5453 47.8134 47.7673 45.5959 49.5732 43.0564L65.2327 58.6849C66.1 59.5569 66.5867 60.7358 66.5867 61.9646C66.5867 63.1933 66.1 64.3722 65.2327 65.2442L65.2333 65.2445ZM10.3022 44.3017C14.8038 48.7946 20.9092 51.3187 27.2755 51.3188C33.6417 51.3189 39.7472 48.7949 44.2489 44.3021C48.7506 39.8094 51.2796 33.7158 51.2797 27.3619C51.2798 21.0081 48.7509 14.9144 44.2494 10.4215C39.7478 5.92862 33.6424 3.40448 27.2761 3.40439C20.9099 3.4043 14.8044 5.92827 10.3027 10.4211C5.80104 14.9138 3.27198 21.0074 3.27189 27.3613C3.2718 33.7151 5.80069 39.8088 10.3022 44.3017ZM51.3449 40.2024C54.4282 34.4434 55.3357 27.7703 53.9017 21.3994C52.4678 15.0285 48.7881 9.38382 43.5331 5.49418C38.2781 1.60455 31.7977 -0.271121 25.273 0.209011C18.7483 0.689142 12.6136 3.49311 7.98705 8.1099C3.36692 12.7289 0.562347 18.8501 0.0839107 25.3593C-0.394526 31.8685 1.48499 38.3327 5.38029 43.5752C9.27559 48.8176 14.9276 52.4896 21.3074 53.9227C27.6872 55.3558 34.3706 54.4547 40.1407 51.3834L56.3446 67.5557C57.079 68.2956 57.9525 68.8835 58.9151 69.2855C59.8777 69.6875 60.9105 69.8957 61.9539 69.8983C62.9974 69.9008 64.0311 69.6975 64.9957 69.3002C65.9602 68.9028 66.8366 68.3192 67.5746 67.5828C68.3125 66.8465 68.8973 65.9719 69.2956 65.0092C69.6939 64.0466 69.8976 63.0149 69.8952 61.9735C69.8929 60.932 69.6843 59.9013 69.2817 58.9405C68.879 57.9797 68.2901 57.1078 67.5489 56.3748L51.3449 40.2024Z" fill="#3149BC"/>
</g>
<defs>
<clipPath id="clip0_4231_1049">
<rect width="70" height="70" fill="white"/>
</clipPath>
</defs>
</svg>
