<svg width="83" height="83" viewBox="0 0 83 83" fill="none" xmlns="http://www.w3.org/2000/svg">
<g clip-path="url(#clip0_4652_1740)">
<path d="M25.9939 26.1533L31.2711 21.0209L37.8351 27.4044L32.5579 32.5368L25.9939 26.1533Z" fill="#FC7F7F"/>
<path d="M33.9024 21.1753L26.1531 28.7118C25.5259 29.3218 24.5089 29.3218 23.8817 28.7118L20.6489 25.5678C20.0217 24.9579 20.0217 23.9687 20.6489 23.3587L28.3982 15.8222C29.0254 15.2123 30.0425 15.2123 30.6697 15.8222L33.9024 18.9662C34.5296 19.5762 34.5296 20.5654 33.9024 21.1753Z" fill="#FC7F7F"/>
<path d="M49.8193 13.5498H57.2825V22.5776H49.8193V13.5498Z" fill="#FC7F7F"/>
<path d="M53.5509 75.8881C69.1437 75.8881 81.7842 63.5948 81.7842 48.4301C81.7842 33.2655 69.1437 20.9722 53.5509 20.9722C37.9581 20.9722 25.3176 33.2655 25.3176 48.4301C25.3176 63.5948 37.9581 75.8881 53.5509 75.8881Z" fill="#FC7F7F"/>
<path d="M53.5509 69.5736C65.712 69.5736 75.5705 59.9858 75.5705 48.1586C75.5705 36.3315 65.712 26.7437 53.5509 26.7437C41.3898 26.7437 31.5312 36.3315 31.5312 48.1586C31.5312 59.9858 41.3898 69.5736 53.5509 69.5736Z" fill="white"/>
<path d="M59.0304 15.4679H48.0713C47.1842 15.4679 46.4651 14.7685 46.4651 13.9058V9.45953C46.4651 8.59683 47.1842 7.89746 48.0713 7.89746H59.0304C59.9174 7.89746 60.6365 8.59683 60.6365 9.45953V13.9058C60.6365 14.7685 59.9174 15.4679 59.0304 15.4679Z" fill="#FC7F7F"/>
<path d="M32.8727 23.188L36.2493 26.472M30.7768 31.4145L27.7126 28.4343M22.8531 21.8249L20.6489 23.9686C20.0217 24.5786 20.0217 25.5677 20.6489 26.1777L23.8817 29.3217C24.5089 29.9317 25.5259 29.9317 26.1531 29.3217L33.9024 21.7852C34.5296 21.1752 34.5296 20.1861 33.9024 19.5761L30.6697 16.4321C30.0425 15.8221 29.0254 15.8221 28.3982 16.4321L26.6166 18.1647M49.8193 20.9726V16.4753M57.2823 16.3235V20.9726M75.4023 45.7772C74.0584 35.2022 64.788 27.0157 53.5508 27.0157C41.3896 27.0157 31.5311 36.6034 31.5311 48.4306C31.5311 60.2578 41.3896 69.8456 53.5508 69.8456C64.8342 69.8456 74.1338 61.5912 75.4177 50.9531" stroke="#3149BC" stroke-width="2.43243" stroke-miterlimit="10" stroke-linecap="round" stroke-linejoin="round"/>
<path d="M35.6148 69.0267C40.4919 72.9328 46.7396 75.2787 53.5509 75.2787C69.1437 75.2787 81.7842 62.9854 81.7842 47.8208C81.7842 32.6561 69.1437 20.3628 53.5509 20.3628C37.9581 20.3628 25.3176 32.6561 25.3176 47.8208C25.3176 54.4972 27.7687 60.6164 31.8422 65.3758M53.5509 31.2621V32.9043M53.5509 62.738V64.3803M70.5776 47.8212H68.8889M38.2128 47.8212H36.5241" stroke="#3149BC" stroke-width="2.43243" stroke-miterlimit="10" stroke-linecap="round" stroke-linejoin="round"/>
<path d="M53.5509 50.399C55.015 50.399 56.2019 49.2447 56.2019 47.8209C56.2019 46.397 55.015 45.2427 53.5509 45.2427C52.0868 45.2427 50.8999 46.397 50.8999 47.8209C50.8999 49.2447 52.0868 50.399 53.5509 50.399Z" stroke="#3149BC" stroke-width="2.43243" stroke-miterlimit="10" stroke-linecap="round" stroke-linejoin="round"/>
<path d="M51.6763 49.6439L43.8861 57.2202M25.3174 47.8208H7.64475M27.2055 37.9282H1.21582M4.43029 42.8744H25.7754M10.8592 52.7679H25.7754M14.0737 57.7146H27.2055M17.2882 62.6613H29.4152M59.0304 15.4679H48.0713C47.1842 15.4679 46.4651 14.7685 46.4651 13.9058V9.45953C46.4651 8.59683 47.1842 7.89746 48.0713 7.89746H59.0304C59.9174 7.89746 60.6365 8.59683 60.6365 9.45953V13.9058C60.6365 14.7685 59.9174 15.4679 59.0304 15.4679Z" stroke="#3149BC" stroke-width="2.43243" stroke-miterlimit="10" stroke-linecap="round" stroke-linejoin="round"/>
</g>
<defs>
<clipPath id="clip0_4652_1740">
<rect width="83" height="70" fill="white" transform="translate(0 7)"/>
</clipPath>
</defs>
</svg>
