<svg width="83" height="69" viewBox="0 0 83 69" fill="none" xmlns="http://www.w3.org/2000/svg">
<path d="M78.0342 23.5792C77.1976 19.6693 75.54 16.1544 73.1035 13.1327C70.728 10.1874 67.75 7.88051 64.2522 6.27911C60.7263 4.66367 56.8352 3.84424 52.6896 3.84424C44.7326 3.84424 36.6413 6.89251 29.9064 12.4272C23.2027 17.9353 18.5687 25.3101 16.858 33.1923C15.9449 37.4065 15.9059 41.5317 16.7441 45.4525C17.5791 49.3639 19.2382 52.8788 21.6747 55.9006C24.0502 58.8458 27.0283 61.1511 30.5261 62.7541C34.0519 64.3695 37.9415 65.189 42.0886 65.189C50.0456 65.189 58.1369 62.1407 64.8718 56.606C71.5755 51.0979 76.2096 43.7231 77.9187 35.841C78.8333 31.6268 78.8723 27.5015 78.0342 23.5792ZM71.8174 34.5158C68.8956 47.9872 55.5584 58.9457 42.0886 58.9457C28.6187 58.9457 20.0374 47.9872 22.9592 34.5158C25.8826 21.046 39.2198 10.0875 52.6896 10.0875C66.1595 10.0875 74.7408 21.046 71.8174 34.5158Z" fill="#FC7F7F"/>
<path d="M62.0297 50.8095C73.2149 40.763 75.7238 25.3168 67.6334 16.3095C59.5431 7.30216 43.9172 8.14456 32.732 18.1911C21.5468 28.2375 19.0379 43.6837 27.1282 52.6911C35.2186 61.6984 50.8445 60.856 62.0297 50.8095Z" fill="#F9F5F3"/>
<path d="M79.5603 23.2534C78.6729 19.1011 76.9093 15.3664 74.3246 12.1611L74.3047 12.1368C73.7672 11.4672 72.789 11.357 72.1162 11.8922C71.4414 12.4288 71.3294 13.4107 71.8658 14.0853L71.888 14.1123C74.1691 16.9414 75.7234 20.2365 76.5077 23.9058C77.2992 27.6095 77.2611 31.5135 76.3941 35.5092C74.7579 43.0503 70.3139 50.1142 63.8813 55.3999C57.4242 60.7058 49.6846 63.6278 42.0884 63.6278C38.1681 63.6278 34.4968 62.8564 31.1761 61.3353C27.8995 59.8339 25.1117 57.6758 22.8901 54.9205C20.6614 52.1562 19.1285 48.9466 18.3278 45.379H21.5247C22.2462 48.1618 23.5178 50.7258 25.3201 52.9612C29.2431 57.8265 35.1982 60.5061 42.0884 60.5061C42.3998 60.5061 42.7115 60.4988 43.0235 60.4879C43.0994 60.499 43.1749 60.5065 43.2497 60.5065C43.3766 60.5065 43.501 60.4901 43.6211 60.4604C50.0016 60.0961 56.4373 57.4764 61.8994 52.988C67.7913 48.1465 71.8555 41.7041 73.3431 34.8473L73.3447 34.8393L73.3481 34.8223C74.8782 27.7399 73.497 21.0815 69.4576 16.0714C65.5398 11.2125 59.5952 8.53396 52.7162 8.52693L52.6956 8.52662H52.6893C45.8141 8.52662 38.7784 11.1966 32.8784 16.0446C26.9864 20.8861 22.9222 27.3285 21.4345 34.1853L21.4326 34.1949L21.4298 34.2089C20.8306 36.9815 20.6795 39.6885 20.9575 42.2576H17.8274C17.5527 39.427 17.738 36.5008 18.384 33.5236C20.0202 25.9826 24.4639 18.9187 30.8966 13.6328C37.3537 8.32699 45.0932 5.40499 52.6893 5.40499C55.7705 5.40499 58.7192 5.88681 61.4532 6.83719C62.2674 7.12048 63.1568 6.68954 63.4399 5.87526C63.7229 5.06099 63.2924 4.17148 62.4781 3.8885C59.4136 2.8234 56.1203 2.2832 52.6893 2.2832C44.8554 2.2832 36.9101 5.10001 30.1522 10.2434H10.7396C9.87757 10.2434 9.17879 10.9421 9.17879 11.8042C9.17879 12.6662 9.87757 13.365 10.7396 13.365H26.5012C20.829 18.8027 16.9039 25.6229 15.3334 32.8615C14.6409 36.0528 14.4295 39.1996 14.6946 42.2574H8.85867C7.99663 42.2574 7.29785 42.9562 7.29785 43.8182C7.29785 44.6803 7.99663 45.379 8.85867 45.379H15.138C15.1645 45.5125 15.1893 45.6462 15.2177 45.7792C16.1051 49.9313 17.8689 53.666 20.4602 56.8799C22.9879 60.0148 26.1559 62.4687 29.8761 64.1733C33.6076 65.8827 37.7164 66.7494 42.0886 66.7494C50.4057 66.7494 58.8491 63.5753 65.8632 57.8117C72.8368 52.0816 77.66 44.3962 79.4448 36.171C80.4061 31.7395 80.4452 27.3933 79.5603 23.2534ZM24.2514 36.0772H26.0069C26.8689 36.0772 27.5677 35.3784 27.5677 34.5164C27.5677 33.6543 26.8689 32.9556 26.0069 32.9556H24.9735C26.6014 27.4927 30.0595 22.4013 34.8603 18.4565C39.6392 14.5295 45.2094 12.1824 50.736 11.7302L50.5031 12.8034C50.3203 13.6458 50.8551 14.4769 51.6974 14.6597C51.809 14.6839 51.9203 14.6954 52.0299 14.6954C52.7485 14.6954 53.3951 14.1961 53.5537 13.4652L53.9402 11.6837C59.3315 11.9812 63.945 14.2075 67.0276 18.0309C70.2373 22.0118 71.4608 27.2728 70.5265 32.9556H68.771C67.9092 32.9556 67.2102 33.6543 67.2102 34.5164C67.2102 35.3784 67.9092 36.0772 68.771 36.0772H69.8045C68.1765 41.5401 64.7185 46.6314 59.9176 50.5762C55.4807 54.2221 50.3618 56.5061 45.2291 57.1765L45.4347 56.2294C45.6174 55.387 45.0827 54.5558 44.2405 54.3731C43.3979 54.1897 42.5667 54.7249 42.384 55.5674L41.9899 57.3834C36.1047 57.3583 31.0505 55.095 27.7502 51.0019C26.4038 49.3321 25.4085 47.4362 24.7735 45.3792H31.4313C32.2934 45.3792 32.9922 44.6804 32.9922 43.8184C32.9922 42.9563 32.2934 42.2576 31.4313 42.2576H24.1038C23.8548 40.2872 23.9004 38.2122 24.2514 36.0772Z" fill="#3149BC"/>
<path d="M41.1703 41.1878C41.5315 41.188 41.8816 41.0625 42.1603 40.8328L48.38 35.7221C48.6516 35.4989 48.8399 35.1906 48.9145 34.8471L52.0459 20.4141C52.2287 19.5717 51.694 18.7406 50.8516 18.5578C50.0095 18.3749 49.1781 18.9098 48.9953 19.7521L45.9789 33.6548L40.1786 38.4209C39.5126 38.9681 39.4163 39.9517 39.9637 40.6177C40.11 40.7962 40.2941 40.94 40.5028 41.0386C40.7115 41.1371 40.9395 41.1881 41.1703 41.1878ZM1.84292 26.8052H12.4986C13.3606 26.8052 14.0594 26.1064 14.0594 25.2443C14.0594 24.3823 13.3606 23.6835 12.4986 23.6835H1.84292C0.980882 23.6835 0.282104 24.3823 0.282104 25.2443C0.282104 26.1064 0.980882 26.8052 1.84292 26.8052ZM14.075 56.4606H5.95052C5.08848 56.4606 4.3897 57.1594 4.3897 58.0215C4.3897 58.8835 5.08848 59.5823 5.95052 59.5823H14.075C14.9371 59.5823 15.6358 58.8835 15.6358 58.0215C15.6358 57.1594 14.9371 56.4606 14.075 56.4606ZM3.28355 43.2209C2.74648 41.9315 0.85071 41.9768 0.374505 43.2919C0.148967 43.915 0.358741 44.6423 0.883018 45.0483C1.39138 45.4419 2.10124 45.4845 2.65158 45.1522C3.30166 44.7595 3.57589 43.9221 3.28355 43.2209ZM66.7994 9.2029C67.1261 9.98721 68.0515 10.3737 68.8378 10.0473C69.624 9.7211 70.0069 8.79506 69.6822 8.00888C69.3577 7.22332 68.429 6.83858 67.6438 7.16448C66.8563 7.49131 66.4766 8.41547 66.7994 9.2029Z" fill="#3149BC"/>
</svg>
