<svg width="112" height="112" viewBox="0 0 112 112" fill="none" xmlns="http://www.w3.org/2000/svg">
<circle cx="56" cy="56" r="56" fill="#F23434"/>
<path d="M40.8894 77.4399C37.8029 77.4399 35.1879 76.7112 33.0445 75.2536C30.9868 73.7961 29.4435 71.867 28.4147 69.4664C27.4716 67.0657 27 64.4936 27 61.75C27 57.8061 27.8145 54.0765 29.4435 50.5613C31.1583 47.0461 33.3446 43.9595 36.0024 41.3017C38.746 38.5581 41.7039 36.4575 44.8762 35L53.75 41.5589C51.4351 42.5877 49.2488 43.8309 47.1911 45.2885C45.1334 46.6603 43.3329 48.2035 41.7897 49.9183C40.3321 51.633 39.2176 53.3906 38.4459 55.1911L39.089 55.5769C39.6034 55.234 40.1607 54.9768 40.7608 54.8053C41.4467 54.6338 42.347 54.5481 43.4616 54.5481C45.0048 54.5481 46.5481 54.9339 48.0914 55.7055C49.7204 56.4772 51.0493 57.6346 52.0781 59.1779C53.1927 60.7212 53.75 62.6931 53.75 65.0938C53.75 67.7516 53.1499 70.0237 51.9495 71.9099C50.7492 73.7104 49.1631 75.0822 47.1911 76.0253C45.2192 76.9684 43.1186 77.4399 40.8894 77.4399ZM72.3979 77.4399C69.3113 77.4399 66.6963 76.7112 64.5529 75.2536C62.4952 73.7961 60.952 71.867 59.9231 69.4664C58.98 67.0657 58.5084 64.4936 58.5084 61.75C58.5084 57.8061 59.3229 54.0765 60.952 50.5613C62.6667 47.0461 64.853 43.9595 67.5108 41.3017C70.2544 38.5581 73.2124 36.4575 76.3847 35L85.2585 41.5589C82.9436 42.5877 80.7573 43.8309 78.6996 45.2885C76.6419 46.6603 74.8414 48.2035 73.2981 49.9183C71.8406 51.633 70.726 53.3906 69.9544 55.1911L70.5974 55.5769C71.1118 55.234 71.6691 54.9768 72.2693 54.8053C72.9552 54.6338 73.8554 54.5481 74.97 54.5481C76.5133 54.5481 78.0565 54.9339 79.5998 55.7055C81.2288 56.4772 82.5577 57.6346 83.5866 59.1779C84.7012 60.7212 85.2585 62.6931 85.2585 65.0938C85.2585 67.7516 84.6583 70.0237 83.458 71.9099C82.2577 73.7104 80.6715 75.0822 78.6996 76.0253C76.7276 76.9684 74.627 77.4399 72.3979 77.4399Z" fill="white"/>
</svg>
