<svg width="387" height="274" viewBox="0 0 387 274" fill="none" xmlns="http://www.w3.org/2000/svg">
<path d="M0 0H387V274H0V0Z" fill="#EFEEEE"/>
<path d="M54.8924 118.56C47.3607 118.56 40.9798 116.782 35.7495 113.225C30.7284 109.669 26.9625 104.961 24.452 99.1033C22.1507 93.2454 21 86.969 21 80.2742C21 70.6505 22.9875 61.5497 26.9625 52.972C31.1468 44.3943 36.4817 36.8627 42.9673 30.3771C49.6621 23.6823 56.8799 18.5566 64.6208 15L86.2742 31.0047C80.6255 33.5153 75.2906 36.5489 70.2695 40.1055C65.2484 43.4529 60.8549 47.2187 57.0891 51.4029C53.5325 55.5872 50.8127 59.876 48.9298 64.2695L50.4989 65.2109C51.7542 64.3741 53.1141 63.7464 54.5786 63.328C56.2523 62.9096 58.449 62.7004 61.1688 62.7004C64.9346 62.7004 68.7004 63.6418 72.4662 65.5248C76.4412 67.4077 79.684 70.232 82.1946 73.9979C84.9143 77.7637 86.2742 82.5755 86.2742 88.4335C86.2742 94.9191 84.8097 100.463 81.8808 105.066C78.9518 109.459 75.0814 112.807 70.2695 115.108C65.4576 117.409 60.3319 118.56 54.8924 118.56ZM131.778 118.56C124.246 118.56 117.865 116.782 112.635 113.225C107.614 109.669 103.848 104.961 101.337 99.1033C99.0362 93.2454 97.8855 86.969 97.8855 80.2742C97.8855 70.6505 99.873 61.5497 103.848 52.972C108.032 44.3943 113.367 36.8627 119.853 30.3771C126.548 23.6823 133.765 18.5566 141.506 15L163.16 31.0047C157.511 33.5153 152.176 36.5489 147.155 40.1055C142.134 43.4529 137.74 47.2187 133.975 51.4029C130.418 55.5872 127.698 59.876 125.815 64.2695L127.384 65.2109C128.64 64.3741 130 63.7464 131.464 63.328C133.138 62.9096 135.334 62.7004 138.054 62.7004C141.82 62.7004 145.586 63.6418 149.352 65.5248C153.327 67.4077 156.57 70.232 159.08 73.9979C161.8 77.7637 163.16 82.5755 163.16 88.4335C163.16 94.9191 161.695 100.463 158.766 105.066C155.837 109.459 151.967 112.807 147.155 115.108C142.343 117.409 137.217 118.56 131.778 118.56Z" fill="#E3E3E3"/>
</svg>
