<svg width="33" height="35" viewBox="0 0 33 35" fill="none" xmlns="http://www.w3.org/2000/svg">
<path d="M32.5556 3.7468C32.5556 1.6775 30.8781 0 28.8088 0H12.775L0 17.2353L12.775 34.4706H28.8088C30.8781 34.4706 32.5556 32.7931 32.5556 30.7238V3.7468Z" fill="#F23434"/>
<g clip-path="url(#clip0_4438_108)">
<path d="M24.491 24.8442L26.3694 22.9672L20.2587 16.8565L26.3694 10.7551L24.491 8.87671L16.5059 16.8605L24.4897 24.8442H24.491Z" fill="white"/>
<path d="M15.8262 24.8442L17.7046 22.9672L11.5939 16.8565L17.7046 10.7551L15.8262 8.87671L7.84113 16.8605L15.8249 24.8442H15.8262Z" fill="white"/>
</g>
<defs>
<clipPath id="clip0_4438_108">
<rect width="19.4834" height="16.8266" fill="white" transform="matrix(-1 0 0 1 26.5607 8.44727)"/>
</clipPath>
</defs>
</svg>
