<svg width="293" height="54" viewBox="0 0 293 54" fill="none" xmlns="http://www.w3.org/2000/svg">
<g clip-path="url(#clip0_4317_1880)">
<path d="M27.631 0L37.0233 16.5682L55.2621 20.6262L42.8281 34.9238L44.708 54L27.631 46.2682L10.5541 54L12.434 34.9238L0 20.6262L18.2387 16.5682L27.631 0Z" fill="#FFCB45"/>
</g>
<g clip-path="url(#clip1_4317_1880)">
<path d="M87.0655 0L96.4578 16.5682L114.697 20.6262L102.263 34.9238L104.142 54L87.0655 46.2682L69.9886 54L71.8684 34.9238L59.4344 20.6262L77.6732 16.5682L87.0655 0Z" fill="#FFCB45"/>
</g>
<g clip-path="url(#clip2_4317_1880)">
<path d="M146.5 0L155.892 16.5682L174.131 20.6262L161.697 34.9238L163.577 54L146.5 46.2682L129.423 54L131.303 34.9238L118.869 20.6262L137.108 16.5682L146.5 0Z" fill="#FFCB45"/>
</g>
<g clip-path="url(#clip3_4317_1880)">
<path d="M205.934 0L215.327 16.5682L233.566 20.6262L221.132 34.9238L223.011 54L205.934 46.2682L188.858 54L190.737 34.9238L178.303 20.6262L196.542 16.5682L205.934 0Z" fill="#FFCB45"/>
</g>
<g clip-path="url(#clip4_4317_1880)">
<path d="M265.369 0L274.761 16.5682L293 20.6262L280.566 34.9238L282.446 54L265.369 46.2682L248.292 54L250.172 34.9238L237.738 20.6262L255.977 16.5682L265.369 0Z" fill="#FFCB45"/>
</g>
<defs>
<clipPath id="clip0_4317_1880">
<rect width="55.2621" height="54" fill="white"/>
</clipPath>
<clipPath id="clip1_4317_1880">
<rect width="55.2621" height="54" fill="white" transform="translate(59.4344)"/>
</clipPath>
<clipPath id="clip2_4317_1880">
<rect width="55.2621" height="54" fill="white" transform="translate(118.869)"/>
</clipPath>
<clipPath id="clip3_4317_1880">
<rect width="55.2621" height="54" fill="white" transform="translate(178.303)"/>
</clipPath>
<clipPath id="clip4_4317_1880">
<rect width="55.2621" height="54" fill="white" transform="translate(237.738)"/>
</clipPath>
</defs>
</svg>
