<svg width="103" height="17" viewBox="0 0 103 17" fill="none" xmlns="http://www.w3.org/2000/svg">
<path d="M8.03975 0.559917L5.84128 4.72173L0.922499 5.39127C0.0404167 5.51072 -0.313089 6.52602 0.326588 7.10755L3.88522 10.3452L3.04354 14.9188C2.89203 15.7455 3.82462 16.3648 4.6057 15.9781L9.00601 13.8186L13.4063 15.9781C14.1874 16.3616 15.12 15.7455 14.9685 14.9188L14.1268 10.3452L17.6854 7.10755C18.3251 6.52602 17.9716 5.51072 17.0895 5.39127L12.1707 4.72173L9.97226 0.559917C9.57835 -0.181917 8.43703 -0.191347 8.03975 0.559917Z" fill="#FFD027"/>
<path d="M29.0538 0.559917L26.8553 4.72173L21.9365 5.39127C21.0544 5.51072 20.7009 6.52602 21.3406 7.10755L24.8992 10.3452L24.0575 14.9188C23.906 15.7455 24.8386 16.3648 25.6197 15.9781L30.02 13.8186L34.4203 15.9781C35.2014 16.3616 36.134 15.7455 35.9825 14.9188L35.1408 10.3452L38.6994 7.10755C39.3391 6.52602 38.9856 5.51072 38.1035 5.39127L33.1847 4.72173L30.9863 0.559917C30.5924 -0.181917 29.451 -0.191347 29.0538 0.559917Z" fill="#FFD027"/>
<path d="M50.0678 0.559917L47.8693 4.72173L42.9505 5.39127C42.0684 5.51072 41.7149 6.52602 42.3546 7.10755L45.9132 10.3452L45.0716 14.9188C44.92 15.7455 45.8526 16.3648 46.6337 15.9781L51.034 13.8186L55.4343 15.9781C56.2154 16.3616 57.148 15.7455 56.9965 14.9188L56.1548 10.3452L59.7134 7.10755C60.3531 6.52602 59.9996 5.51072 59.1175 5.39127L54.1987 4.72173L52.0003 0.559917C51.6064 -0.181917 50.465 -0.191347 50.0678 0.559917Z" fill="#FFD027"/>
<path d="M71.0818 0.559917L68.8833 4.72173L63.9645 5.39127C63.0824 5.51072 62.7289 6.52602 63.3686 7.10755L66.9272 10.3452L66.0856 14.9188C65.9341 15.7455 66.8666 16.3648 67.6477 15.9781L72.048 13.8186L76.4483 15.9781C77.2294 16.3616 78.162 15.7455 78.0105 14.9188L77.1688 10.3452L80.7274 7.10755C81.3671 6.52602 81.0136 5.51072 80.1315 5.39127L75.2127 4.72173L73.0143 0.559917C72.6204 -0.181917 71.4791 -0.191347 71.0818 0.559917Z" fill="#FFD027"/>
<path d="M92.0958 0.559917L89.8973 4.72173L84.9785 5.39127C84.0964 5.51072 83.7429 6.52602 84.3826 7.10755L87.9412 10.3452L87.0996 14.9188C86.9481 15.7455 87.8806 16.3648 88.6617 15.9781L93.062 13.8186L97.4623 15.9781C98.2434 16.3616 99.176 15.7455 99.0245 14.9188L98.1828 10.3452L101.741 7.10755C102.381 6.52602 102.028 5.51072 101.146 5.39127L96.2268 4.72173L94.0283 0.559917C93.6344 -0.181917 92.4931 -0.191347 92.0958 0.559917Z" fill="#FFD027"/>
</svg>
