<svg width="30" height="30" viewBox="0 0 30 30" fill="none" xmlns="http://www.w3.org/2000/svg">
<g clip-path="url(#clip0_3851_553)">
<path fill-rule="evenodd" clip-rule="evenodd" d="M5.97395 29.5C12.2197 30.1663 18.5186 30.1663 24.7644 29.5C25.9771 29.3702 27.1086 28.8287 27.9704 27.9657C28.8322 27.1027 29.3721 25.9703 29.5002 24.7575C30.1666 18.5117 30.1666 12.2128 29.5002 5.96705C29.3704 4.75437 28.8289 3.62281 27.9659 2.76102C27.1029 1.89923 25.9706 1.35928 24.7577 1.2312C18.512 0.56486 12.2131 0.56486 5.9673 1.2312C4.75461 1.36099 3.62305 1.90252 2.76126 2.76552C1.89947 3.62852 1.35953 4.76084 1.23145 5.97371C0.565104 12.2195 0.565104 18.5184 1.23145 24.7641C1.36123 25.9768 1.90276 27.1084 2.76576 27.9702C3.62876 28.832 4.76108 29.3719 5.97395 29.5ZM9.03216 22.8016C10.1267 23.8962 11.6113 24.5111 13.1593 24.5111C14.706 24.5085 16.1886 23.8925 17.2818 22.7984C18.375 21.7042 18.9897 20.2212 18.991 18.6744V12.6482C19.894 13.1936 20.9292 13.4812 21.9842 13.4796H23.4192V10.6361H21.9941C21.2003 10.6361 20.439 10.3208 19.8776 9.75945C19.3163 9.19813 19.001 8.4368 19.001 7.64297V6.21955H16.1525V18.6794C16.1525 19.2714 15.9769 19.8501 15.648 20.3423C15.3191 20.8346 14.8517 21.2182 14.3047 21.4448C13.7578 21.6713 13.156 21.7306 12.5754 21.6151C11.9948 21.4996 11.4614 21.2145 11.0428 20.7959C10.6242 20.3773 10.3391 19.844 10.2237 19.2634C10.1082 18.6828 10.1674 18.0809 10.394 17.534C10.6205 16.9871 11.0042 16.5196 11.4964 16.1907C11.9886 15.8618 12.5673 15.6863 13.1593 15.6863H14.5844V12.8378H13.1593C11.6113 12.8378 10.1267 13.4527 9.03216 14.5473C7.93757 15.6419 7.32264 17.1265 7.32264 18.6744C7.32264 20.2224 7.93757 21.707 9.03216 22.8016Z" fill="white"/>
</g>
<defs>
<clipPath id="clip0_3851_553">
<rect width="30" height="30" fill="white"/>
</clipPath>
</defs>
</svg>
