<svg width="93" height="93" viewBox="0 0 93 93" fill="none" xmlns="http://www.w3.org/2000/svg">
<g clip-path="url(#clip0_4652_1727)">
<path fill-rule="evenodd" clip-rule="evenodd" d="M20.3678 21.1912L22.9747 26.5281L28.922 27.3302L24.5825 31.4331L25.6439 37.2791L20.3522 34.4718L15.0761 37.2791L16.1376 31.4331L11.7981 27.3302L17.7454 26.5281L20.3678 21.1912ZM46.92 10.0083L49.5269 15.3452L55.4742 16.1473L51.1347 20.2503L52.1961 26.0962L46.92 23.2889L41.6283 26.0962L42.6898 20.2503L38.3659 16.1473L44.3132 15.3452L46.92 10.0083ZM73.4878 21.1912L76.0947 26.5281L82.042 27.3302L77.7025 31.4331L78.7639 37.2791L73.4722 34.4718L68.1961 37.2791L69.2576 31.4331L64.9181 27.3302L70.8654 26.5281L73.4878 21.1912ZM46.92 40.3486C53.0234 40.3486 57.9717 45.2382 57.9717 51.2693C57.9717 57.3003 53.0234 62.1899 46.92 62.1899C40.8166 62.1899 35.8683 57.3003 35.8683 51.2693C35.8683 45.2382 40.8166 40.3486 46.92 40.3486ZM53.1015 68.7762L57.7844 76.7971L61.5464 72.2314L68.3678 73.2957L61.9678 62.3287C59.7513 65.2903 56.6761 67.5577 53.1015 68.7762ZM40.7386 68.7762L36.0556 76.7971L32.2937 72.2314L25.4722 73.2957L31.8722 62.3287C34.0888 65.2903 37.1639 67.5577 40.7386 68.7762Z" fill="#FC7F7F"/>
<path d="M21.4761 20.5432L23.802 25.294L29.0781 26.0035C30.124 26.1423 30.4986 27.4226 29.7805 28.1013L25.9249 31.7569L26.8771 36.9396C27.0644 37.9576 25.9718 38.7289 25.0664 38.2353L20.3679 35.7365L15.6693 38.2353C14.764 38.7134 13.6244 37.973 13.8742 36.8625L14.8108 31.7415L10.9552 28.0858C10.2059 27.3763 10.6118 26.1115 11.6732 25.9727L16.9337 25.2631L19.2596 20.5123C19.6966 19.6023 21.0391 19.6177 21.4761 20.5432ZM21.8508 26.9598L20.3679 23.9058L18.8693 26.9598C18.6976 27.3146 18.3386 27.5923 17.9171 27.6539L14.5298 28.1013L17.0118 30.4458C17.2927 30.7235 17.4488 31.1245 17.3708 31.541L16.762 34.8727L19.7591 33.2839C20.1181 33.0989 20.5708 33.068 20.9454 33.2839L23.9581 34.8881L23.3649 31.6181C23.2713 31.217 23.3805 30.7697 23.7083 30.4458L26.1903 28.1013L22.8342 27.6539C22.4283 27.6077 22.0381 27.3455 21.8508 26.9598ZM48.0439 9.36031L50.3698 14.1111L55.6615 14.8206C56.7074 14.9595 57.082 16.2397 56.3639 16.9338L52.5083 20.5895L53.4605 25.7721C53.6478 26.7902 52.5552 27.5614 51.6498 27.0678L46.92 24.569L42.2215 27.0678C41.3161 27.546 40.1766 26.8056 40.4264 25.695L41.363 20.574L37.4918 16.9184C36.7425 16.2089 37.1483 14.944 38.2098 14.8052L43.4703 14.0957L45.7961 9.36031C46.2644 8.4194 47.5913 8.43483 48.0439 9.36031ZM48.4186 15.777L46.92 12.7229L45.4371 15.777C45.2654 16.1317 44.9064 16.4094 44.4849 16.4711L41.082 16.9184L43.5639 19.2629C43.8605 19.5406 44.001 19.9416 43.923 20.3581L43.3142 23.6898L46.3269 22.1011C46.6859 21.916 47.123 21.8851 47.5132 22.1011L50.5259 23.7052L49.9327 20.4352C49.8391 20.0342 49.9483 19.5869 50.2761 19.2629L52.7581 16.9184L49.402 16.4556C48.9805 16.4248 48.6059 16.1626 48.4186 15.777ZM74.5961 20.5432L76.922 25.294L82.1981 26.0035C83.2439 26.1423 83.6342 27.4226 82.9005 28.1013L79.0449 31.7569L79.9971 36.9396C80.1844 37.9576 79.0917 38.7289 78.1864 38.2353L73.4878 35.7365L68.7893 38.2353C67.8839 38.7134 66.7444 37.973 66.9786 36.8625L67.9152 31.7415L64.0596 28.0858C63.3103 27.3763 63.7161 26.1115 64.7776 25.9727L70.0381 25.2631L72.3639 20.5123C72.8166 19.6023 74.1591 19.6177 74.5961 20.5432ZM74.9708 26.9598L73.4878 23.9058L71.9893 26.9598C71.8176 27.3146 71.4742 27.5923 71.0371 27.6539L67.6498 28.1013L70.1161 30.4458C70.3971 30.7235 70.5532 31.1245 70.4752 31.541L69.8664 34.8727L72.8791 33.2839C73.2381 33.0989 73.6908 33.068 74.0654 33.2839L77.0937 34.8881L76.5005 31.6181C76.4069 31.217 76.5161 30.7697 76.8439 30.4458L79.3103 28.1013L75.9542 27.6539C75.5483 27.6077 75.1581 27.3455 74.9708 26.9598ZM41.1288 52.0403C40.7854 51.4542 40.9883 50.6984 41.5815 50.359C42.1747 50.0197 42.9396 50.2202 43.283 50.8064L44.922 53.6136L50.7444 47.8602C51.2283 47.3821 52.0244 47.3821 52.5083 47.8602C52.9922 48.3384 52.9922 49.1251 52.5083 49.6032L45.5308 56.4981C44.9532 57.0688 43.9854 56.9454 43.5796 56.2513L41.1288 52.0403ZM46.92 39.0065C53.7103 39.0065 59.2205 44.4514 59.2205 51.1611C59.2205 57.8708 53.7103 63.3158 46.92 63.3158C40.1298 63.3158 34.6196 57.8708 34.6196 51.1611C34.6196 44.4514 40.1298 39.0065 46.92 39.0065ZM53.8508 44.3126C50.0264 40.5335 43.8137 40.5335 39.9893 44.3126C36.1649 48.0916 36.1649 54.2306 39.9893 58.0097C43.8137 61.7887 50.0264 61.7887 53.8508 58.0097C57.6752 54.2152 57.6752 48.0916 53.8508 44.3126ZM46.92 31.3713C57.9718 31.3713 66.9318 40.225 66.9318 51.1457C66.9318 55.2795 65.6517 59.1202 63.4508 62.2977L69.4293 72.5243C70.0069 73.4806 69.2108 74.5603 68.1805 74.4061L62.0615 73.4498L58.7835 77.4293C58.2059 78.1697 57.1288 78.0463 56.7074 77.3059L52.5239 70.1489C48.8713 71.1977 44.9532 71.1977 41.3161 70.1489L37.1327 77.3059C36.7113 78.0463 35.6342 78.1697 35.0566 77.4293L31.7786 73.4498L25.6596 74.4061C24.6137 74.5758 23.8801 73.4498 24.3796 72.5705L30.3893 62.2977C24.9571 54.4466 25.9718 43.8807 32.7776 37.1555C36.3835 33.5924 41.3942 31.3713 46.92 31.3713ZM61.7961 64.3801C59.8917 66.4778 57.5503 68.1591 54.8966 69.3005L57.9561 74.5295L60.5786 71.352C60.8752 70.9818 61.3278 70.843 61.7649 70.9201L65.9796 71.5834L61.7961 64.3801ZM38.9279 69.3005C36.2898 68.1591 33.9483 66.4778 32.0439 64.3955L27.8449 71.5834L32.0596 70.9201C32.481 70.843 32.9493 70.9972 33.2459 71.352L35.8683 74.5295L38.9279 69.3005ZM59.3142 38.9139C52.4771 32.1579 41.3786 32.1579 34.5415 38.9139C27.7044 45.6699 27.7044 56.6369 34.5415 63.3929C41.3942 70.1489 52.4771 70.1489 59.3142 63.3929C66.1513 56.6369 66.1513 45.6699 59.3142 38.9139Z" fill="#3149BC"/>
<path fill-rule="evenodd" clip-rule="evenodd" d="M81.5718 44.8064L84.1787 50.1433L90.126 50.9454L85.7865 55.0484L86.8479 60.8943L81.5562 58.087L76.2801 60.8943L77.3416 55.0484L73.0021 50.9454L78.9494 50.1433L81.5718 44.8064Z" fill="#FC7F7F"/>
<path d="M82.6802 44.1584L85.0061 48.9092L90.2822 49.6188C91.328 49.7576 91.7183 51.0378 90.9846 51.7165L87.129 55.3722L88.0812 60.5549C88.2685 61.5729 87.1758 62.3441 86.2705 61.8505L81.5719 59.3517L76.8734 61.8505C75.968 62.3287 74.8285 61.5883 75.0627 60.4777L75.9993 55.3568L72.1437 51.7011C71.3944 50.9916 71.8002 49.7267 72.8617 49.5879L78.1222 48.8784L80.448 44.1276C80.9007 43.2175 82.2432 43.233 82.6802 44.1584ZM83.0549 50.5751L81.5719 47.521L80.0734 50.5751C79.9017 50.9299 79.5583 51.2075 79.1212 51.2692L75.7339 51.7165L78.2002 54.0611C78.4812 54.3387 78.6373 54.7398 78.5593 55.1562L77.9505 58.488L80.9632 56.8992C81.3222 56.7141 81.7749 56.6833 82.1495 56.8992L85.1778 58.5034L84.5846 55.2334C84.491 54.8323 84.6002 54.385 84.928 54.0611L87.3944 51.7165L84.0383 51.2692C83.6324 51.2229 83.2422 50.9607 83.0549 50.5751Z" fill="#3149BC"/>
<path fill-rule="evenodd" clip-rule="evenodd" d="M9.81195 44.8066L12.4188 50.1436L18.3661 50.9457L14.0266 55.0486L15.088 60.8946L9.79634 58.0873L4.52024 60.8946L5.5817 55.0486L1.24219 50.9457L7.18951 50.1436L9.81195 44.8066Z" fill="#FC7F7F"/>
<path d="M10.9202 44.1584L13.2461 48.9092L18.5222 49.6188C19.568 49.7576 19.9583 51.0378 19.2246 51.7165L15.369 55.3722L16.3212 60.5549C16.5085 61.5729 15.4158 62.3441 14.5105 61.8505L9.81194 59.3517L5.1134 61.8505C4.20803 62.3287 3.06852 61.5883 3.30267 60.4777L4.23926 55.3568L0.383643 51.7011C-0.365625 50.9916 0.0402312 49.7267 1.10169 49.5879L6.36218 48.8784L8.68803 44.1276C9.14072 43.2175 10.4832 43.233 10.9202 44.1584ZM11.2949 50.5751L9.81194 47.521L8.3134 50.5751C8.14169 50.9299 7.79828 51.2075 7.3612 51.2692L3.97389 51.7165L6.44023 54.0611C6.7212 54.3387 6.8773 54.7398 6.79925 55.1562L6.19048 58.488L9.20315 56.8992C9.56218 56.7141 10.0149 56.6833 10.3895 56.8992L13.4178 58.5034L12.8246 55.2334C12.731 54.8323 12.8402 54.385 13.168 54.0611L15.6344 51.7165L12.2783 51.2692C11.8724 51.2229 11.4822 50.9607 11.2949 50.5751Z" fill="#3149BC"/>
</g>
<defs>
<clipPath id="clip0_4652_1727">
<rect width="92" height="70" fill="white" transform="translate(0 8)"/>
</clipPath>
</defs>
</svg>
