<svg width="30" height="30" viewBox="0 0 30 30" fill="none" xmlns="http://www.w3.org/2000/svg">
<g clip-path="url(#clip0_3865_138)">
<path fill-rule="evenodd" clip-rule="evenodd" d="M24.7632 29.499C18.5174 30.1653 12.2185 30.1653 5.97273 29.499C4.75986 29.3709 3.62754 28.831 2.76454 27.9692C1.90154 27.1074 1.36001 25.9758 1.23023 24.7632C0.563883 18.5174 0.563883 12.2185 1.23023 5.97273C1.35831 4.75986 1.89825 3.62754 2.76004 2.76454C3.62183 1.90154 4.75339 1.36001 5.96608 1.23023C12.2118 0.563883 18.5107 0.563883 24.7565 1.23023C25.9694 1.35831 27.1017 1.89825 27.9647 2.76004C28.8277 3.62183 29.3692 4.75339 29.499 5.96608C30.1653 12.2118 30.1653 18.5107 29.499 24.7565C29.3709 25.9694 28.831 27.1017 27.9692 27.9647C27.1074 28.8277 25.9758 29.3692 24.7632 29.499ZM7.09586 9.29586C6.30891 10.0828 5.825 11.2375 5.825 12.7V19.3C5.825 20.7625 6.30891 21.9172 7.09586 22.7041C7.88282 23.4911 9.03748 23.975 10.5 23.975H21.5C22.9625 23.975 24.1172 23.4911 24.9041 22.7041C25.6911 21.9172 26.175 20.7625 26.175 19.3V12.7C26.175 11.2375 25.6911 10.0828 24.9041 9.29586C24.1172 8.50891 22.9625 8.025 21.5 8.025H10.5C9.03748 8.025 7.88282 8.50891 7.09586 9.29586ZM5.92914 8.12914C7.06718 6.99109 8.66252 6.375 10.5 6.375H21.5C23.3375 6.375 24.9328 6.99109 26.0709 8.12914C27.2089 9.26718 27.825 10.8625 27.825 12.7V19.3C27.825 21.1375 27.2089 22.7328 26.0709 23.8709C24.9328 25.0089 23.3375 25.625 21.5 25.625H10.5C8.66252 25.625 7.06718 25.0089 5.92914 23.8709C4.79109 22.7328 4.175 21.1375 4.175 19.3V12.7C4.175 10.8625 4.79109 9.26718 5.92914 8.12914ZM14.1851 14.4603C14.1851 14.1823 14.2285 14.0038 14.2728 13.9008C14.2942 13.851 14.3143 13.8222 14.327 13.8071C14.3392 13.7927 14.347 13.7878 14.3499 13.7862C14.3527 13.7845 14.3594 13.7811 14.3744 13.7784C14.3904 13.7756 14.4198 13.773 14.4658 13.7787C14.5611 13.7904 14.7127 13.836 14.9156 13.9578L17.6473 15.5967C17.9784 15.8222 18.0076 16.0031 18.0076 16.0553C18.0076 16.1076 17.9784 16.2885 17.6473 16.5139L14.9156 18.1529C14.5225 18.3888 14.3605 18.3031 14.3499 18.297C14.3326 18.287 14.1851 18.1836 14.1851 17.7603V14.4603ZM15.7646 12.5429C15.0942 12.1407 14.2559 11.9355 13.5253 12.357C12.7962 12.7776 12.5351 13.6153 12.5351 14.4603V17.7603C12.5351 18.5471 12.8277 19.3237 13.5253 19.7262C14.2298 20.1326 15.0577 19.9919 15.7646 19.5678L18.5146 17.9178C18.5258 17.911 18.5368 17.904 18.5477 17.8968C19.1926 17.4668 19.6576 16.8273 19.6576 16.0553C19.6576 15.2834 19.1926 14.6438 18.5477 14.2139C18.5368 14.2066 18.5258 14.1996 18.5146 14.1929L15.7646 12.5429Z" fill="white"/>
</g>
<defs>
<clipPath id="clip0_3865_138">
<rect width="30" height="30" fill="white"/>
</clipPath>
</defs>
</svg>
